<svg id="Calque_1" data-name="Calque 1" xmlns="http://www.w3.org/2000/svg" xmlns:xlink="http://www.w3.org/1999/xlink" viewBox="0 0 223.28 8966.74"><defs><style>.cls-1{fill:none;}.cls-2{clip-path:url(#clip-path);}.cls-3{fill:#f2f20f;}</style><clipPath id="clip-path" transform="translate(56.42 3467.76)"><rect class="cls-1" x="-0.28" width="90.07" height="346"/></clipPath></defs><title>barre-jaune</title><g class="cls-2"><path class="cls-3" d="M121.33,1142.81q3.38-671.29-6.56-1342.58a1.5,1.5,0,0,0-3,0q-.34,1190.58-.68,2381.15l-.09,294.3q0,71.34,0,142.69l0,71.35c0,1.28,2.49,32.29,0,35.67,4.65-6.28,2.77-25.15,2.72-35.57q-1.52-293.81-3.13-587.59-3.39-595.87-8.63-1191.73Q95.65,247.17,84.25-416.1a1.5,1.5,0,0,0-3,0q-5.5,831.63-8.94,1663.26-1.69,411.54-2.88,823.09-.29,98.41-.54,196.85-.14,53.68-.26,107.37c0,17.54-1.76,36.23-.13,53.69,3.71,39.71,2.93,4.67,2.94-8.94l.27-420.45,1-1646Q72.86,147,73-58.74l.13-205.75.06-98.41c0-17.54,1.67-36.21,0-53.67-3.73-39.8-2.85-4.48-2.79,9l3.36,833.21q3.75,931.77,7.51,1863.53a1.5,1.5,0,0,0,3,0L79.7,140.81,77.39-942.32l-.57-268.55-.27-125.32c0-20.8.78-41.87-.13-62.66-2.1-47.94-2.25,17.08-2.11,26.31q4.13,266.47,7.82,532.95Q97,230.14,105.11,1299.93q4.13,541,6.54,1082.06.6,134.27,1.09,268.51.24,62.67.44,125.33c0,7.39-1.35,53.73,1.6,53.75,2.19,0,.63-65,.55-71.29l-6.48-535L82.93,83.4,79.69-184.08a1.5,1.5,0,0,0-3,0q15,1281.3,15.68,2562.74.07,160.5-.05,321c0,26.23-2.94,54.29-.09,80.26,3.16,28.65.42-33.18.19-39.21q-2.91-76.15-4.58-152.35c-4.89-211.43-5.1-423-6.39-634.44q-4-644.57-7.59-1289.12Q69.78-60.49,66.1-785.8a1.5,1.5,0,0,0-3,0C62.49,246.77,61.89,1279.35,56,2311.91q-2.22,387.77-5.55,775.5c-.17,20.24-4.94,56.77,2.14,71.19-8.55-17.43-.31-69.75-.4-89.48q-.44-98.41-.86-196.84-.87-196.84-1.73-393.7-3.4-774-6.8-1547.93Q38.93,58.27,35.09-814.13a1.5,1.5,0,0,0-3,0q2.13,1682.64,4.25,3365.26.6,474.36,1.19,948.71a1.5,1.5,0,0,0,3,0q.3-1002.56.59-2005.12.29-998.08.58-1996.17Q42-1504,42.29-2506.57c0-7.76-4.34-59.81,0-62.66-5.86,3.84-2.51,26.36-2.41,35.52q.72,66.78,1.42,133.58,1.3,124.73,2.5,249.47,2.38,249.69,4.37,499.39Q52.12-1155.64,54.41-660q1.16,250.32,1.9,500.64Q56.69-34.14,57,91.06q.13,62.61.24,125.22c0,9.5-3,31.1,2.73,36-6.27-5.29-1.23-60.55-1.44-70.77Q48.42-313.87,38.34-809.24l-5-247.68a1.5,1.5,0,0,0-3,0Q40.56-83.61,48,889.73q7.44,970.53,12.11,1941.08,2.66,550.65,4.4,1101.3a1.5,1.5,0,0,0,3,0q-3.14-1210.17-.82-2420.35Q69.06,306.42,76.83-898.89c.16-26.18,3-54.29.52-80.3-3.62-38.61-2.71,3.13-2.7,17.93q.09,76,.13,151.93.09,152,0,303.89Q74.57-206,73.64,93.39,71.77,700.7,66.94,1308q-4.78,601.41-12.49,1202.8-.91,71.13-1.87,142.27c-.44,32.61,2.16,34.41,1.43.74q-1-43.79-1.83-87.56-2.9-145.1-5-290.22-4.44-301.23-6.49-602.5C34.55,869,31.73,64.47,27.5-740.06q-.8-152.21-1.6-304.42a1.5,1.5,0,0,0-3,0q-.51,1672-1.94,3344-.95,831.46-2.68,1663-.9,411.24-2.05,822.47-.57,205.61-1.23,411.22c-.08,24.58-7.09,70.82,2.52,89.42-5.35-10.35-.29-41.64-.38-53.53q-.18-26.76-.37-53.53-.75-107.07-1.46-214.14Q4.2,3303.15-.23,1641.93-4.66-20.94-2.41-1683.83q.57-420.24,1.56-840.47c0-12.8,1.48-84.17-2.54-35.85-2.91,35,.58,71.86.85,107Q-1.7-2346.06-.93-2239q1.47,205.29,2.7,410.6,5,831.12,5.95,1662.26Q8,39.56,8,245.25a1.5,1.5,0,0,0,3,0q.42-949.9.86-1899.8L12-2127.27q.06-120.42.11-240.82,0-58,0-115.95l0-53.52c0-17.3-8.07-57.59,0-71.35-10.15,17.23-2.52,65.63-2.38,89.32q.35,62.51.68,125,.66,120.57,1.26,241.16Q13-1916.65,14-1679.9q4,952,5.13,1904.07,1.1,952.47-.74,1904.93Q17.47,2607.53,15.8,3086,15.4,3202.2,15,3318.43q-.22,58.11-.46,116.23l-.21,53.64c0,6.18,4.37,68.89-.3,71.53,10.05-5.68,1.38-82.37,1.17-96.89q-.9-61.86-1.72-123.72-1.53-115-2.79-230.11C3.71,2477.34,2.49,1845.51,2.72,1213.7q.09-240.76.39-481.54.06-53.48.13-107c0-20,3.39-42.68.07-62.39C-1.17,536.19.85,582.89.91,589.25q1.27,119.7,2.38,239.41,4.37,470.88,6.37,941.76,2,476.19,1.67,952.37-.18,235.93-.94,471.87Q10,3314.81,9.45,3435c-.16,35.5-1.73,71.31-.51,106.78,1.41,41,2.24,3,2.06-8q-.51-30.57-.95-61.13c-9.16-631.22-5.6-1262.73-6.73-1894L1.61,620.17Q1.19,382.8.76,145.42c0-15.51,6.62-95.28-3.1-98.6,6.24,2.13.73,114.41.79,124.94q.74,116,1.46,232.08,5.94,951.3,9.3,1902.61Q11.79,3258,7,4209.54c0,3.47-1.49,53.59,1.07,53.59s1.22-39.31,1.19-44.6Q9,4156.07,8.67,4093.6q-.54-120.49-1-241-1-236.64-1.7-473.28-1.5-478-1.9-956-.69-951,4.48-1902.07Q11.29,49,16-423.23q2.37-235.71,5.3-471.4c.26-20.82,4-231,1.79-231.05-1.17,0,2.28,207.39,2.65,229.91Q41,51.72,45.79,999.33q2.41,473.68,2.26,947.36,0,120.72-.25,241.42-.11,58.13-.24,116.24c0,16.9-3.14,37.05-.14,53.64,4.8,26.51,2.93-20.35,2.93-27L50.44,1847q.15-954.63.31-1909.28,0-237.54.08-475.08l0-242c0-17,3-37.13,0-53.79C46.37-858.07,48-822.12,48-815.36l.41,125.22q1.59,478.49,3.19,957L58,2171.9,61,3093.12a1.5,1.5,0,0,0,3,0q-2.89-1436,3.5-2872Q69.12-135.44,71.29-492q.51-84.66,1.06-169.31c.18-26.44,2.61-53.84.53-80.2-1.89-23.87-.63-23.86-2.49,0-1.38,17.56.26,35.89.39,53.47q1.27,178.32,2.27,356.65,4,714.29,3.4,1428.57-.3,361.74-1.75,723.49Q74,1999.25,73,2177.8c-.1,16.6,9,66.92-.47,80.33,8.12-11.46,2.62-53.19,2.55-71.4q-.36-93.72-.67-187.45Q72,1280.41,72,561.52q0-714.57,2.5-1429.13,1.23-357.15,3.07-714.31.91-178.51,2-357c.06-9.63.86-30-2.44-35.83,2.78,4.87.44,32.24.48,35.44l1.17,88.62Q79.93-1762,81-1673.38,98.57-239.92,99.21,1193.67q.18,356.94-.69,713.89c0,8.65-1.19,86.09,2.25,36,1.81-26.23-.82-53.43-1.21-79.71Q98.2,1770.7,97,1677.55q-2.27-177.87-3.86-355.74Q89.93,964.87,89.4,607.9q-.27-178.74.13-357.47.1-44.69.24-89.36c0-12,5.69-64.53-2.36-71.63C96,97,88.78,167.67,89,178.06q.76,44.34,1.5,88.68,12,721.72,17.58,1443.52,1.39,179,2.41,357.9.47,80.58.84,161.17.21,44.79.4,89.57c.06,14.56-1.56,30.33.18,44.8,3.6,30,2.57-23,2.53-26.46q-3.75-355.93-6.59-711.9-11.33-1427.7-6.06-2855.49,1.5-361.24,4.24-722.5c.23-30,6.67-347.57,1.78-347.9,2.91.2,7.21,313.33,7.92,343.06Q132.35-1259,135-560.24q1.41,352.26-.61,704.53-1,175.83-2.9,351.67c-.29,27,4.26,61.36-1,87.76,3.25-16.31.45-46.51-.29-67.59q-3-85.58-5.8-171.16Q113.15-2.4,106-349.89,102.37-526,99.73-702.12c-.88-58.77,1.17-118.33-2.4-177C94.24-930,94.85-852.44,95-843.46l1.32,88.89Q107-33,114.55,688.69q3.77,357.31,6.77,714.63.34,40.23.67,80.46c.13,15.11,9.91,68.89.65,80.47,8.9-11.13,2.19-52,1.94-70.62q-.7-53.13-1.37-106.27-2.23-177.36-4-354.73-7.3-712-8-1424-.34-356.59,1-713.2.66-178.22,1.74-356.42c.06-10.58-8.07-81.18.56-89.07-7.58,6.93-1.51,57.87-1.29,70.09q1.56,88,3,175.94c15.85,950.8,23.2,1901.73,27,2852.66q2.87,712.38,3.62,1424.78.52,356.17.89,712.35c0,9.78-1.14,30.08,2.87,35.68-2.58-3.6-.35-33.82-.37-35.44q-.47-44.31-.9-88.63-.87-88.66-1.66-177.35-1.63-182-2.89-363.92-5-716-4.46-1432,.26-356,1.87-711.95.81-177.88,1.95-355.77c.12-19.09,5.49-58-2.18-71.18,9.34,16,.74,61.18,1,79.76q1.1,93.15,2,186.3,7.13,712.29,5.06,1424.65-.25,89.13-.65,178.25c-.14,29.3-3,60-.44,89.1,4.05,45.36,2.1-21,1.93-35.62q-2.19-178.23-4.19-356.45-4.06-361.33-7.41-722.69-6.67-719.62-10.51-1439.28-1.91-358.08-3.12-716.18c-.08-23.09-9.5-70-.3-89.56-6,12.78-2.43,43.29-2.24,61.67Q124-761.93,124.85-669q1.55,177.15,2.74,354.31Q129.95,40.12,130.81,395q.23,88.78.34,177.57l.09,79.92c0,11.49,4.51,34.32,0,44.4,3.18-7.15,2.32-24,2.13-35.22q-3-176.82-5.79-353.65C120-168.6,113.77-645.24,113.19-1121.9q-.22-178.08.68-356.17.22-40.08.49-80.16c.07-9.46.62-30-2.29-35.75,2.85,5.59.54,31.28.61,35.4q1.6,92.94,3.16,185.89,6,359,11.36,718.06Q137.76,56.64,145.66,768q7.93,713.5,13.2,1427,2.64,357.39,4.61,714.76c.05,8.43,1.59,86.91,2.44,36.43.48-29.13-1.58-58.66-2.35-87.79q-2.33-87.93-4.54-175.88-4.54-180.89-8.61-361.78-15.53-689.91-24.26-1379.94a1.5,1.5,0,0,0-3,0q0,1283.74,0,2567.49c0,206.81-.29,413.64-4,620.42q-1.32,72.93-3.28,145.85c-.11,4.19-.92,71.85.58,41.36,1.44-29.26-.91-59.39-1.35-88.67q-2.39-159.76-4.48-319.53Q102.25,3271,97.41,2634.24q-5.88-723.36-9.81-1446.73a1.5,1.5,0,0,0-3,0L84,2736.65c0,125.81.14,251.61-.33,377.42C83.2,3234,72.48,3356.17,77,3475.79c1.65,43.26,1.67-27.85,1.68-39.48L78.85,3329q.12-98.41.25-196.83l.48-384.7q2-1547.77,3.91-3095.53Q84.6-1220.4,85.7-2092.7a1.5,1.5,0,0,0-3,0c-20.88,826.68-17.42,1654.12-22,2481Q53.74,1633.87,46.83,2879.43q-1.74,313.64-3.47,627.27l-1.74,313.63-.84,152.33q-.2,35.85-.4,71.69c-.05,10.2,5.91,86.17-.49,89.61,11.74-6.31,3.32-106.75,3.38-125.36q.27-80.59.56-161.19.57-161.17,1.17-322.36,1.16-308.93,2.44-617.84Q52.65,1658.44,59.93,409.7q7.29-1248,16.68-2496.08c.79-105.27,9.13-1242.86,8.46-1242.86-2.54,0-.19,1130.12-.09,1234.75Q86.14-846.24,85.92,402q-.42,1248.2-3.46,2496.4-.81,313.14-1.85,626.27-.23,71.57-.48,143.14c-.1,28.63,2.81,55.25,2.65,9l-.31-89.39-1.08-312.86q-2.15-621.26-4.3-1242.5-4.31-1247-8.62-2493.95-1.06-303.93-2.11-607.84a1.5,1.5,0,0,0-3,0Q54.54,498,42.46,2065.78q-6.08,787.8-13,1575.59-1.72,196.88-3.5,393.76-.81,89.48-1.63,179-.45,49.21-.91,98.42c-.08,8.93-5.12,32.74-.1,39.68-6-8.23-3.62-34.8-4.06-44.68-11.06-246.23-2.35-494.82-2.57-741.29Q16,2782,18.72,1997.71q1.38-392,3.63-783.91.51-89.05,1.06-178.09.3-49,.63-97.94c.05-8.68-.72-22.92-2.54-26.9,7.22,15.84.51,52.82.67,70.49q1.71,189.75,2.58,379.5,3.53,772.85-6.82,1545.66-2.6,193.09-6.08,386.18-1.57,87.43-3.33,174.87c-.7,34.49-4.31,70.29-2.18,104.7.27,4.3,1.77,16.66,1.91,17.23-5.14-20.82-.92-49.06-1.3-70.57q-6.83-386.4-9-772.85c-7.19-1040-9.09-2080-13.2-3120Q-16-565.48-16.73-757a1.5,1.5,0,0,0-3,0Q-25.46,388.26-35,1533.53q-2.4,286-5,572.08-1.32,143-2.7,285.94-.65,67-1.3,134c-.22,22.26-4.28,49.53-.71,71.46,2,12,.68,12.2,2.71,0,2.26-13.62,0-31.09,0-44.68q-.44-571.82,2.16-1143.62,2.6-571.07,8.19-1142.11Q-29-18.28-25.41-303.17c.1-7.36,2-53.35-.73-53.34-2.37,0-1.54,57.93-1.55,62.43q-.18,75.78-.37,151.58Q-28.4.23-28.83,142.94q-1.73,565.75-6.35,1131.51Q-37.8,1558.21-42,1841.93q-2.11,141.27-4.7,282.55-.65,35.25-1.33,70.49c-.4,20.5.72,40.15,2.16,8.31,2.29-50.38.09-101.39.16-151.83Q-44.17,909.34-33.2-232.74-27.72-802-19.87-1371.19c.05-3.09-2.52-60.71.87-62.15-7.62,3.23-2.55,42.95-2.51,53.69q.26,75.92.48,151.84.45,142.92.83,285.83.78,285.89,1.31,571.76,2.14,1139.36.63,2278.72Q-19.77,3052.22-25,4195.94q-1.3,285.82-2.84,571.63c0,7.81.56,64.61,2.71,17.82,1.1-23.73,0-47.77,0-71.53V4284.67q0-572.27,0-1144.52l0-2289q0-277.18,0-554.37a1.5,1.5,0,0,0-3,0Q-33.44,1611.42-43,2926.06-47.92,3587-54.3,4248q-.73,75.87-1.49,151.73c-.11,10.71.07,75,2.6,26.68,1.55-29.69.38-59.76.57-89.49q1.07-165.53,2.19-331.07,2.22-326.52,4.65-653.06,9.78-1314,23.09-2627.91Q-9.4-586.88,7.4-1898.56,15.86-2557.81,25.2-3217q1.07-75.67,2.15-151.34c.11-7.14-5.36-75.59,1.15-80.12-9.78,6.81-2.5,56.23-2.45,71.34q.48,164.94.69,329.9.39,325.53-.32,651.07Q25-1736.77,19-1077.38q-3,324.44-7,648.85c-2.56,204-1.61,408.7-14.31,612.41C-2.49,186.12-7.72,244-6,244.35c-2.67-.51-3.57-45.62-3.78-50-2.42-49.07-2.4-98.25-2.57-147.37q-.57-164.71-1-329.43-.87-329.5-1.32-659-.88-650.26-.15-1300.53.19-164.8.48-329.6c0-10.38,5.29-59.34-2.87-62.26,3.7,1.32-.09,76.39-.1,80.61q-.09,85.08-.2,170.17-.42,331.4-.91,662.78-1,653.82-2.27,1307.63-2.61,1316.49-6.53,2633-3.9,1316.31-9.12,2632.62-1.28,322.32-2.63,644.64a1.5,1.5,0,0,0,3,0q6.69-1593.85,11.49-3187.71,4.76-1585.17,7.64-3170.36,1.62-895.64,2.65-1791.28a1.5,1.5,0,0,0-3,0q-2.21,1153.49.68,2307,.4,160.27.91,320.54c.29,92.48-4.07,187,7.92,278.9a1.5,1.5,0,0,0,3,0C14.9,27.81,12.1-201.09,15-428.53q4.62-368.91,7.81-737.84,6.32-730.84,7-1461.72.41-419.11-1-838.22a1.5,1.5,0,0,0-3,0q-22.3,1546.45-39.71,3093Q-31.33,1172.2-43.85,2717.78q-7,872.19-12.57,1744.39a1.5,1.5,0,0,0,3,0q17.12-1698,24.89-3396,1-205.76,1.93-411.52.47-102.9.89-205.78l.42-98.42c0-10.18.58-30-2.78-35.8,7.62,13.15,0,55.88,0,71.53v840.5q0,849.45,0,1698.89l0,1895.6a1.5,1.5,0,0,0,3,0q6.66-1224,9.1-2447.95,2.43-1224.3.64-2448.59-1-687.85-3.36-1375.72a1.5,1.5,0,0,0-3,0Q-41.92-16.92-47.11,1417.42q-1.48,410.79-1.74,821.58a1.5,1.5,0,0,0,3,0C-32.42,1561.21-28.2,883.29-26,205.38q.93-289.84,1.52-579.69a1.5,1.5,0,0,0-3,0Q-42.42,794.09-44.75,1962.61q-.66,330.6-.3,661.21a1.5,1.5,0,0,0,3,0Q-27,1112.46-18.61-398.95q.49-89.52,1-179,.24-44.76.47-89.52c.05-9.41-.11-107.5-2.41-53.89-5.32,124.14,1,249.94,1.48,374.21q1.48,378.66,3,757.32Q-12.1,1163-9,1915.83c2.3,563.78,3.75,1127.6,14.62,1691.29a1.5,1.5,0,0,0,3,0q23-1056.67,19.66-2113.7-.9-300.09-3.92-600.16a1.5,1.5,0,0,0-3,0Q12,2301,13.86,3708.8q.25,196,.73,392c.16,62.56-.69,125.22,1,187.76.36,12.86-4.78,59.84,7.83,69.71a1.52,1.52,0,0,0,2.56-1.06q9.19-993.51,17.06-1987Q51,1371.58,57.56,372.93q3.27-497.28,6.22-994.57.73-125.46,1.46-250.92.35-58.26.67-116.51c0-2.94-2.85-61.44.35-62.73-7.8,3.15-2.69,42.58-2.65,53.59q.86,245.82,1.7,491.63l6.9,1993.37Q75.63,2479,79.07,3471.23l.87,250.28a1.5,1.5,0,0,0,3,0q4.88-1377.87,5.67-2755.75,1-1378-.36-2756-.65-778.42-1.62-1556.85a1.5,1.5,0,0,0-3,0Q71.36-1880.36,62-413.57q-9.33,1458.93-15.8,2917.88-3.64,823.79-6.38,1647.57a1.5,1.5,0,0,0,3,0Q49.18,2995.92,55.6,1840,62.05,679.54,68.52-480.89c2.13-380.63,3.32-761.27,8.33-1141.87q1.84-139.68,4.55-279.35,1.36-69.37,3-138.75c.28-12,.1-60.7-1.77-16-1.12,26.73-.07,53.76-.1,80.52l-.72,572.58Q80.36-245.22,78.9,913.36L76,3221.59q-.19,143.14-.37,286.29a1.5,1.5,0,0,0,3,0c15.7-345.57,8.31-692.49,8.46-1038.32q.21-534.18.43-1068.37l.06-133.55c0-15.38-7.35-50,0-62.32-6,10-2.65,38.29-2.55,53.65q.81,134,1.64,268,1.66,268,3.48,535.94,3.66,535.35,8.68,1070.69,5.88,604.47,15,1208.9a1.5,1.5,0,0,0,3,0c22.16-702.18,9.31-1406.11,9.3-2108.56q0-530.64,0-1061.28V1047.8c0-23.66,1.1-47.72,0-71.35-1.88-40.16-2.51,2.66-2.31,18q1.75,134.12,3.76,268.25,3.93,263,8.84,525.88Q147.6,2385,163.86,2981.25a1.5,1.5,0,0,0,3,0Q162,2084,153.09,1186.74q-9-894.09-22.11-1788.12-7.42-505.15-16.22-1010.3a1.5,1.5,0,0,0-3,0c-4.73,604.5,1.86,1209,11.18,1813.42q4,256.44,8.34,512.88a1.5,1.5,0,0,0,3,0q-.47-824.54-9-1649a1.5,1.5,0,0,0-3,0q4.15,1332.3,17.92,2664.57,3.89,374.37,8.53,748.75a1.5,1.5,0,0,0,3,0q5.58-1005.72-7-2011.41a1.5,1.5,0,0,0-3,0Q133,1744,141.56,3020.54q2.43,359.3,6.26,718.59a1.5,1.5,0,0,0,3,0q-1.15-1037.41-4.12-2074.84Q142.86,630.12,131.84-404q-6.72-582-17.23-1163.87a1.5,1.5,0,0,0-3,0q-8.2,1229.22,3.16,2458.45,3.21,345.81,8,691.59a1.5,1.5,0,0,0,3,0Q118,609.47,104.86-363.16q-3.75-275.7-8-551.4a1.5,1.5,0,0,0-3,0q8.91,758.1,36.36,1515.82a1.5,1.5,0,0,0,3,0q13.78-1140.9-8.55-2281.86-6.31-318.74-15.62-637.4a1.5,1.5,0,0,0-3,0q-8.66,918.84-9.16,1837.72Q96.3,438.89,102.82,1358q3.57,516.27,9.14,1032.53a1.5,1.5,0,0,0,3,0q-3.43-902.08-16.53-1804.1Q94.67,329.09,90.1,71.72a1.5,1.5,0,0,0-3,0Q83.28,1025.36,98.33,1979a1.5,1.5,0,0,0,3,0Q105.5,428,90.14-1122.89,85.81-1557.71,79.9-1992.5a1.5,1.5,0,0,0-3,0q-10.11,1661-7.22,3322.12.84,473.19,2.72,946.36a1.5,1.5,0,0,0,3,0Q82.56,1088.3,77.22-99.42q-1.55-338.86-4.1-677.74a1.5,1.5,0,0,0-3,0Q59.88,747.7,60.12,2272.58q.08,374.6.77,749.2c0,20.9,3.19,86.51,3,26.62L63.59,2959l-.69-205.71q-.61-187.82-1.25-375.64-2.52-760.23-5-1520.46Q53.74-1.47,50.89-860.08a1.5,1.5,0,0,0-3,0l-.42,2527.79-.12,717.1a1.5,1.5,0,0,0,3,0q3.85-1374.3-13.87-2748.55Q31.41-753.59,24.56-1143.4a1.5,1.5,0,0,0-3,0Q7.1-88,3.3,967.43-1,2026,2.1,3084.54,3.57,3682.77,6.54,4281a1.5,1.5,0,0,0,3,0c6.94-1107.85,3.05-2215.72-3.3-3323.55Q3.58,493.21.55,29a1.5,1.5,0,0,0-3,0Q0,1416.45,2.53,2803.92c.54,257.82,1.63,515.65,6.23,773.44a1.5,1.5,0,0,0,3,0q6.18-1183.49-2.32-2367Q7,873.22,3.35,536.08a1.5,1.5,0,0,0-3,0c-1,789.72-1.94,1579.46,5.25,2369.16q3.06,336.24,8.3,672.47a1.5,1.5,0,0,0,3,0Q22.06,2366,22.49,1154.25,22.93-57.29,18.6-1268.83q-2.43-679-6.34-1357.92a1.5,1.5,0,0,0-3,0q-.51,1110.44-1,2220.89-.12,276.5-.25,553c0,23-2.84,48.6,0,71.36,3.47,28.1,3-19.56,3-26.91q0-71.54,0-143.09-.09-138.61-.27-277.22Q9.89-787.42,7.33-1346.09,4.47-1971-.68-2595.83a1.5,1.5,0,0,0-3,0Q-7.46-1049-5.49,497.77q2,1537,9.66,3074Q8.5,4437.56,14.65,5303.39a1.5,1.5,0,0,0,3,0Q20.88,4320,22.49,3336.6t2.33-1967q.72-983.52.94-1967,0-125.16.08-250.34l0-116.23c0-15.52-7.37-50.12,0-62.59-5.27,8.89-2.73,31.06-2.66,44.79q1.29,246.22,2.59,492.45Q28.42,3.09,31,495.53c3.45,655.13,4.44,1310.35,16.18,1965.4q2.13,118.31,4.8,236.58a1.5,1.5,0,0,0,3,0q19.59-1445,22.38-2890.12.8-411.13.23-822.27a1.5,1.5,0,0,0-3,0Q67.29,83.19,64.47,1181.29q-2.79,1094.13-1.09,2188.27.23,138.42.51,276.83c0,24,7.33,266.69.62,267.86,11.26-2,2.19-234.52,2.1-259.76q-.49-138.79-1-277.58-2.2-550.48-5.3-1101Q54.1,1180.76,44.39,85.6q-4.86-549-10.62-1097.92c-.18-17.35-.5-41.19-2.75-9.22-1.62,23.06,1,47.64,1.44,70.76l2.88,141.54Q38-676.55,40.73-543.87L51.89,4.57Q54.58,137.26,57.28,270a1.5,1.5,0,0,0,3,0Q58.53-842.31,48.63-1954.54q-2.82-316.3-6.32-632.59a1.5,1.5,0,0,0-3,0q-.41,1405.38-.82,2810.75Q38.08,1620,37.67,3016.47l-.1,358.05,0,80.57c0,46.83,3,16.54,2.92-9l-.23-179q-.45-353.54-.89-707.06L37.58,1154.91Q36.7,456.79,35.82-241.32l-.44-349-.22-170c0-.8-2.46-32.8,0-35.81-4.32,5.38-2.83,25.94-2.79,35.79L32.72-671Q34.25-322,35.79,27L48.12,2836.49q.75,170,1.49,340a1.5,1.5,0,0,0,3,0Q65.89,1704.36,65.31,232.15q.42-370.58.62-741.16.06-84.82.1-169.65,0-26.79,0-53.57c0-1.16-2.47-32.43,0-35.71-10.74,14.2-2.56,67.06-2.45,89.61q1,188.06,2,376.11Q69.46,432,73.74,1166.16c3.18,546.32-6.36,1094.65,18.46,1640.51a1.5,1.5,0,0,0,3,0Q96.7,1635.32,86.36,464q-2.6-293-6-586c-.08-6.76,1-61.59-3.4-35.33-3.32,19.61.52,42.55.76,62.42q1,80.25,1.94,160.49,1.73,142.67,3.46,285.32Q90.3,939.37,97.43,1527.84q8,659.81,16,1319.61a1.5,1.5,0,0,0,3,0Q111.16,1177.32,89.77-492.7q-6.06-471-13.43-942a1.5,1.5,0,0,0-3,0l5.37,2515.39,1.34,626.6.67,313.31L81,2172.81c.06,26.36-2.33,54.28.17,80.57,4.37,45.78,2.84-23.74,2.79-35.87q-2.52-627.15-5.06-1254.3L73.24-452.35a1.5,1.5,0,0,0-3,0q-.72,1136.1-1.42,2272.21-.21,322-.4,644.09a1.5,1.5,0,0,0,3,0Q74.12,1283.17,81,102.4q.87-147.51,1.8-295,.42-67,.85-134.09c.12-17.29-7.18-56.74.47-71.51-7.2,13.89-1.67,50.5-1.33,70.18q5,291.33,8.79,582.68,7.64,585.62,11.59,1171.26,4.84,658.65,7.74,1317.33a1.5,1.5,0,0,0,3,0q.24-838.3.49-1676.61.11-414.69.23-829.39L114.7,32.1l0-89.18v-53.51c0-17-7.36-56.39,0-71.34-7.27,14.72-2,49.13-1.73,70q.72,52.77,1.36,105.54,1.27,105.76,2.21,211.53,4.16,468.82,1.73,937.69a1.5,1.5,0,0,0,3,0Z" transform="translate(56.42 3467.76)"/></g></svg>