<?xml version="1.0" encoding="utf-8"?>
<!-- Generator: Adobe Illustrator 22.1.0, SVG Export Plug-In . SVG Version: 6.00 Build 0)  -->
<svg version="1.1" id="Calque_1" xmlns="http://www.w3.org/2000/svg" xmlns:xlink="http://www.w3.org/1999/xlink" x="0px" y="0px"
	 viewBox="0 0 44 169" style="enable-background:new 0 0 44 169;" xml:space="preserve">
<style type="text/css">
	.st0{clip-path:url(#SVGID_2_);}
	.st1{fill:#E700C9;}
</style>
<g>
	<defs>
		<rect id="SVGID_1_" x="0" width="44" height="169"/>
	</defs>
	<clipPath id="SVGID_2_">
		<use xlink:href="#SVGID_1_"  style="overflow:visible;"/>
	</clipPath>
	<g class="st0">
		<g>
			<path class="st1" d="M-111.4-35.1c69.3,6.6,138.6,13.2,208,19.8c0-1,0-2,0-3C51.8-17.1,7-17.7-37.7-19.9c0,1,0,2,0,3
				c27.1,0.5,54.1,3.2,80.8,8c0.1-1,0.3-2,0.4-2.9c-36.7,0.6-73.4,0.1-110-1.4c0,1,0,2,0,3c27.9,0.3,55.8,0.6,83.8,0.9c0-1,0-2,0-3
				c-24.5,1.3-49,1.7-73.5,1.2c0,1,0,2,0,3c37.1-1.2,74.1,0.3,111,4.5c0-1,0-2,0-3c-49,1.5-98,1.3-146.9-0.5c0,1,0,2,0,3
				C-70.9-3.5-49.5-2.4-28.1-1c10.5,0.7,21,1.4,31.5,2.2c10.5,0.8,21,1.9,30.9,5.6c0-1,0-1.9,0-2.9c-18,2.7-36.2,4-54.5,4
				c0,1,0,2,0,3c18-0.2,36.1-0.4,54.1-0.6c0-1,0-2,0-3C2.7,8.1-28.7,7.6-60,6c0,1,0,2,0,3c47.4-2.1,94.9-1.5,142.2,1.5c0-1,0-2,0-3
				C43.5,9.1,4.7,9.4-34,8.4c0,1,0,2,0,3c41.3,0.6,82.6,1.3,123.7,4.8c0-1,0-2,0-3c-49,5.1-98.2,6.9-147.4,5.7c0,1,0,2,0,3
				C-29.8,22-2,24,25.6,28c0.1-1,0.3-2,0.4-2.9c-41.4,1.2-82.9-1-124-6.2c0,1,0,2,0,3c32.5,1,65.1,2.4,97.6,4.2
				c16.1,0.9,32.2,1.9,48.3,3c15.5,1,32.2,0.8,47.1,5.6c0.1-1,0.3-2,0.4-2.9c-38.4,3.4-77,1.8-115-4.4c-0.1,1-0.3,2-0.4,2.9
				C26.5,26,73.2,28,119.7,30.1c0-1,0-2,0-3C43.1,27.9-33.4,24.9-109.9,21c-21.8-1.1-43.6-2.3-65.5-3.5c-2-0.1-1.9,2.8,0,3
				c43.5,4.9,87,10.5,130.3,17c0.1-1,0.3-2,0.4-2.9c-13.7,1.1-27.5,1-41.2-0.2c0,1,0,2,0,3c46.2-0.5,92.3,2,138.1,7.6c0-1,0-2,0-3
				c-35,0.2-70-1.7-104.8-5.6c0,1,0,2,0,3c28.5-1.2,57,0,85.3,3.6c0-1,0-2,0-3c-44.2,2.6-88.5,1.5-132.8,0.5c-1.6,0-2.1,2.7-0.4,2.9
				C-64.1,48.7-27.9,54,8.3,59.3c0-1,0-1.9,0-2.9c-9.8,2.6-19.7,3.5-29.8,2.9c0,1,0,2,0,3c56.5,1.6,112.9,4.9,169.2,10.1
				c0-1,0-2,0-3C91.6,68.1,35.5,64.5-20.4,58.9c0,1,0,2,0,3c44.8-0.9,89.5-0.1,134.2,2.4c1.9,0.1,1.9-2.9,0-3
				C40.2,56.6-33.3,50-106.5,41.6c0,1,0,2,0,3c34.3,1.6,68.6,4,102.8,7.2c17,1.6,33.9,3.4,50.8,5.4c16.5,1.9,33.1,4.2,48.9,9.5
				c0.1-1,0.3-2,0.4-2.9C63.9,65.2,31.2,63.2-1,58c-0.1,1-0.3,2-0.4,2.9c26.9-3.2,54-2.6,80.8,1.3c0.1-1,0.3-2,0.4-2.9
				c-47.7,5.3-95.6,7-143.6,8.6c-1.9,0.1-1.9,2.9,0,3c40.5,2.4,80.9,4.7,121.4,7.1c0-1,0-2,0-3c-67.2-2.5-134.2-7.8-201-15.7
				c-19.5-2.3-39.1-4.9-58.6-7.6c0,1,0,1.9,0,2.9c17.5-3.2,35.2-2.4,52.9-1.5c17.5,0.9,34.9,1.9,52.4,3.1
				c35.3,2.4,70.6,5.5,105.8,9.2c0-1,0-2,0-3c-5.8,0.3-11.7,0.6-17.5,1c-1.9,0.1-1.9,3,0,3c49.7-0.5,99.3,2.6,148.5,9.2
				c-0.1-1-0.3-2-0.4-2.9c-9,3.8-19.4,2.9-28.9,2.8c-11.2-0.1-22.4-0.3-33.6-0.6c-22.1-0.5-44.2-1.4-66.3-2.5c0,1,0,2,0,3
				c16-0.9,32-1,48-0.3c0-1,0-2,0-3c-55-0.1-110-3.4-164.7-9.6c0,1,0,2,0,3c31.6,2.1,63.1,5.1,94.5,9.1c16.1,2.1,32.1,4.4,48.1,7
				C51,83.9,67.5,84.9,80,92.8c0.3-0.9,0.5-1.9,0.8-2.8c-20.3,1.7-40.7,1.3-61-1.1c0,1,0,2,0,3c30.5,3.4,61,6.8,91.5,10.2
				c0-1,0-2,0-3C56.8,95.4,2.6,88.8-51.1,79.4c-0.1,1-0.3,2-0.4,2.9c29.1-1.7,58.2,0.6,86.6,6.8c0.1-1,0.3-2,0.4-2.9
				c-21.4,0.4-42.8-1.7-63.8-6.2c-0.1,1-0.3,2-0.4,2.9c41.5-1.1,82.9,1.2,124,6.8c0.1-1,0.3-2,0.4-2.9c-27-3-53.9-6.1-80.9-9.1
				c0,1,0,2,0,3c30.3-0.2,60.6,2.1,90.6,6.9c0.1-1,0.3-2,0.4-2.9C50.6,84.2-4.7,82.3-59.9,79.2c0,1,0,2,0,3
				c45.4,2.3,90.6,6.4,135.7,12.1c0-1,0-2,0-3c-17,0.5-33.9,0-50.8-1.5c-1.7-0.1-2.1,2.7-0.4,2.9c56.5,8.1,113,16.1,169.5,24.2
				c0.3-1,0.5-1.9,0.8-2.9C115.7,103.1,36.6,92.2-42.5,81.2c-0.1,1-0.3,2-0.4,2.9c15.8,2,31.5,4.6,47,8c-0.1-0.9-0.2-1.8-0.4-2.7
				c-7.1,3.9-17,1.7-24.8,1.1c-8.8-0.7-17.7-1.5-26.5-2.2c-18-1.5-36-3-54-4.5c-1.7-0.1-2.1,2.7-0.4,2.9
				c42.5,7.3,84.8,15.7,126.9,25.1c0.1-1,0.3-2,0.4-2.9c-10.2,0.7-20.4,1.3-30.6,2c-1.9,0.1-1.9,2.8,0,3c29.9,2.8,59.8,5.5,89.7,8.3
				c0-1,0-2,0-3c-39-3.5-78-8.1-116.7-13.9c-0.1,1-0.3,2-0.4,2.9c65.1,2.8,130,9.3,194.4,19.2c0.1-1,0.3-2,0.4-2.9
				c-20.7,1.1-41.4-0.6-61.7-4.9c0.1,0.9,0.2,1.8,0.4,2.7c5.1-3.2,10.3-6.3,15.4-9.5c1.3-0.8,0.7-2.7-0.8-2.8
				C52.7,103.8-10.2,97.5-73.1,91.2c0,1,0,2,0,3c20.9,1,41.8,2.7,62.5,5.4c10.7,1.4,21.5,3,32.1,4.8c5.1,0.9,10.2,1.8,15.2,2.8
				c2.4,0.5,4.9,0.9,7.3,1.5c0.9,0.2,1.9,0.4,2.8,0.7c0.5,0.2,7.1,2.6,3.4,4.4c-1.5,0.7-0.6,2.7,0.8,2.8c19.3,1.9,38.5,0,57.6-2.2
				c1.9-0.2,2-2.8,0-3C56,107.1,3.3,101.4-49.1,94.5c0,1,0,2,0,3c35.6,0,71.1,1.4,106.5,4.8c0-1,0-2,0-3c-16.3-0.1-32.5-0.7-48.8-2
				c0,1,0,2,0,3c7.6,0.4,15,1.5,22.4,3.3c0.1-1,0.3-2,0.4-2.9c-15.7,1.6-31.4,3.1-47.1,4.7c-1.9,0.2-1.9,2.8,0,3
				c45.3,4.1,90.6,8.1,135.9,12.2c-0.4-0.9-0.7-1.7-1.1-2.6c-3.1,2.4-6.6,3.5-10.5,3.9c-1.9,0.2-1.9,2.8,0,3
				c11.4,1.4,22.8,2.8,34.2,4.2c0-1,0-2,0-3c-41.7-3.7-83.5-7.5-125.2-11.2c-1.7-0.1-2.1,2.6-0.4,2.9c47.4,8.9,94.7,17.8,141.4,29.8
				c0.1-1,0.3-2,0.4-2.9C106.5,140.3,54.1,133.8,2,125.2c-0.1,1-0.3,2-0.4,2.9c10.9,1.3,21.8,2.6,32.8,3.9c1.7,0.2,2.1-2.7,0.4-2.9
				c-29.4-4.7-58.8-9.5-88.2-14.2c-0.1,1-0.3,2-0.4,2.9c42.7,1.7,85.2,5.9,127.4,12.4c0.1-1,0.3-2,0.4-2.9c-24.6-1.8-49-5-73.3-9.6
				c-0.1,1-0.3,2-0.4,2.9c28.6-0.6,57.3,0.9,85.7,4.2c1.9,0.2,1.9-2.8,0-3c-32-3.9-64.1-7.7-96.1-11.6c0,1,0,2,0,3
				c20.4-1.1,39.5,6.7,59.1,10.9c19.2,4.1,38.8,4.8,58.3,5.5c1.9,0.1,1.9-2.9,0-3c-26-1.6-52-2.5-78-2.9c-1.7,0-2.1,2.6-0.4,2.9
				c5.8,1.1,68.5,12.7,68.4,13.7c0.5-0.4,1-0.7,1.4-1.1c-34.8,3-69.5,6.1-104.3,9.1c-0.8,0.1-1.9,0.9-1.4,1.9
				c2.1,4.9,9.3,4.6,13.8,5.3c9.2,1.3,18.3,2.6,27.5,3.9c18.3,2.6,36.7,5.2,55,7.8c0.1-1,0.3-2,0.4-2.9
				c-37.9-3.6-75.5-10.2-112.4-19.6c0.1,0.9,0.2,1.8,0.4,2.7c6.9-3.1,14.2-4.4,21.7-4.7c1.9-0.1,1.9-3,0-3
				c-17.4-0.1-34.7-1.6-51.9-4.6c-0.1,1-0.3,2-0.4,2.9c59.8-0.2,119.5,1.7,179.1,5.7c2,0.1,1.9-2.8,0-3c-2-0.2-4-0.5-6-0.7
				c0,1,0,2,0,3c8.4-0.7,16.8-1.4,25.2-2.1c1.9-0.2,2-3,0-3c-17.4,0-34.9,0.4-52.3,1.2c-2,0.1-1.9,2.8,0,3c3.3,0.4,6.6,0.9,9.9,1.3
				c0-1,0-2,0-3c-30.1-2.7-60.3-5-90.4-6.9c-1.7-0.1-2.1,2.6-0.4,2.9c9.4,2,18.8,3.9,28.2,5.9c0.1-1,0.3-2,0.4-2.9
				c-19.4,1.9-38.9,2.5-58.5,1.8c-1.7-0.1-2.1,2.6-0.4,2.9c4,0.7,8,1.4,11.9,2.1c0.1-1,0.3-2,0.4-2.9c-27.6-2.6-55.2-5.2-82.9-7.7
				c-1.7-0.2-2.1,2.7-0.4,2.9c25.5,4.3,51,8.6,76.5,12.8c0.1-1,0.3-2,0.4-2.9c-30.3-3.3-60.6-6.9-90.8-11c-0.1,1-0.3,2-0.4,2.9
				c39.2,1.7,78,7.1,116.3,15.7c18.7,4.2,37.1,7.3,56.2,8.2c19.4,0.9,38.8,0.7,58.1,3.1c0-1,0-2,0-3c-34-2.9-67.9-6.8-101.6-11.6
				c-1.9-0.3-2.7,2.6-0.8,2.9c13.2,2.2,26.4,4.5,39.7,6.7c0.1-1,0.3-2,0.4-2.9c-27.6,1.8-55.3,0.5-82.7-3.8c-0.1,1-0.3,2-0.4,2.9
				c12.2-0.3,24.3-0.6,36.5-0.8c1.9,0,1.9-2.9,0-3C5.1,154-8,151.6-20.7,147.3c-0.1,1-0.3,2-0.4,2.9c54.6-3.2,109.1,2.4,163.3,7.9
				c0-1,0-2,0-3c-28.2-0.5-56.4-3.1-84.2-7.7c-0.1,1-0.3,2-0.4,2.9c19.1-2.2,38.4-1.4,57.3,2.2c0.1-1,0.3-2,0.4-2.9
				c-24.7,0.6-49.4,1.2-74,1.8c-1.9,0-1.9,3,0,3c14.8,0.2,29.6,1.7,44.1,4.4c0-1,0-1.9,0-2.9c-21,3.3-42.3,5.1-63.6,5.6
				c-1.9,0-1.9,2.9,0,3c11.7,0.7,23.4,1.3,35.1,2c0-1,0-2,0-3c-27.8,0.4-55.5-0.4-83.2-2.2c-1.7-0.1-2.1,2.7-0.4,2.9
				c56,8.4,112.2,16.9,166.9,32.1c0.1-1,0.3-2,0.4-2.9c-44.6-4.7-89.2-9.5-133.8-14.2c-1.7-0.2-2,2.6-0.4,2.9
				c17.3,3.6,34.6,7.4,52,10.9c14.6,2.9,30,5.4,44.7,1.4c1.3-0.4,1.5-2.6,0-2.9c-22.3-4-44.7-8-67-12c-0.1,1-0.3,2-0.4,2.9
				c22.8-1.9,45.7-1.9,68.5-0.3c1.9,0.1,1.9-2.8,0-3c-32.9-2.8-65.8-5.8-98-13.1c-0.1,1-0.3,2-0.4,2.9c8-0.6,16-1.1,24-1.7
				c1.9-0.1,1.9-2.9,0-3c-27-0.9-53.9-2.2-80.9-4c0,1,0,2,0,3c26,0.4,52,2.2,77.8,5.5c0-1,0-2,0-3c-38.3,0.5-76.6-1.5-114.7-5.9
				c-1.7-0.2-2.1,2.7-0.4,2.9c64.6,9.1,129.1,19.5,193.3,31.2c0.1-1,0.3-2,0.4-2.9c-24.9-1.8-49.7-4.8-74.4-8.8
				c-0.1,1-0.3,2-0.4,2.9c23.1,1.9,45.9,5.6,68.4,11.1c0.1-1,0.3-2,0.4-2.9c-23.4-1-46.7-2-70.1-3c-1.7-0.1-2,2.5-0.4,2.9
				c14.4,3.8,28.9,6.8,43.7,8.9c1.9,0.3,2.7-2.6,0.8-2.9c-24.3-4.1-48.4-9.5-72.1-16.3c0.1,0.9,0.2,1.8,0.4,2.7
				c1.5-0.9,3-1.9,4.5-2.8c1.2-0.7,0.8-2.3-0.4-2.7c-2.5-1-4.7-2.3-6.8-4.1c-1.5-1.3-3.6,0.9-2.1,2.1c2.4,2.1,5.1,3.6,8.1,4.9
				c-0.1-0.9-0.2-1.8-0.4-2.7c-1.5,0.9-3,1.9-4.5,2.8c-1.1,0.7-0.9,2.4,0.4,2.7c23.7,6.8,47.8,12.2,72.1,16.3c0.3-1,0.5-1.9,0.8-2.9
				c-14.7-2.1-29.3-5.1-43.7-8.9c-0.1,1-0.3,2-0.4,2.9c23.4,1,46.7,2,70.1,3c1.7,0.1,2-2.5,0.4-2.9c-22.7-5.5-45.8-9.3-69.2-11.2
				c-1.7-0.1-2.1,2.7-0.4,2.9c24.9,4.1,50,7.1,75.2,8.9c1.7,0.1,2.1-2.6,0.4-2.9C41.7,179.4-22.8,169-87.4,159.9
				c-0.1,1-0.3,2-0.4,2.9c38.1,4.4,76.4,6.4,114.7,5.9c2,0,1.9-2.8,0-3c-25.8-3.3-51.8-5.1-77.8-5.5c-1.9,0-1.9,2.9,0,3
				c26.9,1.8,53.9,3.1,80.9,4c0-1,0-2,0-3c-8,0.6-16,1.1-24,1.7c-1.6,0.1-2.1,2.5-0.4,2.9c32.5,7.4,65.7,10.4,98.8,13.2c0-1,0-2,0-3
				c-22.8-1.6-45.7-1.5-68.5,0.3c-1.6,0.1-2.2,2.6-0.4,2.9c22.3,4,44.7,8,67,12c0-1,0-1.9,0-2.9c-15.3,4.2-31.5,1.1-46.7-2.1
				c-16.1-3.3-32.3-6.8-48.4-10.1c-0.1,1-0.3,2-0.4,2.9c44.6,4.7,89.2,9.5,133.8,14.2c1.7,0.2,2-2.5,0.4-2.9
				c-54.7-15.2-110.9-23.7-166.9-32.1c-0.1,1-0.3,2-0.4,2.9c27.7,1.8,55.5,2.6,83.2,2.2c1.9,0,1.9-2.9,0-3
				c-11.7-0.7-23.4-1.3-35.1-2c0,1,0,2,0,3c21.6-0.4,43.1-2.3,64.4-5.7c1.5-0.2,1.4-2.6,0-2.9c-14.8-2.8-29.8-4.4-44.9-4.6
				c0,1,0,2,0,3c24.7-0.6,49.4-1.2,74-1.8c1.6,0,2.1-2.6,0.4-2.9c-19.2-3.7-38.7-4.6-58.1-2.3c-1.5,0.2-2.2,2.6-0.4,2.9
				c28.1,4.6,56.5,7.2,85,7.8c2,0,1.9-2.8,0-3c-54.2-5.5-108.8-11-163.3-7.9c-1.7,0.1-2,2.4-0.4,2.9c12.9,4.4,26.3,6.9,40,7.5
				c0-1,0-2,0-3c-12.2,0.3-24.3,0.6-36.5,0.8c-1.6,0-2.1,2.7-0.4,2.9c27.6,4.3,55.6,5.7,83.5,3.9c1.6-0.1,2.2-2.6,0.4-2.9
				c-13.2-2.2-26.4-4.5-39.7-6.7c-0.3,1-0.5,1.9-0.8,2.9c34,4.9,68.2,8.8,102.4,11.7c1.9,0.2,1.9-2.8,0-3
				c-19.3-2.4-38.7-2.2-58.1-3.1c-20.2-0.9-39.6-4.5-59.3-8.9c-37.3-8.3-75.2-13.3-113.3-14.9c-1.7-0.1-2.1,2.7-0.4,2.9
				c30.5,4.1,61,7.8,91.6,11.1c1.7,0.2,2.1-2.7,0.4-2.9c-25.5-4.3-51-8.6-76.5-12.8c-0.1,1-0.3,2-0.4,2.9
				c27.6,2.6,55.2,5.2,82.9,7.7c1.7,0.2,2.1-2.6,0.4-2.9c-4-0.7-8-1.4-11.9-2.1c-0.1,1-0.3,2-0.4,2.9c19.5,0.7,39,0.1,58.5-1.8
				c1.6-0.2,2.2-2.6,0.4-2.9c-9.4-2-18.8-3.9-28.2-5.9c-0.1,1-0.3,2-0.4,2.9c30.2,1.9,60.3,4.2,90.4,6.9c2,0.2,1.9-2.8,0-3
				c-3.3-0.4-6.6-0.9-9.9-1.3c0,1,0,2,0,3c17.4-0.8,34.8-1.2,52.3-1.2c0-1,0-2,0-3c-8.4,0.7-16.8,1.4-25.2,2.1c-2,0.2-1.9,2.8,0,3
				c2,0.2,4,0.5,6,0.7c0-1,0-2,0-3c-59.6-4-119.4-5.9-179.1-5.7c-1.6,0-2.1,2.6-0.4,2.9c17.4,3.1,35,4.7,52.7,4.7c0-1,0-2,0-3
				c-8.1,0.2-15.9,1.8-23.3,5.1c-1.2,0.5-0.8,2.4,0.4,2.7c37.2,9.5,75,16,113.2,19.7c1.7,0.2,2.1-2.7,0.4-2.9
				c-16-2.3-32.1-4.6-48.1-6.8c-7.9-1.1-15.7-2.2-23.6-3.4c-3.9-0.6-7.9-1.1-11.8-1.7c-2.1-0.3-9.6-0.4-10.7-3
				c-0.5,0.6-1,1.3-1.4,1.9c34.8-3,69.5-6.1,104.3-9.1c0.6-0.1,1.3-0.4,1.4-1.1c0.4-2.9-2.2-3.8-4.6-4.5c-7.2-2-14.9-2.9-22.3-4.4
				c-14.5-2.8-29.1-5.7-43.6-8.5c-0.1,1-0.3,2-0.4,2.9c26,0.4,52,1.3,78,2.9c0-1,0-2,0-3c-20.5-0.7-41.1-1.5-61.2-6.2
				c-18.6-4.4-36.9-11.2-56.3-10.2c-2,0.1-1.9,2.8,0,3C22,117.1,54,121,86,124.8c0-1,0-2,0-3c-28.5-3.3-57.1-4.7-85.7-4.2
				c-1.6,0-2.1,2.6-0.4,2.9c24.5,4.7,49.2,7.9,74.1,9.7c1.7,0.1,2.1-2.7,0.4-2.9c-42.5-6.5-85.3-10.7-128.2-12.5
				c-1.7-0.1-2.1,2.7-0.4,2.9c29.4,4.7,58.8,9.5,88.2,14.2c0.1-1,0.3-2,0.4-2.9c-10.9-1.3-21.8-2.6-32.8-3.9
				c-1.7-0.2-2.1,2.7-0.4,2.9c52.4,8.7,105.1,15.2,158,19.6c1.7,0.1,2-2.5,0.4-2.9c-46.7-12-94.1-20.9-141.4-29.8
				c-0.1,1-0.3,2-0.4,2.9c41.7,3.7,83.5,7.5,125.2,11.2c1.9,0.2,1.9-2.8,0-3c-11.4-1.4-22.8-2.8-34.2-4.2c0,1,0,2,0,3
				c4.7-0.5,8.8-1.8,12.6-4.8c1.1-0.9,0.1-2.5-1.1-2.6c-45.3-4.1-90.6-8.1-135.9-12.2c0,1,0,2,0,3c15.7-1.6,31.4-3.1,47.1-4.7
				c1.6-0.2,2.2-2.5,0.4-2.9c-7.6-1.9-15.3-3.1-23.2-3.4c-1.9-0.1-1.9,2.9,0,3c16.2,1.3,32.5,1.9,48.8,2c2,0,1.9-2.8,0-3
				c-35.4-3.4-71-4.8-106.5-4.8c-2,0-1.9,2.8,0,3c52.5,6.9,105.1,12.6,157.8,16.9c0-1,0-2,0-3c-19.2,2.2-38.4,4.1-57.6,2.2
				c0.3,0.9,0.5,1.9,0.8,2.8c2.4-1.2,3.3-3.4,2.1-5.8c-1.7-3.4-6.4-4.2-9.7-4.9c-12.9-2.7-26-4.9-39-6.8c-25.9-3.8-52-6.4-78.2-7.6
				c-2-0.1-1.9,2.8,0,3c62.9,6.3,125.8,12.5,188.7,18.8c-0.3-0.9-0.5-1.9-0.8-2.8c-5.1,3.2-10.3,6.3-15.4,9.5c-1,0.6-1,2.5,0.4,2.7
				c20.5,4.4,41.5,6.2,62.5,5c1.6-0.1,2.2-2.7,0.4-2.9c-64.7-10-129.9-16.5-195.2-19.3c-1.7-0.1-2.1,2.7-0.4,2.9
				c39,5.8,78.2,10.5,117.5,14c1.9,0.2,1.9-2.8,0-3c-29.9-2.8-59.8-5.5-89.7-8.3c0,1,0,2,0,3c10.2-0.7,20.4-1.3,30.6-2
				c1.6-0.1,2.1-2.6,0.4-2.9C-16.2,99.6-58.5,91.2-101,83.9c-0.1,1-0.3,2-0.4,2.9c19.3,1.6,38.6,3.2,57.9,4.8
				c9.5,0.8,19,1.6,28.4,2.4c6.8,0.6,14.2,1.5,20.4-2c1.1-0.6,0.9-2.5-0.4-2.7c-15.8-3.4-31.8-6.1-47.8-8.1
				c-1.7-0.2-2.1,2.7-0.4,2.9C35.8,95.1,114.9,106,194,116.9c1.9,0.3,2.7-2.6,0.8-2.9c-56.5-8.1-113-16.1-169.5-24.2
				c-0.1,1-0.3,2-0.4,2.9c16.9,1.5,33.9,2,50.8,1.5c2-0.1,1.9-2.8,0-3c-45.1-5.7-90.3-9.7-135.7-12.1c-1.9-0.1-1.9,2.9,0,3
				c55.2,3.1,110.5,4.9,165.8,5.4c1.6,0,2.1-2.7,0.4-2.9c-30.2-4.9-60.8-7.3-91.4-7.1c-2,0-1.9,2.8,0,3c27,3,53.9,6.1,80.9,9.1
				c1.7,0.2,2.1-2.7,0.4-2.9c-41.4-5.6-83.1-8-124.8-6.9c-1.6,0-2.1,2.6-0.4,2.9c21.2,4.6,42.8,6.8,64.6,6.3c1.6,0,2.1-2.6,0.4-2.9
				c-28.7-6.2-58.1-8.6-87.4-6.9c-1.6,0.1-2.2,2.6-0.4,2.9c54,9.5,108.4,16.1,163.1,19.8c2,0.1,1.9-2.8,0-3
				c-30.5-3.4-61-6.8-91.5-10.2c-1.9-0.2-1.9,2.8,0,3c20.2,2.4,40.6,2.8,61,1.1c1.5-0.1,2.1-2,0.8-2.8c-12-7.6-27.3-8.8-41-11.1
				c-15.9-2.6-31.9-5-47.9-7.1c-32.7-4.3-65.5-7.5-98.4-9.6c-2-0.1-1.9,2.8,0,3C-51.2,71.6,3.8,74.8,58.9,75c1.9,0,1.9-2.9,0-3
				c-16-0.7-32-0.6-48,0.3c-1.9,0.1-1.9,2.9,0,3c22.8,1.2,45.5,2.1,68.3,2.6c11.2,0.3,22.4,0.5,33.6,0.6c9.2,0.1,19.1,0.7,27.8-2.9
				c1.6-0.7,1.3-2.7-0.4-2.9C90.9,66,41.2,62.9-8.4,63.4c0,1,0,2,0,3c5.8-0.3,11.7-0.6,17.5-1c2-0.1,1.9-2.8,0-3
				c-35.9-3.8-71.8-6.9-107.7-9.4c-17.8-1.2-35.5-2.3-53.3-3.1c-17-0.8-34-1.3-50.8,1.8c-1.4,0.3-1.5,2.7,0,2.9
				C-135.6,64.1-68.2,71-0.5,75.1c19.4,1.2,38.7,2.1,58.1,2.9c1.9,0.1,1.9-2.9,0-3c-40.5-2.4-80.9-4.7-121.4-7.1c0,1,0,2,0,3
				c47.9-1.7,95.9-3.3,143.6-8.6c1.5-0.2,2.2-2.7,0.4-2.9c-27-4-54.4-4.6-81.6-1.4c-1.5,0.2-2.2,2.6-0.4,2.9
				c32.5,5.3,65.4,7.3,98.2,5.8c1.7-0.1,2-2.4,0.4-2.9c-15.2-5.1-31.1-7.4-47-9.3c-17.2-2.1-34.4-3.9-51.6-5.5
				c-34.9-3.3-69.8-5.7-104.8-7.3c-2-0.1-1.9,2.8,0,3c73.3,8.4,146.8,15,220.4,19.7c0-1,0-2,0-3c-44.7-2.5-89.5-3.3-134.2-2.4
				c-2,0-1.9,2.8,0,3c55.9,5.7,112,9.2,168.2,10.5c2,0,1.9-2.8,0-3C91.5,64.3,35.1,60.9-21.4,59.3c-1.9-0.1-1.9,2.9,0,3
				c10.3,0.6,20.6-0.3,30.6-3c1.3-0.4,1.5-2.7,0-2.9c-36.2-5.3-72.5-10.6-108.7-15.9c-0.1,1-0.3,2-0.4,2.9
				c44.3,1.1,88.6,2.1,132.8-0.5c2-0.1,1.9-2.8,0-3C4.5,36.4-24,35.2-52.4,36.4c-2,0.1-1.9,2.8,0,3c34.8,3.9,69.7,5.8,104.8,5.6
				c2,0,1.9-2.8,0-3c-45.8-5.5-92-8.1-138.1-7.6c-2,0-1.9,2.8,0,3c13.7,1.3,27.5,1.4,41.2,0.2c1.6-0.1,2.2-2.7,0.4-2.9
				c-43.6-6.5-87.3-12.2-131.1-17.1c0,1,0,2,0,3c76.6,4.2,153.2,8.3,229.9,9.4c21.7,0.3,43.4,0.4,65.1,0.1c1.9,0,1.9-2.9,0-3
				C73.2,25,26.5,23-20,27.2c-1.5,0.1-2.2,2.7-0.4,2.9c38.3,6.2,77.2,7.9,115.8,4.5c1.7-0.1,2.1-2.4,0.4-2.9
				c-14-4.5-29.4-4.4-44-5.4c-16.8-1.1-33.5-2.2-50.3-3.1c-33.2-1.8-66.3-3.3-99.5-4.3c-2-0.1-1.9,2.8,0,3
				c41.1,5.3,82.6,7.4,124,6.2c1.6,0,2.1-2.7,0.4-2.9c-27.9-4-55.9-6.2-84.1-6.2c-1.9,0-1.9,3,0,3c49.2,1.2,98.4-0.6,147.4-5.7
				c1.9-0.2,1.9-2.8,0-3C48.6,9.8,7.3,9.1-34,8.4c-1.9,0-1.9,3,0,3c38.7,1,77.5,0.7,116.2-0.9c1.9-0.1,1.9-2.9,0-3
				C34.9,4.5-12.6,3.9-60,6C-62,6.1-62,8.9-60,9c31.3,1.6,62.7,2.1,94,1.4c1.9,0,1.9-3,0-3C16,7.6-2.1,7.8-20.1,8c-1.9,0-1.9,3,0,3
				c18.5,0,37-1.4,55.3-4.1c1.6-0.2,1.2-2.4,0-2.9c-9-3.4-18.5-4.6-28.1-5.4C-4-2.4-15.1-3.2-26.2-3.9c-22-1.4-44.1-2.5-66.1-3.3
				c-1.9-0.1-1.9,2.9,0,3c49,1.8,98,2,146.9,0.5c2-0.1,1.9-2.8,0-3c-36.8-4.2-73.9-5.7-111-4.5c-1.9,0.1-1.9,3,0,3
				c24.5,0.5,49,0.1,73.5-1.2c1.9-0.1,1.9-3,0-3c-27.9-0.3-55.8-0.6-83.8-0.9c-1.9,0-1.9,2.9,0,3c36.7,1.6,73.3,2,110,1.4
				c1.6,0,2.1-2.6,0.4-2.9c-26.9-4.8-54.2-7.6-81.6-8.1c-1.9,0-1.9,2.9,0,3C7-14.7,51.8-14.1,96.5-15.4c2-0.1,1.9-2.8,0-3
				c-69.3-6.6-138.6-13.2-208-19.8C-113.4-38.3-113.4-35.3-111.4-35.1L-111.4-35.1z"/>
		</g>
	</g>
</g>
</svg>
