<svg id="Calque_1" data-name="Calque 1" xmlns="http://www.w3.org/2000/svg" xmlns:xlink="http://www.w3.org/1999/xlink" viewBox="0 0 197.34 1092.78"><defs><style>.cls-1{fill:none;}.cls-2{clip-path:url(#clip-path);}.cls-3{fill:#03cae5;}</style><clipPath id="clip-path" transform="translate(76.89 403.34)"><rect class="cls-1" x="0.14" width="43.96" height="286"/></clipPath></defs><title>barre-bleue</title><g class="cls-2"><path class="cls-3" d="M80.28,158.52A1133.7,1133.7,0,0,0,74.49-4.72c-.2-1.88-3-2-3,0L70.91,274l-.16,79.15h3C70,253.08,66.28,153,57,53.28Q53,11,47.57-31a1.5,1.5,0,0,0-3,0Q38,105.38,34.79,241.91q-.9,38.61-1.55,77.24h3L37.5,42.88l.35-78.32h-3l7.59,259.26L44.6,297.9c.06,1.92,3,1.94,3,0L42.14-54.74,40.59-154.87h-3q23,202.5,31.63,406.27,2.43,57.16,3.72,114.38h3L50.69,78.49,43.54-2.82c-.16-1.9-3.16-1.93-3,0q12,141.41,13.62,283.41.45,40.11.07,80.23l2.94-.4c-8.68-26.29-9.87-54.07-11.1-81.51q-1.95-43.26-3.81-86.54-3.67-85.47-7-170.95Q33.35-27.27,31.55-76a1.5,1.5,0,0,0-3,0C28,49.22,27.49,174.46,22.29,299.58q-2.2,53.13-5.63,106.2h3L7.6,27.19,4.2-79.42a1.5,1.5,0,0,0-3,0L4.94,329.75,6,445.1a1.5,1.5,0,0,0,3,0l.61-289.51.61-287.33L10.57-295h-3Q18.37-159.88,22-24.34,23,14,23.42,52.39l2.95-.4L2.57-109.34c-.25-1.66-3.08-1.28-2.95.4q9,117.82,15.6,235.84Q21.83,245.51,26,364.23q2.33,66.7,3.87,133.43c0,1.92,3,1.93,3,0q-2.21-117.27-1.36-234.55T36.27,28.56q2.22-66.21,5.42-132.39h-3Q40.4,72.45,27.32,248.47q-3.69,49.59-8.58,99.08l3-.4c-9.54-58.28-12.63-117.33-15-176.26Q3.19,81.81-.09-7.28L-3.91-107.43a1.5,1.5,0,0,0-3,0q-.33,150.57-1,301.13-.83,150.57-3,301.12-1.3,84.8-3.3,169.57h3q-9.66-187.72-14.25-375.65Q-30,101.84-29.51-85.15q.27-105.45,2.15-210.9h-3q8,134.52,9.78,269.32.49,38.06.49,76.11a1.5,1.5,0,0,0,3,0l.89-272.2.25-77h-3Q-12.8-152.66-10.81-5.36T-11,289.31q-1.25,82.63-3.8,165.26h3C-22.8,359-24.62,262.74-24.36,166.66c.07-27.31.31-54.61.55-81.92h-3q11.23,143.46,9.5,287.53-.51,41.14-2.08,82.25h3c-7.18-55.5-5.74-112-6.46-167.87L-25,118.93l-1.24-95.84h-3c6.18,134.58,12.37,269.26,11,404q-.58,56.5-3.08,113h3c-3-85.92-5-171.88-4.94-257.85,0-85.57,2-171.17,6.89-256.61Q-12.23-47-5.09-119.46h-3A2917.06,2917.06,0,0,1,15.08,214.82q.55,47.35-.42,94.71h3L18,2.18,18.13-85h-3l9,374.09,2.57,106.57c.05,1.92,3,1.93,3,0Q27,212.36,33.4,29.11q1.8-52,4.35-104h-3q7.88,144.21,4.73,288.72-.9,41.27-2.72,82.5h3q-5.82-201.9-.19-403.93,1.62-57.54,4.16-115.06h-3q18.47,187.94,19.64,377,.32,52.94-.73,105.86h3A1614,1614,0,0,1,52.73,28.29h-3q14,109.2,19.53,219.28,1.55,31.31,2.4,62.66h3Q66,198.71,62.81,86.85q-3-111.36.37-222.76,2-63.22,6.31-126.36l-2.95.4A1201,1201,0,0,1,92.16,15q-.91,38.92-4.34,77.72l2.94-.4a1064.43,1064.43,0,0,1-32-183.9h-3Q68.78,26.46,77,145q2.31,33.43,4.23,66.9h3A2579.49,2579.49,0,0,1,71.62-87q.67-42,2.73-84h-3C82.41-87.83,89.48-4.11,94,79.72c4.56,84.1,6.64,168.3,7.83,252.5.67,47.32,1,94.65,1.44,142h3Q94.39,319.43,97.79,164q1-43.83,3.16-87.6H98A1869.27,1869.27,0,0,1,104.12,321h3Q92.57,159.24,86.5-3.08q-1.69-45.48-2.72-91h-3Q88.3,6,88.71,106.45h3C82.89,33.58,74.07-39.5,73.14-113q-.4-31.71,1.34-63.39h-3Q85.16-68,95.18,40.91q10,108.44,16.27,217.19,3.6,61.93,6,124l2.94-.4A2432.78,2432.78,0,0,1,84.54,134c-.18-1.89-3-2-3,0,0,108.19.76,216.41,0,324.6-.22,29.71-1.47,59.54-8.13,88.6l2.95.4c-11.23-99.46-17.24-199.41-22-299.36q-2-42.12-3.82-84.24a1.5,1.5,0,0,0-3,0c-.22,73.85-.26,147.7-.67,221.55-.11,20.28-.79,40.75-7.2,60.18l2.94.4L45,180.66,47.47-84.76l1.37-150.12c0-1.64-2.63-2.1-2.94-.4C37.23-188,34.81-140,32.84-92Q29.78-17.25,26.79,57.56q-6,149.26-12,298.54Q11.36,440.25,8,524.38h3q4.3-178.14,11.13-356.21t16.22-356q5.27-99.81,11.33-199.57h-3q1.44,167.54,2,335.08Q49,115.23,47.06,282.77q-1.25,94.65-3.65,189.28h3L40.71,244.9,35,17.75,31.79-110.5a1.5,1.5,0,0,0-3,0Q23.54,18.2,17,146.84T2.53,404Q-1.93,476.7-6.8,549.35l1.5-1.5c-6-.54-5.59-11.54-5.67-15.6q-.21-10.29-.38-20.58-.35-21.12-.55-42.25-.39-41.18-.21-82.35.38-82.9,3.06-165.78,1.52-46.57,3.75-93.12h-3a1448.33,1448.33,0,0,1-4.13,256q-3.88,36.93-9.7,73.61h2.89c-9.61-68.69-10.86-138.18-12.9-207.4q-3-102.92-6-205.82-1.7-58.5-3.36-117a1.5,1.5,0,0,0-3,0Q-50.34,87.77-60.64,247.81q-2.93,45.39-6.22,90.78h3Q-64.92,196-54.9,53.67q2.82-39.84,6.52-79.62h-3c-1.38,82-2.8,164-10.37,245.7q-3.33,35.91-8.41,71.65l3,.4q.84-175.06,14.86-349.72,4-49.53,9.05-98.95h-3q3.66,148.8,3.63,297.65T-46.5,438.49q-2.11,83.65-5.43,167.26h3l0-428.34V55.65a1.5,1.5,0,0,0-3,0c-3.91,131.78-9.42,263.52-17.51,395.12q-3.44,55.68-7.5,111.33h3q8.65-188.44,21.59-376.68t30.16-376q9.69-105.74,20.75-211.34h-3A3206.12,3206.12,0,0,1-15.71-42c-1.4,15.86-2.7,31.77-4.63,47.59-1.87,15.39-4.95,30.91-13.29,44.22l2.35-.3c-7.29-7.59-6.24-19.85-6.47-29.6q-.41-17.32-.73-34.64Q-39.15-50-39.54-85.16q-.76-69.32-.43-138.63.19-39.54.74-79.07h-3Q-43.83-109-47.13,84.81q-3.27,192.74-8.21,385.45Q-58.11,579.13-61.44,688c-.06,1.93,2.94,1.93,3,0q5.89-193.77,10.13-387.58,4.2-192.72,6.74-385.47,1.44-108.9,2.34-217.8a1.5,1.5,0,0,0-3,0q-2,144,.75,288.08c.26,13.71.5,27.42.88,41.13.25,8.85.74,18.5,7.2,25.23a1.52,1.52,0,0,0,2.36-.3C-17.07,29-16.65.55-14.27-24.88Q-10.06-70-7.12-115.16q5.94-91.49,6.63-183.21.39-51.76-.9-103.52a1.5,1.5,0,0,0-3,0Q-24-214.37-39.37-26.44T-65.79,349.88Q-72,456-76.89,562.1c-.08,1.94,2.86,1.91,3,0C-64.27,430.62-57.48,299-52.59,167.21q2.07-55.77,3.71-111.56h-3l0,428.34V605.75a1.5,1.5,0,0,0,3,0q5.86-148.75,8-297.64t.56-297.71q-.9-83.64-3-167.27a1.5,1.5,0,0,0-3,0Q-64.07,17.26-68.69,192.38-70,242.09-70.21,291.8c0,1.63,2.7,2.11,2.94.4,11.79-82,15.62-164.81,17.54-247.54.55-23.53.95-47.07,1.35-70.61,0-2-2.82-1.89-3,0Q-64.53,116-66.6,258.67q-.57,40-.26,79.92a1.5,1.5,0,0,0,3,0q11.6-159.93,18.68-320.13,2-45.46,3.66-90.94h-3q3,105.07,6.07,210.16c2,69.1,3.32,138.28,6.5,207.34,1.75,38,4.55,75.88,9.82,113.52.2,1.44,2.67,1.42,2.89,0A1448.53,1448.53,0,0,0-1.82,201.74q-.8-36.83-3.48-73.57a1.5,1.5,0,0,0-3,0q-8.41,175.37-6.5,351,.27,24.91.76,49.83c.13,6.72-.86,21,8.74,21.85a1.53,1.53,0,0,0,1.5-1.5q8.61-128.5,15.93-257.08T25.43,35q3.39-72.75,6.36-145.52h-3l5.7,227.15,5.7,227.15,3.22,128.25a1.5,1.5,0,0,0,3,0q4.31-167.49,5-335.06.93-167.55-.32-335.1-.56-94.65-1.42-189.29a1.5,1.5,0,0,0-3,0Q35.87-209.56,27.6-31.57t-14,356.1Q10.4,424.45,8,524.38c0,1.93,2.92,1.92,3,0q6-148.74,12-297.47T35-70.55c2.22-54.79,3.91-109.86,13.82-163.93l-2.95-.4L43.41,30.54,41,296,39.6,446.08a1.51,1.51,0,0,0,2.95.39c5.31-16.09,6.78-33,7.17-49.83.43-18.38.22-36.78.28-55.16l.34-113.66L50.53,164h-3c4.4,100,8.88,200.1,17.51,299.87q3.61,41.93,8.31,83.73c.17,1.55,2.53,2.19,2.94.4,11.79-51.45,8.28-105.7,8.28-158.09l0-162.66V134h-3a2436.68,2436.68,0,0,0,36,248.49c.33,1.66,3,1.29,3-.39q-4.26-109.43-12.19-218.67Q100.37,54.83,88.81-53.43q-6.57-61.54-14.33-123a1.5,1.5,0,0,0-3,0c-4.17,73.44,1.65,146.92,9.8,219.89,2.35,21,4.89,42,7.43,63,.22,1.86,3,2,3,0Q91.29,6.1,83.78-94c-.14-1.9-3-2-3,0Q84.46,68.36,96.63,230.4,100,275.72,104.12,321a1.5,1.5,0,0,0,3,0A1869.27,1869.27,0,0,0,101,76.41a1.5,1.5,0,0,0-3,0q-7.73,155.09-.17,310.41,2.14,43.73,5.52,87.37c.14,1.9,3,2,3,0-.68-84.25-1.37-168.51-3.65-252.74C100.37,137.37,96.52,53.32,89.47-30.5Q83.56-101,74.35-171.07a1.5,1.5,0,0,0-3,0,2582.45,2582.45,0,0,0,2.82,299.39q2.83,41.87,7,83.61c.19,1.89,3.12,2,3,0Q77.37,93.26,65.7-25.07q-3.29-33.3-7-66.56c-.21-1.89-3.17-2-3,0A1068.84,1068.84,0,0,0,87.87,93.07c.46,1.71,2.81,1.22,2.95-.4a1211,1211,0,0,0-7.5-277.15q-5.62-39.32-13.88-78.19c-.37-1.74-2.84-1.21-3,.4Q58.86-150.59,58.41-38.59q-.55,111.38,5.16,222.67,3.15,63.12,8.09,126.15c.15,1.9,3.06,1.95,3,0Q71.63,200.07,60,90.39q-3.3-31.1-7.3-62.1a1.5,1.5,0,0,0-3,0,1614,1614,0,0,0,9.91,231.89c.21,1.87,3,2,3,0q3.67-188.91-9.91-377.62-3.82-52.68-9-105.26a1.5,1.5,0,0,0-3,0Q31.82-20.87,34.36,181.23q.73,57.54,2.4,115.06a1.5,1.5,0,0,0,3,0Q46.08,152,41.36,7.48,40-33.74,37.75-74.93a1.5,1.5,0,0,0-3,0q-8.92,183.09-8.82,366.47,0,52.05.8,104.11h3l-9-374.09L18.13-85a1.5,1.5,0,0,0-3,0l-.37,307.35-.1,87.19a1.5,1.5,0,0,0,3,0A2927.08,2927.08,0,0,0,5.33-25.61q-4.44-47-10.42-93.85a1.5,1.5,0,0,0-3,0C-16.59-34-21.68,51.81-24.22,137.67c-2.53,85.57-2.56,171.21-1,256.81q1.29,72.81,3.92,145.6a1.5,1.5,0,0,0,3,0c6.12-134.66,2.69-269.5-2.91-404.1q-2.36-56.46-5-112.89c-.09-1.92-3-1.94-3,0C-27.81,135.55-26.6,248-24.88,360.48c.48,31.42,1.46,62.86,5.49,94a1.5,1.5,0,0,0,3,0q5.46-143.85-2-287.79-2.16-41-5.38-82a1.5,1.5,0,0,0-3,0c-.84,96.19-1.7,192.5,4.67,288.54q2.7,40.73,7.29,81.29a1.5,1.5,0,0,0,3,0q4.54-147.29,4.93-294.66t-3.43-294.62q-2.14-82.57-5.6-165.1a1.5,1.5,0,0,0-3,0l-.89,272.2-.25,77h3q0-134.79-6.24-269.49-1.76-38-4-75.94a1.5,1.5,0,0,0-3,0q-3.33,188-1.59,376.14Q-30.21,267-23.43,453.84q3.81,105.3,9.24,210.55a1.5,1.5,0,0,0,3,0q3.58-150.54,5-301.1T-4.34,62.16q.27-84.79.43-169.59h-3L0,73.28C2.24,132.19,3.68,191.21,7.81,250c2.3,32.77,5.68,65.48,11,97.91.29,1.8,2.79,1.16,2.94-.39Q39,172.13,41.49-4.33q.69-49.75.2-99.5a1.5,1.5,0,0,0-3,0Q33,13.33,30.43,130.62T28.31,365.19q.27,66.24,1.53,132.47h3Q30.1,379.42,24.91,261.24,19.71,142.59,12,24.07q-4.3-66.54-9.4-133l-2.95.4L23.48,52.79c.25,1.69,3,1.25,2.94-.4Q24.88-83.19,16.12-218.56,13.63-256.79,10.57-295c-.15-1.89-3-1.95-3,0L7-5.49,6.35,281.84,6,445.1H9L5.26,35.93,4.2-79.42h-3L13.26,299.17l3.4,106.61a1.5,1.5,0,0,0,3,0C27.83,280.84,30.09,155.6,31,30.42q.39-53.2.56-106.4h-3Q35,98.25,42.78,272.42c1.33,29.82,2,60.2,11.5,88.8a1.51,1.51,0,0,0,2.95-.4q1.31-142-7.73-283.76-2.56-40-6-79.88h-3L65.8,284.47l7.14,81.31c.17,1.89,3,2,3,0Q71.29,161.92,52.35-41.29,47-98.14,40.59-154.87c-.21-1.87-3-2-3,0l5.46,352.64L44.6,297.9h3L40,38.64,37.85-35.44a1.5,1.5,0,0,0-3,0L33.6,240.84l-.36,78.31a1.5,1.5,0,0,0,3,0q2.28-136.54,7.88-273Q45.71,7.56,47.57-31h-3c12.89,99.22,18.69,199.18,22.87,299.1q1.78,42.51,3.31,85a1.5,1.5,0,0,0,3,0l.58-278.67.16-79.15h-3a1133.7,1133.7,0,0,1,5.79,163.24c-.07,1.93,2.93,1.92,3,0Z" transform="translate(76.89 403.34)"/></g></svg>