<?xml version="1.0" encoding="utf-8"?>
<!-- Generator: Adobe Illustrator 19.2.0, SVG Export Plug-In . SVG Version: 6.00 Build 0)  -->
<svg version="1.1" id="Calque_1" xmlns="http://www.w3.org/2000/svg" xmlns:xlink="http://www.w3.org/1999/xlink" x="0px" y="0px"
	 viewBox="0 0 40 40" style="enable-background:new 0 0 40 40;" xml:space="preserve">
<style type="text/css">
	.st0{clip-path:url(#SVGID_2_);}
	.st1{fill:#E700C9;}
</style>
<g>
	<defs>
		<rect id="SVGID_1_" x="4.5" y="4.5" width="31" height="31"/>
	</defs>
	<clipPath id="SVGID_2_">
		<use xlink:href="#SVGID_1_"  style="overflow:visible;"/>
	</clipPath>
	<g class="st0">
		<g>
			<path class="st1" d="M-135.4-120c69.6-4.8,139.1-9.6,208.7-14.4c-0.1-1-0.3-2-0.4-2.9c-43.7,10.7-88,19.1-132.7,25
				c0.1,1,0.3,2,0.4,2.9c26.8-4.8,53.9-6.5,81.1-5.1c-0.1-1-0.3-2-0.4-2.9C-14.8-109-51.2-102.2-87.8-97c0.3,1,0.5,1.9,0.8,2.9
				c27.7-5.3,55.4-10.5,83-15.8c-0.3-1-0.5-1.9-0.8-2.9c-23.9,6.8-48.1,12.4-72.6,16.7c0.3,1,0.5,1.9,0.8,2.9
				c36.1-9.2,72.9-14.6,110.1-16.2c-0.1-1-0.3-2-0.4-2.9c-48,12-96.6,21.7-145.5,29.2c0.3,1,0.5,1.9,0.8,2.9
				c21.4-3.3,43-6.2,64.5-8.6c10.5-1.2,21-2.3,31.4-3.2c10.3-0.9,20.5-1.4,30.5,1.7c-0.1-0.9-0.2-1.8-0.4-2.7
				c-17.2,7.4-35,13-53.4,16.8c0.3,1,0.5,1.9,0.8,2.9c17.8-3.9,35.7-7.9,53.5-11.8c-0.3-1-0.5-1.9-0.8-2.9C-16-80.9-47-75.2-78.2-71
				c0.1,1,0.3,2,0.4,2.9c46.1-12.5,93.1-21.4,140.6-26.7c-0.1-1-0.3-2-0.4-2.9C24.5-87.7-13.8-79.4-52.5-72.8c0.3,1,0.5,1.9,0.8,2.9
				C-11-77.4,29.8-84.8,71.1-88.2c-0.1-1-0.3-2-0.4-2.9C23.5-74.3-25-61.6-74.4-53.2c0.3,1,0.5,1.9,0.8,2.9
				c27.4-5.5,55.3-8.3,83.3-8.2c-0.1-1-0.3-2-0.4-2.9c-40.4,10-81.7,15.4-123.3,16.3c0.1,1,0.3,2,0.4,2.9
				C-81.4-47.3-49.1-52-16.8-56c15.7-2,31.5-3.8,47.3-5.5c15.6-1.7,33-5.6,48.4-1.9c0-1,0-1.9,0-2.9C42-54,3.3-48.1-35.6-49.2
				c0.1,1,0.3,2,0.4,2.9c44.8-15.2,91.6-22,138.3-28.6c-0.3-1-0.5-1.9-0.8-2.9C27-61-49.3-49.7-125.7-39.6
				c-21.7,2.8-43.3,5.6-65,8.4c-1.9,0.2-2,3.1,0,3c43.9-2,87.9-2.8,131.8-2.4c-0.1-1-0.3-2-0.4-2.9c-13.1,4.3-26.6,7-40.4,8
				c0.1,1,0.3,2,0.4,2.9C-54.1-32.8-8.1-38.5,38.1-40c-0.1-1-0.3-2-0.4-2.9C3.5-35.6-31.3-31.1-66.3-29.6c0.1,1,0.3,2,0.4,2.9
				c27.6-7.4,55.9-11.5,84.5-12.2c-0.1-1-0.3-2-0.4-2.9c-43,12.6-87.2,20.2-131.4,27.7c-1.7,0.3-1.3,2.9,0.4,2.9
				c36.6,0.1,73.3,0.3,109.9,0.4c-0.3-0.9-0.5-1.9-0.8-2.8c-8.8,5.4-18.4,8.8-28.7,10.1c0.1,1,0.3,2,0.4,2.9
				C23.9-9.8,80.1-16.5,136.5-20.7c-0.1-1-0.3-2-0.4-2.9C80.7-14.1,24.7-7.7-31.4-4.4c0.1,1,0.3,2,0.4,2.9
				c43.8-10.3,88.1-18.3,132.8-23.9c1.9-0.2,1.9-3.2,0-3c-73.4,8.4-147.1,14-220.9,17c0.1,1,0.3,2,0.4,2.9
				c34-4.7,68.2-8.3,102.4-10.7c16.7-1.2,33.4-2.1,50.1-2.7c17-0.6,34.1-0.9,50.7,3.4c0-1,0-1.9,0-2.9C52.8-12.6,20.1-8.7-12.7-9.6
				c0.1,1,0.3,2,0.4,2.9c25.6-9.7,52.7-14.7,80.1-14.5c-0.1-1-0.3-2-0.4-2.9C21.5-7.1-26,5.2-73.4,17.3c-1.6,0.4-1.3,3.2,0.4,2.9
				c40.4-4.9,80.8-9.8,121.1-14.7c-0.1-1-0.3-2-0.4-2.9C-19.3,12.7-86.8,19-154.5,21.3c-19.3,0.7-38.7,1-58,1.1
				c0.3,0.9,0.5,1.9,0.8,2.8c15.3-7.3,31.9-10.2,48.5-12.4c18.2-2.5,36.5-4.6,54.9-6.6c35.5-3.8,71-6.6,106.7-8.5
				c-0.1-1-0.3-2-0.4-2.9C-7.9-3.6-13.6-2-19.3-0.3c-1.9,0.5-1.1,3.3,0.8,2.9C30.1-8.2,79.6-13.9,129.4-14.6
				c-0.4-0.9-0.7-1.7-1.1-2.6c-7.6,6.6-18.3,7.8-27.8,9.6c-10.9,2.1-21.8,4-32.7,5.9C45.7,2.1,23.6,5.4,1.4,8.3c0.1,1,0.3,2,0.4,2.9
				C17.4,6.7,33.2,3.3,49.3,1c-0.3-1-0.5-1.9-0.8-2.9C-5.6,9-60.4,15.7-115.5,18c0,1,0,2,0,3c31.8-3.5,63.8-5.7,95.8-6.3
				c15.7-0.3,31.4-0.3,47,0.1c14.6,0.4,32.2-1.2,45,7.1c0.1-0.9,0.2-1.8,0.4-2.7c-19.5,6.4-39.6,10-60.1,10.8c0,1,0,2,0,3
				c30.7-1.4,61.3-2.8,92-4.2c0-1,0-2,0-3C50.2,31.6-4.6,33.4-59.3,31c0.1,1,0.3,2,0.4,2.9c28.2-8.2,57.5-10.9,86.7-8
				c-0.1-1-0.3-2-0.4-2.9c-21,4.9-42.5,6.3-64,4.1c0.1,1,0.3,2,0.4,2.9c40.5-9.9,82-15.2,123.7-15.6c0-1,0-2,0-3
				C60.5,12.6,33.3,13.8,6.2,15c0.1,1,0.3,2,0.4,2.9c29.8-6.4,60.2-9.3,90.7-8.5c-0.1-1-0.3-2-0.4-2.9C42.3,17-12.5,25.7-67.7,32.5
				c0,1,0,2,0,3c45.1-5.9,90.5-9.4,136-10.5c-0.1-1-0.3-2-0.4-2.9c-16.5,4.1-33.2,6.9-50.1,8.2c-1.9,0.1-2,3,0,3
				C74.9,33.1,132,33,189.1,32.9c0-1,0-2,0-3c-79.8,0.6-159.7,1.2-239.5,1.8c0,1,0,2,0,3c16.1-0.5,32.1,0.1,48.1,1.7
				c-0.4-0.9-0.7-1.7-1.1-2.6c-5.9,6.4-16,5.9-24,6.5c-8.8,0.8-17.7,1.5-26.5,2.3c-18,1.6-36,3.1-54,4.7c-1.9,0.2-2,2.9,0,3
				c43.2,1.7,86.3,4.9,129.2,9.6c-0.1-1-0.3-2-0.4-2.9c-10,3-20,6-30,9.1c-1.6,0.5-1.4,3.1,0.4,2.9c30-2.2,60-4.3,89.9-6.5
				c0-1,0-2,0-3c-39.2,3-78.6,4.4-117.9,4c0.1,1,0.3,2,0.4,2.9c64.6-9.2,129.9-13.3,195.2-12.3c-0.1-1-0.3-2-0.4-2.9
				c-20.1,5.8-41,7.6-61.8,5.5c0.4,0.9,0.7,1.7,1.1,2.6c4.6-5.5,9.3-11,13.9-16.6c0.8-0.9,0.3-2.6-1.1-2.6
				C47.3,44.3-15.9,48.2-79,52.1c0.1,1,0.3,2,0.4,2.9c21-2.9,42.1-4.6,63.3-5.1c10.2-0.2,20.3-0.1,30.5,0.2
				c5.2,0.2,10.5,0.5,15.7,0.8c2.6,0.2,5.2,0.3,7.8,0.6c1.3,0.1,2.6,0.3,3.9,0.5c3.2,0.5,4.4,2.7,3.4,6.7c-0.9,0.9-0.2,2.6,1.1,2.6
				c19.9-1.2,38.6-7.9,57.1-14.8c1.5-0.5,1.4-3.1-0.4-2.9C51.1,48.3-1.8,51-54.8,51.9c0.1,1,0.3,2,0.4,2.9
				c34.9-7.1,70.2-12.4,105.7-14.8c-0.1-1-0.3-2-0.4-2.9c-15.9,3.2-32,5.5-48.2,7c0.1,1,0.3,2,0.4,2.9c7.4-1,14.8-1,22.2,0.1
				c0-1,0-1.9,0-2.9C10.1,49.7-5.2,55.1-20.5,60.5c-1.5,0.5-1.4,3.1,0.4,2.9c45.4-3.5,90.9-7,136.3-10.4c-0.4-0.8-0.9-1.5-1.3-2.3
				c-2.4,3.8-5.7,6.3-9.9,7.8c-1.5,0.5-1.4,3,0.4,2.9c11.5-0.4,23-0.7,34.4-1.1c0-1,0-2,0-3C98,60.7,56.1,63.9,14.3,67.1
				c-1.9,0.1-1.9,2.9,0,3C62.4,73,110.5,76,158.1,83.4c0.1-1,0.3-2,0.4-2.9C105.7,85,52.7,86.5-0.2,84.9c0,1,0,2,0,3
				c11-0.4,22-0.8,33-1.1c1.9-0.1,1.9-3,0-3C3,83-26.8,82.3-56.6,81.6c0.1,1,0.3,2,0.4,2.9c42.3-6.2,85.1-9,127.9-8.3c0-1,0-2,0-3
				c-24.7,2.5-49.5,3-74.3,1.4c0.1,1,0.3,2,0.4,2.9C25.8,71,54.2,67.2,82.9,66.1c1.9-0.1,1.9-3.1,0-3c-32.3,1-64.5,2.1-96.8,3.1
				c0.1,1,0.3,2,0.4,2.9c19.7-5.6,39.5,1.2,59.1,3.3c19.9,2.1,39.8-1,59.4-4.1c1.7-0.3,1.3-3.1-0.4-2.9c-26.1,3.1-52.1,7-78,11.8
				c-1.8,0.3-1.2,2.8,0.4,2.9c11.5,0.8,23,1.7,34.5,2.5c3.6,0.3,34.9,1.2,34.9,3.9c0.4-0.5,0.7-1,1.1-1.4
				c-34,11.4-67.9,22.7-101.9,34.1c-0.7,0.2-1.4,1.1-1,1.8c2.2,5.1,7.9,4.5,12.6,4.5c9.6,0,19.2,0,28.8-0.1
				c18.8,0,37.7-0.1,56.5-0.1c0-1,0-2,0-3c-38.1,2.6-76.3,1-114.1-4.8c0.2,0.8,0.4,1.7,0.7,2.5c6-5.5,13-9.1,20.9-11.1
				c1.9-0.5,1.1-3.3-0.8-2.9c-17.2,3.4-34.6,4.7-52,4c0.1,1,0.3,2,0.4,2.9C6.4,100.7,65.7,91.3,125.4,84.8c1.9-0.2,2-3.1,0-3
				c-2,0.1-4.1,0.1-6.1,0.2c0.1,1,0.3,2,0.4,2.9c8.2-2.7,16.4-5.4,24.7-8.1c1.8-0.6,1.1-3.3-0.8-2.9C126.2,77.5,109,81.6,92,86.2
				c-1.6,0.4-1.3,3,0.4,2.9c3.3-0.1,6.6-0.1,9.9-0.2c0-1,0-2,0-3c-30.2,2.4-60.4,5.3-90.5,8.7c-1.9,0.2-1.9,2.8,0,3
				c9.6,0.8,19.2,1.7,28.7,2.5c-0.1-1-0.3-2-0.4-2.9c-18.7,6.6-38,11.4-57.6,14.4c-1.7,0.3-1.2,2.9,0.4,2.9c4,0.2,8.1,0.4,12.1,0.6
				c0-1,0-2,0-3c-27.7,2-55.4,3.9-83.1,5.9c-1.9,0.1-1.9,2.9,0,3c25.8,0.9,51.7,1.7,77.5,2.6c0-1,0-2,0-3
				c-30.6,1.5-61.2,2.5-91.9,2.9c0.1,1,0.3,2,0.4,2.9c39.3-5.7,78.9-5.7,118.4-1.3c18.8,2.1,36.8,2.6,55.6,0
				c19.3-2.7,38.3-6.9,57.8-7.5c0-1,0-2,0-3c-34.1,2.8-68.4,4.2-102.6,4.2c-1.9,0-1.9,2.9,0,3c13.4,0.5,26.8,0.9,40.2,1.4
				c-0.1-1-0.3-2-0.4-2.9c-26.7,8.1-54.4,11.9-82.4,11.4c0.1,1,0.3,2,0.4,2.9c12-2.9,24-5.7,36-8.6c1.9-0.5,1.1-3.1-0.8-2.9
				c-13.2,1.8-26.5,0.9-39.4-2.5c0,1,0,1.9,0,2.9c52.8-15.4,107.8-18.8,162.4-22c-0.1-1-0.3-2-0.4-2.9c-27.9,5-56.2,7-84.5,6.2
				c0.1,1,0.3,2,0.4,2.9c18.3-6.9,37.6-9.8,57.1-8.4c-0.1-1-0.3-2-0.4-2.9c-24.3,5.9-48.7,11.8-73,17.7c-1.9,0.5-1.1,3.2,0.8,2.9
				c14.6-2.8,29.5-3.6,44.3-2.6c-0.3-0.9-0.5-1.9-0.8-2.8c-20,8.8-40.8,15.8-62.2,20.8c-1.6,0.4-1.3,3.2,0.4,2.9
				c11.7-1.5,23.4-2.9,35-4.4c-0.1-1-0.3-2-0.4-2.9c-27.2,6.1-54.6,10.7-82.3,13.7c-1.9,0.2-2,3,0,3c56.6,0.5,113.5,1.1,169.4,11.4
				c0.1-1,0.3-2,0.4-2.9c-44.8,2.4-89.6,4.7-134.4,7.1c-1.9,0.1-1.9,2.8,0,3c18.3,1.7,36.6,3.6,54.9,4.9c14.6,1,29.7,0.6,42.5-7.3
				c1.3-0.8,0.7-2.7-0.8-2.8c-22.7-1.1-45.3-2.3-68-3.4c0.1,1,0.3,2,0.4,2.9c21.9-7.1,44.5-11.9,67.4-14.3c1.9-0.2,1.9-3.2,0-3
				c-33,2.7-66.2,5.2-99.3,1.4c0.1,1,0.3,2,0.4,2.9c7.8-2.4,15.7-4.9,23.5-7.3c1.9-0.6,1.1-3.2-0.8-2.9
				c-26.7,4.2-53.4,7.8-80.2,10.8c0.1,1,0.3,2,0.4,2.9c25.6-4.7,51.4-7.4,77.4-8c-0.1-1-0.3-2-0.4-2.9c-37.5,8.4-75.6,13.4-114,15
				c-1.9,0.1-1.9,3,0,3c65.3-0.2,130.6,1.3,195.8,4.8c0-1,0-2,0-3c-25,2.5-50.1,3.4-75.3,2.7c0,1,0,2,0,3c23.1-2,46.3-1.5,69.2,1.7
				c0-1,0-1.9,0-2.9c-23.3,3.3-46.5,6.7-69.8,10c-1.4,0.2-1.4,2.7,0,2.9c14.9,2.5,29.8,3.8,44.9,3.8c1.9,0,1.9-2.9,0-3
				c-24.6-0.9-49.1-3.7-73.3-8.4c0.2,0.8,0.4,1.7,0.7,2.5c1.4-1.6,2.7-3.2,4.1-4.9c0.7-0.9,0.5-2.1-0.7-2.5c-2.8-1-5.1-2.4-7.3-4.4
				c-1.4-1.3-3.5,0.8-2.1,2.1c2.6,2.4,5.3,4,8.6,5.2c-0.2-0.8-0.4-1.7-0.7-2.5c-1.4,1.6-2.7,3.2-4.1,4.9c-0.7,0.8-0.5,2.3,0.7,2.5
				c24.4,4.8,49.2,7.6,74.1,8.5c0-1,0-2,0-3c-14.8,0-29.5-1.3-44.1-3.7c0,1,0,1.9,0,2.9c23.3-3.3,46.5-6.7,69.8-10
				c1.4-0.2,1.4-2.7,0-2.9c-23.2-3.2-46.7-3.8-70-1.8c-1.9,0.2-2,2.9,0,3c25.1,0.7,50.3-0.2,75.3-2.7c1.9-0.2,2-2.9,0-3
				c-65.2-3.4-130.5-5-195.8-4.8c0,1,0,2,0,3c38.6-1.5,77-6.6,114.8-15.1c1.7-0.4,1.3-3-0.4-2.9c-26.3,0.7-52.4,3.4-78.2,8.1
				c-1.6,0.3-1.3,3.1,0.4,2.9c27.1-3,54.1-6.6,81-10.9c-0.3-1-0.5-1.9-0.8-2.9c-7.8,2.4-15.7,4.9-23.5,7.3c-1.7,0.5-1.2,2.8,0.4,2.9
				c33,3.9,66.3,1.3,99.3-1.4c0-1,0-2,0-3c-23.2,2.4-46,7.2-68.2,14.4c-1.6,0.5-1.3,2.9,0.4,2.9c22.7,1.1,45.3,2.3,68,3.4
				c-0.3-0.9-0.5-1.9-0.8-2.8c-13.3,8.3-29.2,7.9-44.3,6.7c-17.2-1.4-34.4-3.1-51.6-4.7c0,1,0,2,0,3c44.8-2.4,89.6-4.7,134.4-7.1
				c1.6-0.1,2.2-2.6,0.4-2.9c-56.1-10.3-113.3-11-170.2-11.5c0,1,0,2,0,3c27.9-3.1,55.7-7.7,83.1-13.9c1.6-0.4,1.3-3.2-0.4-2.9
				c-11.7,1.5-23.4,2.9-35,4.4c0.1,1,0.3,2,0.4,2.9c21.6-5.1,42.6-12.1,62.9-21.1c1.5-0.7,0.6-2.7-0.8-2.8
				c-15.1-1-30.2-0.1-45.1,2.7c0.3,1,0.5,1.9,0.8,2.9c24.3-5.9,48.7-11.8,73-17.7c1.7-0.4,1.2-2.8-0.4-2.9C96.1,95.1,76.5,98,58,105
				c-1.5,0.6-1.4,2.9,0.4,2.9c28.6,0.8,57.1-1.3,85.3-6.3c1.7-0.3,1.3-3-0.4-2.9c-54.8,3.3-110.2,6.7-163.2,22.2
				c-1.4,0.4-1.5,2.5,0,2.9c13.5,3.6,27.2,4.4,41,2.5c-0.3-1-0.5-1.9-0.8-2.9c-12,2.9-24,5.7-36,8.6c-1.7,0.4-1.3,2.9,0.4,2.9
				c28.2,0.5,56.2-3.4,83.2-11.5c1.6-0.5,1.3-2.9-0.4-2.9c-13.4-0.5-26.8-0.9-40.2-1.4c0,1,0,2,0,3c34.3,0,68.5-1.4,102.6-4.2
				c1.9-0.2,2-3.1,0-3c-18.8,0.5-37.3,4.4-55.9,7.2c-20.1,3-39.4,2.3-59.5,0.1c-39.1-4.4-78.3-4-117.2,1.6c-1.7,0.2-1.3,3,0.4,2.9
				c30.6-0.4,61.3-1.4,91.9-2.9c1.9-0.1,1.9-2.9,0-3c-25.8-0.9-51.7-1.7-77.5-2.6c0,1,0,2,0,3c27.7-2,55.4-3.9,83.1-5.9
				c1.9-0.1,1.9-2.9,0-3c-4-0.2-8.1-0.4-12.1-0.6c0.1,1,0.3,2,0.4,2.9c19.6-3,38.9-7.8,57.6-14.4c1.6-0.6,1.3-2.8-0.4-2.9
				c-9.6-0.8-19.2-1.7-28.7-2.5c0,1,0,2,0,3c30.1-3.4,60.3-6.3,90.5-8.7c1.9-0.1,2-3,0-3c-3.3,0.1-6.6,0.1-9.9,0.2
				c0.1,1,0.3,2,0.4,2.9c17.1-4.6,34.3-8.8,51.6-12.4c-0.3-1-0.5-1.9-0.8-2.9c-8.2,2.7-16.4,5.4-24.7,8.1c-1.5,0.5-1.4,3,0.4,2.9
				c2-0.1,4.1-0.1,6.1-0.2c0-1,0-2,0-3c-59.9,6.5-119.5,16-178.5,28.4c-1.7,0.4-1.2,2.9,0.4,2.9c17.7,0.8,35.4-0.6,52.8-4.1
				c-0.3-1-0.5-1.9-0.8-2.9c-8.4,2.1-15.8,6.1-22.2,11.8c-0.8,0.7-0.5,2.3,0.7,2.5c38,5.8,76.5,7.5,114.9,4.9c1.9-0.1,2-3,0-3
				c-15.9,0-31.7,0.1-47.6,0.1c-7.9,0-15.9,0-23.8,0c-3.6,0-7.3,0-10.9,0c-2.9,0-11.2,1.3-12.7-2.3c-0.3,0.6-0.7,1.2-1,1.8
				c34-11.4,67.9-22.7,101.9-34.1c0.6-0.2,1.1-0.8,1.1-1.4c0-3.2-2.6-4.1-5.4-4.5c-7.4-1.1-15.2-1.1-22.7-1.6
				c-14.8-1.1-29.6-2.1-44.4-3.2c0.1,1,0.3,2,0.4,2.9c25.6-4.8,51.3-8.7,77.2-11.7c-0.1-1-0.3-2-0.4-2.9
				c-20.9,3.3-41.9,6.3-63.1,3.4c-18.4-2.5-37-7.9-55.5-2.6c-1.6,0.5-1.3,3,0.4,2.9c32.3-1,64.5-2.1,96.8-3.1c0-1,0-2,0-3
				C54,64.2,25.2,68.1-3,74.6c-1.7,0.4-1.2,2.8,0.4,2.9c24.8,1.6,49.6,1.1,74.3-1.4c1.9-0.2,2-3,0-3C28.7,72.6-14.4,75.4-57,81.7
				c-1.7,0.3-1.2,2.9,0.4,2.9C-26.8,85.3,3,86,32.8,86.8c0-1,0-2,0-3c-11,0.4-22,0.8-33,1.1c-1.9,0.1-1.9,2.9,0,3
				c53,1.6,106,0.1,158.7-4.5c1.5-0.1,2.2-2.7,0.4-2.9C111,73,62.6,70,14.3,67.1c0,1,0,2,0,3c41.9-3.2,83.7-6.4,125.6-9.6
				c1.9-0.1,2-3.1,0-3c-11.5,0.4-23,0.7-34.4,1.1c0.1,1,0.3,2,0.4,2.9c5-1.8,8.8-4.8,11.7-9.2c0.6-0.9-0.2-2.3-1.3-2.3
				c-45.4,3.5-90.9,7-136.3,10.4c0.1,1,0.3,2,0.4,2.9C-4.4,58,10.9,52.6,26.2,47.2c1.2-0.4,1.6-2.7,0-2.9c-8-1.2-15.8-1.2-23.8-0.1
				c-1.7,0.2-1.3,3.1,0.4,2.9c16.4-1.5,32.8-3.9,49-7.1c1.6-0.3,1.3-3.1-0.4-2.9C15.5,39.4-20,44.7-55.2,51.9
				c-1.7,0.3-1.3,3,0.4,2.9c52.9-0.9,105.8-3.6,158.6-8.2c-0.1-1-0.3-2-0.4-2.9c-18.2,6.8-36.7,13.5-56.3,14.7
				c0.4,0.9,0.7,1.7,1.1,2.6c2.2-2.1,2.6-5.1,1.1-7.8c-1.8-3.3-5.6-4.1-9.1-4.5C27,47.2,13.6,47,0.4,46.9
				c-26.7-0.2-53.4,1.6-79.8,5.3c-1.7,0.2-1.3,3.1,0.4,2.9c63.2-3.9,126.3-7.8,189.5-11.8c-0.4-0.9-0.7-1.7-1.1-2.6
				c-4.6,5.5-9.3,11-13.9,16.6c-0.9,1-0.3,2.4,1.1,2.6c21.1,2.1,42.2,0.2,62.6-5.6c1.6-0.5,1.3-2.9-0.4-2.9
				c-65.5-1-131.1,3.2-196,12.4c-1.7,0.2-1.2,2.9,0.4,2.9c39.3,0.3,78.7-1,117.9-4c1.9-0.1,1.9-3.1,0-3c-30,2.2-60,4.3-89.9,6.5
				c0.1,1,0.3,2,0.4,2.9c10-3,20-6,30-9.1c1.7-0.5,1.2-2.8-0.4-2.9c-42.9-4.7-86-8-129.2-9.6c0,1,0,2,0,3c20-1.7,40-3.4,59.9-5.2
				c9.7-0.8,19.5-1.6,29.2-2.5c6.5-0.6,13-1.7,17.5-6.7c0.9-1,0.2-2.4-1.1-2.6c-16-1.6-32-2.2-48.1-1.7c-1.9,0.1-1.9,3,0,3
				c79.8-0.6,159.7-1.2,239.5-1.8c1.9,0,1.9-3,0-3C132,30,74.9,30.1,17.8,30.2c0,1,0,2,0,3C35,31.8,52,29.1,68.7,24.9
				c1.6-0.4,1.3-3-0.4-2.9c-45.5,1.1-90.9,4.6-136,10.5c-1.9,0.2-1.9,3.2,0,3C-12.3,28.6,42.9,19.9,97.7,9.3
				c1.7-0.3,1.2-2.9-0.4-2.9C66.5,5.7,35.9,8.6,5.8,15c-1.6,0.4-1.3,3,0.4,2.9c27.1-1.2,54.3-2.4,81.4-3.6c1.9-0.1,1.9-3,0-3
				C45.6,11.8,3.8,17.1-37,27.1c-1.7,0.4-1.2,2.8,0.4,2.9c21.7,2.2,43.5,0.8,64.8-4.2c1.8-0.4,1.2-2.8-0.4-2.9
				C-1.6,20-31.3,22.7-59.7,31c-1.6,0.5-1.3,2.9,0.4,2.9c54.7,2.4,109.5,0.7,163.9-5.2c1.9-0.2,2-3.1,0-3c-30.7,1.4-61.3,2.8-92,4.2
				c-1.9,0.1-1.9,3.1,0,3c20.7-0.8,41.2-4.4,60.9-10.9c1.2-0.4,1.5-2,0.4-2.7c-11.6-7.5-26.4-6.9-39.6-7.3
				c-16.7-0.5-33.3-0.7-50-0.4c-33.3,0.5-66.6,2.7-99.7,6.4c-1.9,0.2-2,3.1,0,3C-60.1,18.7-5,12,49.3,1c1.9-0.4,1.1-3.2-0.8-2.9
				C32.4,0.4,16.6,3.8,1,8.3c-1.6,0.5-1.3,3.2,0.4,2.9c23.1-3,46.1-6.5,69.1-10.4c11.6-2,23.1-4.1,34.7-6.3
				c9.1-1.7,18.2-3.4,25.3-9.6c1-0.9,0.2-2.6-1.1-2.6c-50,0.7-99.9,6.5-148.7,17.3c0.3,1,0.5,1.9,0.8,2.9c5.7-1.6,11.5-3.3,17.2-4.9
				c1.6-0.5,1.3-3-0.4-2.9c-36.9,2-73.8,4.9-110.6,8.9c-17.6,1.9-35.1,4-52.7,6.4c-16.6,2.3-33.1,5.3-48.4,12.6
				c-1.4,0.7-0.7,2.8,0.8,2.8C-144,25.2-75.5,21.1-7.5,13c18.7-2.2,37.3-4.7,56-7.5c1.7-0.2,1.3-3.2-0.4-2.9
				C7.7,7.5-32.7,12.4-73,17.3c0.1,1,0.3,2,0.4,2.9C-25.2,8.1,22.3-4.2,68.2-21.2c1.5-0.6,1.4-2.9-0.4-2.9
				c-27.7-0.1-55.1,4.8-80.9,14.6c-1.5,0.6-1.4,2.9,0.4,2.9c33.1,0.9,66.1-3.1,98-11.8c1.4-0.4,1.4-2.5,0-2.9
				c-16.2-4.2-33-4.2-49.6-3.6c-17.4,0.6-34.7,1.6-52,2.8c-34.5,2.4-68.9,6.1-103.2,10.8c-1.7,0.2-1.3,3,0.4,2.9
				c73.8-3,147.5-8.7,220.9-17c0-1,0-2,0-3c-44.9,5.6-89.5,13.6-133.6,24c-1.6,0.4-1.3,3,0.4,2.9C25-4.7,81.2-11.2,136.9-20.7
				c1.7-0.3,1.3-3.1-0.4-2.9C79.8-19.5,23.3-12.7-32.8-3.5c-1.6,0.3-1.3,3.2,0.4,2.9C-21.6-1.9-11.5-5.3-2.2-11
				c1.3-0.8,0.8-2.8-0.8-2.8c-36.6-0.1-73.3-0.3-109.9-0.4c0.1,1,0.3,2,0.4,2.9C-68.3-18.8-24.1-26.4,18.9-39c1.6-0.5,1.3-3-0.4-2.9
				c-28.8,0.7-57.4,4.9-85.3,12.3c-1.6,0.4-1.3,3,0.4,2.9c35.3-1.5,70.4-6,104.9-13.4c1.7-0.4,1.3-3-0.4-2.9
				c-46.5,1.5-92.8,7.3-138.2,17.4c-1.6,0.4-1.3,3.1,0.4,2.9c14-1,27.8-3.7,41.2-8.1c1.6-0.5,1.3-2.9-0.4-2.9
				c-44-0.4-87.9,0.5-131.8,2.4c0,1,0,2,0,3C-114.3-38-37.8-47.7,38-61.7c21.8-4,43.5-8.4,65.1-13.2c1.9-0.4,1.1-3.2-0.8-2.9
				C55.7-71.1,8.8-64.3-36-49.1c-1.6,0.5-1.3,2.9,0.4,2.9c39.1,1,78.2-4.8,115.3-17.3c1.3-0.4,1.5-2.5,0-2.9
				c-15-3.6-31.2-0.2-46.3,1.4C16.7-63.1,0-61.1-16.8-59c-32.6,4.1-65.1,8.8-97.6,13.9c-1.7,0.3-1.3,3,0.4,2.9
				c41.8-0.9,83.4-6.4,124.1-16.4c1.7-0.4,1.3-2.9-0.4-2.9c-28.3-0.1-56.4,2.8-84.1,8.4c-1.9,0.4-1.1,3.2,0.8,2.9
				c49.4-8.4,97.9-21.1,145.1-38c1.5-0.5,1.4-3.1-0.4-2.9C29.5-87.8-11.5-80.3-52.5-72.8c-1.9,0.3-1.1,3.2,0.8,2.9
				c38.7-6.5,77-14.8,114.9-24.9c1.6-0.4,1.3-3.1-0.4-2.9C15.1-92.5-32.2-83.5-78.6-71c-1.6,0.4-1.3,3.2,0.4,2.9
				c31.5-4.2,62.7-9.9,93.7-17.1c1.9-0.4,1.1-3.3-0.8-2.9C-3.1-84.1-21-80.2-38.8-76.3c-1.9,0.4-1.1,3.3,0.8,2.9
				c18.6-3.9,36.6-9.6,54.1-17.1c1.3-0.5,0.8-2.4-0.4-2.7c-9.6-3-19.5-2.8-29.5-2C-24.9-94.3-36-93.1-47-91.8
				c-21.8,2.4-43.6,5.4-65.3,8.7c-1.9,0.3-1.1,3.2,0.8,2.9c48.9-7.4,97.5-17.2,145.5-29.2c1.6-0.4,1.3-3-0.4-2.9
				C-3.9-110.7-41-105.3-77.3-96c-1.9,0.5-1.1,3.2,0.8,2.9c24.5-4.3,48.7-9.9,72.6-16.7c1.9-0.5,1.1-3.2-0.8-2.9
				c-27.7,5.3-55.4,10.5-83,15.8c-1.9,0.4-1.1,3.2,0.8,2.9c36.6-5.3,73-12.1,109.1-20.4c1.7-0.4,1.2-2.9-0.4-2.9
				c-27.4-1.4-54.9,0.4-81.9,5.2c-1.6,0.3-1.3,3.2,0.4,2.9c44.9-6,89.5-14.4,133.5-25.1c1.6-0.4,1.3-3.1-0.4-2.9
				c-69.6,4.8-139.1,9.6-208.7,14.4C-137.3-122.8-137.3-119.8-135.4-120L-135.4-120z"/>
		</g>
	</g>
</g>
</svg>
