<?xml version="1.0" encoding="utf-8"?>
<!-- Generator: Adobe Illustrator 19.2.0, SVG Export Plug-In . SVG Version: 6.00 Build 0)  -->
<svg version="1.1" id="Calque_1" xmlns="http://www.w3.org/2000/svg" xmlns:xlink="http://www.w3.org/1999/xlink" x="0px" y="0px"
	 viewBox="0 0 710 450" style="enable-background:new 0 0 710 450;" xml:space="preserve">
<style type="text/css">
	.st0{fill:none;stroke:#E700C9;stroke-width:4;stroke-linecap:round;stroke-linejoin:round;stroke-miterlimit:10;}
</style>
<g>
	<polyline class="st0" points="2,431 26,420 50,447.5 79,428 101,381 126,357 149,315 172,323 197,285 222,228 245,210 272,210 
		298,200 318,189 347,171 368,141 396,115 418,133 439,132 468,108 497,86 517,72 536,72 	"/>
	<polyline class="st0" points="585,66 614,72 636,95 659,95 688,95 708,87 	"/>
</g>
</svg>
