<?xml version="1.0" encoding="utf-8"?>
<!-- Generator: Adobe Illustrator 19.2.0, SVG Export Plug-In . SVG Version: 6.00 Build 0)  -->
<svg version="1.1" id="Calque_1" xmlns="http://www.w3.org/2000/svg" xmlns:xlink="http://www.w3.org/1999/xlink" x="0px" y="0px"
	 viewBox="0 0 730 500" style="enable-background:new 0 0 730 500;" xml:space="preserve">
<style type="text/css">
	.st0{clip-path:url(#SVGID_2_);}
	.st1{fill:#E700C9;}
	.st2{clip-path:url(#SVGID_4_);}
	.st3{clip-path:url(#SVGID_6_);}
	.st4{fill:#F2F20F;}
	.st5{clip-path:url(#SVGID_8_);}
</style>
<g>
	<g>
		<g>
			<g>
				<defs>
					<rect id="SVGID_1_" x="112.9" y="25.7" width="90.1" height="473.6"/>
				</defs>
				<clipPath id="SVGID_2_">
					<use xlink:href="#SVGID_1_"  style="overflow:visible;"/>
				</clipPath>
				<g class="st0">
					<g>
						<path class="st1" d="M60.4-50.2C130.3-36,200.2-21.7,270.1-7.5c19.8,4,39.7,8.1,59.5,12.1c0.3-2,0.5-3.9,0.8-5.9
							c-60.3,2.5-120.7,0.7-180.7-6c0,2,0,4,0,6c35.7,1.6,70.8,9,104.1,22.1c0.3-2,0.5-3.9,0.8-5.9c-49.4,1.1-98.8-0.6-148-5.3
							c0,2,0,4,0,6c37.6,1.2,75.2,2.3,112.8,3.5c0-2,0-4,0-6c-33.3,3.1-66.8,3.9-100.3,2.2c0,2,0,4,0,6
							c49.3-2.7,98.7,1.5,146.6,13.2c0.3-2,0.5-3.9,0.8-5.9c-66.2,3.2-132.5,2.1-198.6-3.4c0,2,0,4,0,6c29.2,2.3,58.3,5.5,87.3,9.6
							c13.9,2,27.8,4,41.6,6.5c12.3,2.2,24.5,5.5,34,14c0.4-1.7,0.9-3.3,1.3-5c-24.8,6.6-50.3,10.1-76,9.9c0,2,0,4,0,6
							c24.5-0.2,49.1-0.5,73.6-0.7c0-2,0-4,0-6c-42.2,1.2-84.4-0.4-126.4-5.1c0,2,0,4,0,6c63.6-4.7,127.6-3,190.8,5.8
							c0.3-2,0.5-3.9,0.8-5.9c-52.6,3.6-105.3,4-157.9,0.8c0,2,0,4,0,6c54.7,2.2,109.7,4.4,163.7,14.3c0-1.9,0-3.9,0-5.8
							c-66.5,12.4-134.4,17-202,13c0,2,0,4,0,6c36.9,0.5,73.4,6.2,108.7,17.3c0.3-2,0.5-3.9,0.8-5.9c-55,2.4-110.1-3.3-163.2-18
							c-0.3,2-0.5,3.9-0.8,5.9c67.7,4.9,135.1,12.2,202.2,22.2c16.7,2.5,36.2,3.1,50.1,13.7c0.2-1.8,0.5-3.7,0.7-5.5
							c-51,8-103.2,4-151.9-13.2c0,1.9,0,3.9,0,5.8c62.6-10,125.8-4.4,188.4,1.7c0-2,0-4,0-6c-102.8,1.2-205.4-7.8-307.5-19.2
							c-28.7-3.2-57.3-6.6-86-10c-3.4-0.4-4,5.1-0.8,5.9c56,13.4,111.5,29,166.4,46.7c0-1.9,0-3.9,0-5.8c-18,2.6-36.2,2.3-54-1.2
							c-0.3,2-0.5,3.9-0.8,5.9c61.2-0.8,122.2,6.4,181.4,21.8c0.3-2,0.5-3.9,0.8-5.9c-46.3,0.2-92.5-5.1-137.5-16
							c-0.3,2-0.5,3.9-0.8,5.9c37.8-2.7,75.7,0.6,112.4,10.5c0.3-2,0.5-3.9,0.8-5.9c-59.9,6.1-120.1,2.9-180-0.6
							c-3.5-0.2-3.9,4.9-0.8,5.9c45.8,14.5,91.5,28.9,137.3,43.4c-0.2-1.8-0.5-3.7-0.7-5.5c-13,6-26.9,8.7-41.1,6.9c0,2,0,4,0,6
							c74.5,4.9,148.7,14.4,222,28.7c0.3-2,0.5-3.9,0.8-5.9c-74.1-4.2-147.8-14.1-220.3-29.9c-0.3,2-0.5,3.9-0.8,5.9
							c60.2-1.8,120.5,0.8,180.2,8c3.3,0.4,4.1-5.4,0.8-5.9c-75.1-10.3-149.8-23.6-223.8-40.1c-20.8-4.6-41.6-9.5-62.3-14.6
							c-0.3,2-0.5,3.9-0.8,5.9c70.2,7.2,140.7,18.9,208.9,37.4c17.8,4.8,35.4,11.1,50.1,22.6c0.7-1.7,1.4-3.4,2.1-5.1
							c-43.4,3.4-86.9-1.8-128-16.3c0,1.9,0,3.9,0,5.8c35.7-7.4,72.6-6.4,107.4,4.7c0-1.9,0-3.9,0-5.8
							c-65.6,12.9-132.3,16.9-198.9,20.6c-3.9,0.2-3.8,5.5,0,6c53.3,6.7,106.6,13.5,159.9,20.2c0-2,0-4,0-6
							c-88.9-7.6-177.2-22.3-263.7-44.4c-24.5-6.2-48.8-13.1-73-20.5c0,1.9,0,3.9,0,5.8c34.4-11,72.1-3.7,107.1,0.9
							C27.1,190.2,63.6,196,99.8,203c20.6,3.9,41.1,8.2,61.5,12.9c0.3-2,0.5-3.9,0.8-5.9c-8.1,0.8-16.2,1.5-24.3,2.3
							c-3.8,0.4-3.9,6,0,6c65.8-0.7,131.4,7.8,194.6,26.1c-0.2-1.8-0.5-3.7-0.7-5.5c-11.6,8.1-25,7.1-38.5,6.7
							c-15.1-0.5-30.1-1.1-45.2-2c-29.9-1.7-59.8-4.3-89.6-7.7c0,2,0,4,0,6c21.7-2.2,43.5-2.3,65.2-0.1c0-2,0-4,0-6
							c-72.9-1.1-145.4-10.1-216.2-27.3c-0.5,1.9-1.1,3.9-1.6,5.8c66.3,9.3,131.5,25.5,194.3,48.5c14.9,5.5,31.1,10.5,39.3,25.3
							c0.6-1.5,1.2-2.9,1.8-4.4c-26.8,3.9-54,2.9-80.2-3.8c-0.5,1.9-1.1,3.9-1.6,5.8c39.2,9.3,78.3,18.7,117.5,28
							c0.5-1.9,1.1-3.9,1.6-5.8c-71.1-10.3-140.9-28.4-208.1-54c-0.3,2-0.5,3.9-0.8,5.9c38.4-3.9,77.1,2,112.1,18.7
							c0.5-1.9,1-3.7,1.5-5.6c-28.2,0.8-56-4.7-81.4-17c-0.5,1.9-1,3.7-1.5,5.6c55.2-2.3,110.4,4,163.4,19.5
							c0.5-1.9,1.1-3.9,1.6-5.8c-34.6-8.3-69.3-16.7-103.9-25c-0.3,2-0.5,3.9-0.8,5.9c40.2-0.2,80,6.3,118,19.6
							c0.3-2,0.5-3.9,0.8-5.9c-73.9-2-147.7-7.4-221.1-16.5c0,2,0,4,0,6c59.2,6.7,117.9,17.8,175.4,33.5c0.3-2,0.5-3.9,0.8-5.9
							c-22.5,1.1-44.9-0.3-67.1-4.5c-3.8-0.7-5.3,4.6-1.6,5.8c71.5,22,143,44,214.5,65.9c0.5-1.9,1.1-3.9,1.6-5.8
							c-77.9-23.2-155.8-46.4-233.8-69.6c-22.4-6.7-44.7-13.3-67.1-20c-0.5,1.9-1.1,3.9-1.6,5.8c20.2,5.3,39.7,12.5,58.5,21.5
							c-0.2-1.6-0.4-3.1-0.6-4.7c-8.7,7.6-19.8,4.5-30,2.6c-12-2.1-24-4.3-36.1-6.4c-23.7-4.2-47.4-8.4-71.1-12.6
							c-3.8-0.7-5.2,4.4-1.6,5.8c53,19.8,104.9,42.3,155.5,67.4c0.5-1.9,1-3.7,1.5-5.6c-14.2,1.6-28.5,3.2-42.7,4.8
							c-3.1,0.3-4.4,5.2-0.8,5.9c38.7,7.7,77.5,15.4,116.2,23.1c0.5-1.9,1.1-3.9,1.6-5.8c-50.7-9.7-100.7-22.5-149.9-38.4
							c-0.3,2-0.5,3.9-0.8,5.9c66.5,6.4,132.4,18.6,196.8,36.6c18.2,5.1,36.3,10.7,54.2,16.7c0.3-2,0.5-3.9,0.8-5.9
							c-27.3,2.6-54.7-1.7-79.5-13.6c0.2,1.6,0.4,3.1,0.6,4.7c8.9-8.3,17.8-16.5,26.7-24.8c1.6-1.5,0.9-4.5-1.3-5
							c-81.3-17.4-162.5-34.7-243.8-52.1c-0.3,2-0.5,3.9-0.8,5.9c29.8,3,59.2,8.7,88,17.1c14.1,4.1,28.1,8.9,41.8,14.3
							c6.6,2.6,13.4,5.1,19.7,8.3c2.9,1.5,5.5,3.3,6.1,6.8c0.5,2.8-0.3,6.8-2.9,8.4c-2.1,1.3-1.9,4.9,0.7,5.5
							c26.9,5.9,54.4,0.4,80.9-4.9c2.8-0.6,2.9-5.3,0-5.8c-68.5-12-136.3-27.6-203.1-46.6c-0.3,2-0.5,3.9-0.8,5.9
							c47.1,0.6,94.2,4.5,140.4,14.1c0.3-2,0.5-3.9,0.8-5.9c-21.4-0.4-42.8-2.3-64-5.9c-0.3,2-0.5,3.9-0.8,5.9
							c9.7,1,18.8,3.9,27.2,8.8c0.2-1.8,0.5-3.7,0.7-5.5c-22.2,3.9-44.4,7.7-66.6,11.6c-2.9,0.5-2.8,5.2,0,5.8
							c58.8,11.3,117.6,22.6,176.5,33.9c-0.4-1.7-0.9-3.3-1.3-5c-4.5,5.3-9.9,9.4-17,10.5c-3,0.5-2.7,5.1,0,5.8
							c14.6,3.8,29.1,7.6,43.7,11.4c0.5-1.9,1.1-3.9,1.6-5.8C250.2,368.8,196,358.4,141.8,348c-3.9-0.7-5.1,4.3-1.6,5.8
							c58.6,24,117.3,48.2,172.3,79.9c0.8-1.8,1.5-3.7,2.3-5.5c-68.4-12.1-135.8-30-201.2-53.5c-0.5,1.9-1.1,3.9-1.6,5.8
							c14,3.6,27.9,7.2,41.9,10.7c3.8,1,5.2-4.5,1.6-5.8c-36.5-12.8-73.3-25.7-110.2-38.5c-0.3,2-0.5,3.9-0.8,5.9
							c56,5.1,111.2,16.6,164.5,34.4c0.5-1.9,1.1-3.9,1.6-5.8c-32.2-5-63.7-13.8-93.7-26.3c-0.3,2-0.5,3.9-0.8,5.9
							c38-1.1,75.8,2.8,112.7,12.1c3.7,0.9,5.3-4.8,1.6-5.8c-41-10.6-81.9-21.2-122.9-31.8c-0.3,2-0.5,3.9-0.8,5.9
							c26-2.7,46.5,15.8,68.1,27.1c24.9,13,53.1,15.4,80.7,17.5c3.9,0.3,3.7-5.5,0-6c-34.4-4.5-69-7.4-103.7-8.7
							c-2.8-0.1-4.3,4.4-1.5,5.6c14.1,6.1,28.3,12.1,42.4,18.2c6.9,3,13.8,5.9,20.7,8.9c3.6,1.5,7.2,3.1,10.8,4.6
							c2.4,1,10.5,3,9,6.7c0.7-0.7,1.4-1.4,2.1-2.1c-48.9,7.5-97.9,15-146.8,22.6c-1.3,0.2-2.1,1.7-2.2,2.9
							c-0.6,8.8,7.1,11.2,14.1,13.3c12,3.7,24,7.4,36,11c23.7,7.3,47.4,14.5,71.1,21.8c0.5-1.9,1.1-3.9,1.6-5.8
							c-49.2-10-96.3-27.9-139.9-52.8c0,1.7,0,3.5,0,5.2c9.5-6.8,20.1-11.7,31.9-12.1c3.9-0.1,3.9-5.9,0-6
							c-23-0.4-45.6-4.7-67.1-12.9c-0.3,2-0.5,3.9-0.8,5.9c79.7,0.3,159.3,6,238.1,17.4c3.7,0.5,5.4-4.8,1.6-5.8
							c-2.6-0.7-5.1-1.4-7.7-2.1c0,1.9,0,3.9,0,5.8c11.8-1.7,23.6-3.5,35.4-5.2c3.4-0.5,2.5-5.9-0.8-5.9
							c-23.9-0.1-47.7,0.7-71.5,2.5c-3.3,0.2-4.2,4.9-0.8,5.9c4.2,1.2,8.4,2.4,12.6,3.5c0.5-1.9,1.1-3.9,1.6-5.8
							c-39.2-7.4-78.6-13.9-118.1-19.3c-3-0.4-5.7,3.9-2.3,5.5c11.5,5.3,23,10.5,34.5,15.8c0.2-1.8,0.5-3.7,0.7-5.5
							c-26.2,4.5-52.9,5.9-79.4,3.7c-3.6-0.3-3.7,4.8-0.8,5.9c4.9,1.9,9.9,3.9,14.8,5.8c0.5-1.9,1.1-3.9,1.6-5.8
							c-35.8-7.2-71.6-14.3-107.4-21.5c-3.8-0.8-5.2,4.5-1.6,5.8c31.9,11.6,63.7,23.2,95.6,34.8c0.5-1.9,1.1-3.9,1.6-5.8
							c-39.1-9-78-19.2-116.6-30.4c-0.3,2-0.5,3.9-0.8,5.9c40.1,3.7,79.5,13.4,116.6,28.7c18.5,7.6,35.9,17.6,54.3,25.3
							c18.1,7.5,37.3,10.4,56.8,11.9c22.5,1.7,45.2,2.1,67.1,8c0.5-1.9,1.1-3.9,1.6-5.8c-44.2-8.1-87.9-18.8-130.9-32.1
							c-3.7-1.2-5.2,4.5-1.6,5.8c16.5,6.1,33,12.1,49.5,18.2c0.3-2,0.5-3.9,0.8-5.9c-36.9,4.2-74,0.8-109.2-11.2
							c-0.3,2-0.5,3.9-0.8,5.9c16.6-0.6,33.3-1.1,49.9-1.7c3.9-0.1,3.8-5.6,0-6c-17.2-1.7-33.3-8.5-46.8-19.3
							c-0.7,1.7-1.4,3.4-2.1,5.1c72.8-7.4,144.6,7.4,215.4,22.8c0.3-2,0.5-3.9,0.8-5.9c-37.2-1.7-73.9-8.9-109-21.4
							c0,1.9,0,3.9,0,5.8c25-5.2,50.8-3.5,74.4,6.5c0.5-1.9,1-3.7,1.5-5.6c-33.8,1.3-67.6,2.5-101.3,3.8c-3.9,0.1-3.9,5.9,0,6
							c19.6,0.6,38.6,4.7,56.7,12.3c0-1.9,0-3.9,0-5.8c-29.1,8.1-59,12.9-89.3,13.8c-4,0.1-3.7,5.5,0,6c15.4,1.9,30.9,3.8,46.3,5.7
							c0-2,0-4,0-6c-36.9,0.6-73.9-1.6-110.5-6.8c-3.7-0.5-5.4,4.6-1.6,5.8c70.7,22.9,142,46.4,205.3,86.4c0.8-1.8,1.5-3.7,2.3-5.5
							C202.5,543.1,145,530,87.6,517c-3.1-0.7-5.5,4-2.3,5.5c21.9,10.1,43.6,20.7,65.7,30.2c19.4,8.3,39.6,12.7,59.5,3.3
							c2.6-1.2,1.4-4.6-0.7-5.5c-27.7-10.9-55.5-21.7-83.2-32.6c0,1.9,0,3.9,0,5.8c30.3-4.3,61.1-4.5,91.3,0.1
							c3.7,0.6,5.4-5.1,1.6-5.8c-42.5-7.9-85.5-16-124.3-35.7c-0.5,1.9-1,3.7-1.5,5.6c11.2-1.4,22.4-2.8,33.6-4.2
							c3.8-0.5,3.9-5.7,0-6c-35.5-2.6-70.9-6.4-106.2-11.5c-0.3,2-0.5,3.9-0.8,5.9c34.2,1.3,68.1,6.4,101.2,15.4
							c0.3-2,0.5-3.9,0.8-5.9c-50.8,0.8-101.5-4.7-150.8-16.9c-3.8-0.9-5.3,4.7-1.6,5.8c63.6,19.3,126.6,40.6,188.8,64
							c17.9,6.7,35.8,13.6,53.6,20.7c0.5-1.9,1.1-3.9,1.6-5.8c-32.6-5.1-64.6-13.3-95.7-24.3c-0.5,1.9-1.1,3.9-1.6,5.8
							c30,5.2,58.8,15.3,85.5,29.9c0.5-1.9,1-3.7,1.5-5.6c-31-2.9-62-5.9-93-8.8c-3.1-0.3-3.9,4.2-1.5,5.6
							c17.1,10.3,35.3,18.5,54.3,24.4c3.7,1.2,5.2-4.5,1.6-5.8c-30.5-11.2-59.5-25.9-86.8-43.6c0.2,1.6,0.4,3.1,0.6,4.7
							c2.6-2.4,5.2-4.9,7.8-7.3c1.2-1.1,1.1-3.2,0-4.2c-3.2-3-5.1-6.4-6.5-10.5c-1.2-3.6-7-2.1-5.8,1.6c1.7,5,4.2,9.5,8,13.2
							c0-1.4,0-2.8,0-4.2c-2.6,2.4-5.2,4.9-7.8,7.3c-1.5,1.4-1,3.7,0.6,4.7c27.7,18,57.2,32.8,88.2,44.2c0.5-1.9,1.1-3.9,1.6-5.8
							c-18.6-5.8-36.2-13.8-52.8-23.8c-0.5,1.9-1,3.7-1.5,5.6c31,2.9,62,5.9,93,8.8c3,0.3,4-4.2,1.5-5.6
							c-27.2-14.8-56.4-25.1-86.9-30.5c-3.8-0.7-5.3,4.5-1.6,5.8c31.1,11.1,63.1,19.2,95.7,24.3c3.8,0.6,5.2-4.4,1.6-5.8
							C152.1,525,89.5,502.5,26.3,482c-18.2-5.9-36.4-11.6-54.7-17.2c-0.5,1.9-1.1,3.9-1.6,5.8c49.8,12.4,101.1,18,152.4,17.2
							c3.3-0.1,4.1-5,0.8-5.9c-33.6-9.1-68-14.2-102.8-15.6c-3.3-0.1-4.2,5.4-0.8,5.9c35.8,5.1,71.7,9,107.8,11.7c0-2,0-4,0-6
							c-11.2,1.4-22.4,2.8-33.6,4.2c-2.6,0.3-4.5,4.1-1.5,5.6c39.3,20,82.8,28.3,125.8,36.3c0.5-1.9,1.1-3.9,1.6-5.8
							c-31.4-4.8-63.1-4.7-94.5-0.1c-3.3,0.5-2.4,4.9,0,5.8c27.7,10.9,55.5,21.7,83.2,32.6c-0.2-1.8-0.5-3.7-0.7-5.5
							c-20.1,9.5-40.8,2.6-59.8-6.1c-19.8-9-39.6-18.2-59.4-27.4c-0.8,1.8-1.5,3.7-2.3,5.5c57.4,13.1,114.8,26.2,172.3,39.2
							c3.3,0.8,5.2-3.6,2.3-5.5c-63.7-40.2-135.6-63.9-206.8-87c-0.5,1.9-1.1,3.9-1.6,5.8c37.1,5.3,74.6,7.6,112.1,7.1
							c4-0.1,3.7-5.5,0-6c-15.4-1.9-30.9-3.8-46.3-5.7c0,2,0,4,0,6c30.8-0.9,61.2-5.8,90.9-14c3.1-0.9,2.6-4.7,0-5.8
							c-18.5-7.8-38.2-11.9-58.3-12.5c0,2,0,4,0,6c33.8-1.3,67.6-2.5,101.3-3.8c2.7-0.1,4.4-4.3,1.5-5.6
							c-25.2-10.7-52.3-12.7-79-7.1c-3.1,0.7-2.6,4.9,0,5.8c35.6,12.7,72.9,19.8,110.6,21.6c3.3,0.2,4.1-5.2,0.8-5.9
							c-71.3-15.5-143.7-30.4-217-23c-2.3,0.2-4.4,3.3-2.1,5.1c14.9,11.9,32.1,19.1,51,21c0-2,0-4,0-6c-16.6,0.6-33.3,1.1-49.9,1.7
							c-3.4,0.1-4,4.8-0.8,5.9c35.6,12.1,73.5,15.7,110.8,11.4c3.3-0.4,4.1-4.7,0.8-5.9c-16.5-6.1-33-12.1-49.5-18.2
							c-0.5,1.9-1.1,3.9-1.6,5.8c42.9,13.3,86.6,24,130.9,32.1c3.7,0.7,5.4-4.8,1.6-5.8c-39.2-10.7-81-3.7-119.1-18.1
							c-19-7.1-36.6-17.7-55.3-25.6c-18-7.6-36.5-14-55.4-18.9c-21.9-5.7-44.3-9.6-66.9-11.7c-3.4-0.3-4,5-0.8,5.9
							c38.6,11.2,77.5,21.3,116.6,30.4c3.8,0.9,5.2-4.5,1.6-5.8c-31.9-11.6-63.7-23.2-95.6-34.8c-0.5,1.9-1.1,3.9-1.6,5.8
							c35.8,7.2,71.6,14.3,107.4,21.5c3.8,0.8,5.2-4.4,1.6-5.8c-4.9-1.9-9.9-3.9-14.8-5.8c-0.3,2-0.5,3.9-0.8,5.9
							c27.1,2.2,54.2,0.7,81-3.9c2.5-0.4,3-4.4,0.7-5.5c-11.5-5.3-23-10.5-34.5-15.8c-0.8,1.8-1.5,3.7-2.3,5.5
							c39.5,5.5,78.9,11.9,118.1,19.3c3.7,0.7,5.4-4.7,1.6-5.8c-4.2-1.2-8.4-2.4-12.6-3.5c-0.3,2-0.5,3.9-0.8,5.9
							c23.8-1.8,47.6-2.7,71.5-2.5c-0.3-2-0.5-3.9-0.8-5.9c-11.8,1.7-23.6,3.5-35.4,5.2c-3,0.4-2.7,5.1,0,5.8
							c2.6,0.7,5.1,1.4,7.7,2.1c0.5-1.9,1.1-3.9,1.6-5.8c-79.4-11.5-159.5-17.3-239.7-17.6c-3.6,0-3.8,4.7-0.8,5.9
							c22,8.4,45.2,12.8,68.7,13.2c0-2,0-4,0-6c-12.8,0.5-24.6,5.4-35,12.9c-1.8,1.3-2.1,4,0,5.2c44,25.2,91.6,43.3,141.3,53.4
							c3.8,0.8,5.3-4.6,1.6-5.8c-20.5-6.3-41.1-12.6-61.6-18.9c-10.1-3.1-20.2-6.2-30.3-9.3c-5.1-1.5-10.1-3.1-15.2-4.6
							c-4.2-1.3-10-2-9.7-7.6c-0.7,1-1.5,1.9-2.2,2.9c48.9-7.5,97.9-15,146.8-22.6c1.1-0.2,1.7-1.2,2.1-2.1
							c2.5-6.5-3.1-9.8-8.2-11.9c-8.7-3.7-17.4-7.5-26.2-11.2c-17.1-7.4-34.3-14.7-51.4-22.1c-0.5,1.9-1,3.7-1.5,5.6
							c34.7,1.3,69.3,4.2,103.7,8.7c0-2,0-4,0-6c-28.8-2.2-57.4-5.1-83.1-19.6c-20.5-11.6-40.8-27.5-65.8-24.9
							c-3.2,0.3-4.3,5-0.8,5.9c41,10.6,81.9,21.2,122.9,31.8c0.5-1.9,1.1-3.9,1.6-5.8C192.8,358,154.3,354,115.8,355
							c-3.6,0.1-3.8,4.6-0.8,5.9c30.1,12.5,61.5,21.3,93.7,26.3c3.8,0.6,5.3-4.5,1.6-5.8c-53.6-18-109.3-29.5-165.8-34.6
							c-3.5-0.3-3.8,4.8-0.8,5.9c36.9,12.9,73.7,25.7,110.6,38.6c0.5-1.9,1.1-3.9,1.6-5.8c-14-3.6-27.9-7.2-41.9-10.7
							c-3.8-1-5.2,4.5-1.6,5.8c65.4,23.5,132.7,41.4,201.2,53.5c3.2,0.6,5.4-3.7,2.3-5.5c-55.4-32-114.6-56.4-173.7-80.6
							c-0.5,1.9-1.1,3.9-1.6,5.8c54.2,10.4,108.4,20.8,162.6,31.2c3.7,0.7,5.4-4.8,1.6-5.8c-14.6-3.8-29.1-7.6-43.7-11.4
							c0,1.9,0,3.9,0,5.8c7.9-1.3,14.5-6.1,19.6-12.1c1.3-1.6,1.1-4.6-1.3-5c-58.8-11.3-117.6-22.6-176.5-33.9c0,1.9,0,3.9,0,5.8
							c22.2-3.9,44.4-7.7,66.6-11.6c2.6-0.5,2.8-4.3,0.7-5.5c-9.4-5.4-19.5-8.5-30.3-9.6c-3.3-0.3-4.1,5.3-0.8,5.9
							c21.7,3.7,43.6,5.7,65.6,6.1c3.3,0.1,4.2-5.2,0.8-5.9c-46.7-9.7-94.3-13.7-142-14.3c-3.4,0-4,5-0.8,5.9
							c66.9,19,134.7,34.5,203.1,46.6c0-1.9,0-3.9,0-5.8c-25.4,5.1-51.9,10.6-77.7,4.9c0.2,1.8,0.5,3.7,0.7,5.5
							c4.6-2.8,6.5-8.8,5.8-14c-0.7-5.7-4.7-9.4-9.6-11.8c-15.5-7.5-32-13.3-48.3-18.6C103,295.1,68.2,288,33,284.4
							c-3.4-0.3-4.1,5.2-0.8,5.9c81.3,17.4,162.5,34.7,243.8,52.1c-0.4-1.7-0.9-3.3-1.3-5c-8.9,8.3-17.8,16.5-26.7,24.8
							c-1.3,1.2-1.1,3.9,0.6,4.7c25.8,12.4,54.1,17.1,82.5,14.4c3.3-0.3,4.1-4.8,0.8-5.9c-63.8-21.3-129.4-37-195.9-46.7
							c-18.8-2.7-37.7-5-56.6-6.8c-3.5-0.3-3.9,4.9-0.8,5.9c49.1,15.9,99.2,28.7,149.9,38.4c3.8,0.7,5.4-5,1.6-5.8
							c-38.7-7.7-77.5-15.4-116.2-23.1c-0.3,2-0.5,3.9-0.8,5.9c14.2-1.6,28.5-3.2,42.7-4.8c2.6-0.3,4.5-4.1,1.5-5.6
							c-51.1-25.3-103.5-48-157-68c-0.5,1.9-1.1,3.9-1.6,5.8c26.3,4.7,52.6,9.3,78.9,14c12.7,2.3,25.4,4.7,38.1,6.8
							c9.6,1.5,18.4,0.7,26-5.9c1.4-1.2,1.1-3.9-0.6-4.7c-19.4-9.4-39.4-16.8-60.1-22.2c-3.7-1-5.3,4.7-1.6,5.8
							c77.9,23.2,155.8,46.4,233.8,69.6c22.4,6.7,44.7,13.3,67.1,20c3.7,1.1,5.3-4.7,1.6-5.8c-71.5-22-143-44-214.5-65.9
							c-0.5,1.9-1.1,3.9-1.6,5.8c22.6,4.3,45.6,5.8,68.7,4.7c3.3-0.2,4.2-5,0.8-5.9c-58-15.8-117.2-27-176.9-33.7
							c-3.8-0.4-3.8,5.5,0,6c73.4,9.1,147.2,14.5,221.1,16.5c3.5,0.1,3.9-4.8,0.8-5.9c-38.4-13.4-78.9-19.9-119.6-19.8
							c-3.3,0-4.1,5.1-0.8,5.9c34.6,8.3,69.3,16.7,103.9,25c3.8,0.9,5.3-4.7,1.6-5.8c-53.5-15.7-109.3-22.1-165-19.7
							c-2.8,0.1-4.4,4.2-1.5,5.6c26.4,12.7,55.2,18.7,84.5,17.8c2.8-0.1,4.3-4.2,1.5-5.6c-35.9-17.1-75.6-23.5-115.1-19.5
							c-3.4,0.3-4,4.7-0.8,5.9c67.1,25.6,136.9,43.7,208.1,54c3.7,0.5,5.5-4.9,1.6-5.8c-39.2-9.3-78.3-18.7-117.5-28
							c-3.8-0.9-5.3,4.8-1.6,5.8c27.4,6.9,55.5,7.8,83.4,3.8c2-0.3,2.6-2.9,1.8-4.4c-6.4-11.7-17.3-18.1-29.3-22.9
							c-15.5-6.2-31.4-11.6-47.4-16.7c-33.4-10.8-67.5-19.7-101.9-26.8c-19.4-4-39-7.3-58.6-10.1c-3.7-0.5-5.5,4.8-1.6,5.8
							c71.3,17.4,144.5,26.4,217.8,27.5c3.9,0.1,3.8-5.6,0-6c-21.7-2.2-43.5-2-65.2,0.1c-3.9,0.4-3.8,5.6,0,6
							c31.1,3.5,62.3,6.2,93.5,7.9c15.7,0.9,31.4,1.5,47.2,1.9c12.7,0.3,24.9-0.2,35.6-7.7c2.1-1.4,1.9-4.7-0.7-5.5
							c-63.7-18.4-129.9-27.1-196.2-26.3c0,2,0,4,0,6c8.1-0.8,16.2-1.5,24.3-2.3c3.1-0.3,4.3-5.1,0.8-5.9
							c-36.8-8.3-73.9-15.6-111.1-21.7c-36.6-6-73.5-11.5-110.5-14.6c-20.1-1.7-40.2-1.2-59.5,5c-2.8,0.9-2.9,4.9,0,5.8
							c85.6,26.2,173.4,45.2,262.2,56.9c25.3,3.3,50.6,6,76.1,8.2c3.9,0.3,3.7-5.5,0-6c-53.3-6.7-106.6-13.5-159.9-20.2c0,2,0,4,0,6
							c67.1-3.8,134.4-7.9,200.5-20.8c3.1-0.6,2.6-4.9,0-5.8c-35.9-11.4-73.9-12.3-110.6-4.7c-3.1,0.6-2.6,4.9,0,5.8
							c41.5,14.7,85.8,20,129.6,16.6c2.3-0.2,4.4-3.4,2.1-5.1c-26.2-20.5-60.6-26.6-92.3-33.8c-36-8.2-72.2-14.9-108.7-20.2
							c-20.7-3-41.4-5.6-62.2-7.7c-3.4-0.3-4,5.1-0.8,5.9c73.5,18.1,147.8,33.3,222.5,45.3c21.2,3.4,42.4,6.5,63.6,9.4
							c0.3-2,0.5-3.9,0.8-5.9c-59.8-7.3-120-9.9-180.2-8c-3.3,0.1-4.2,5.1-0.8,5.9c73,15.9,147.3,25.9,221.9,30.1
							c3.3,0.2,4.1-5.2,0.8-5.9c-73.8-14.4-148.5-24-223.6-28.9c-3.9-0.3-3.7,5.5,0,6c15.3,1.9,30.3-1.3,44.2-7.7
							c2.5-1.1,1.5-4.8-0.7-5.5C120.7,179.9,75,165.5,29.2,151c-0.3,2-0.5,3.9-0.8,5.9c60,3.5,120.1,6.7,180,0.6
							c3.2-0.3,4.3-4.9,0.8-5.9c-37.1-10.1-75.6-13.5-114-10.7c-3.2,0.2-4.3,5-0.8,5.9c45.5,11.1,92.3,16.4,139.1,16.3
							c3.4,0,4.1-5,0.8-5.9c-59.7-15.5-121.4-22.7-183-22c-3.3,0-4.2,5.2-0.8,5.9c19,3.8,38.1,4,57.2,1.2c3.1-0.5,2.5-5,0-5.8
							c-55.1-18.1-110.6-33.6-166.6-47c-0.3,2-0.5,3.9-0.8,5.9c101.7,12,203.5,24,305.8,28c29.2,1.1,58.4,1.6,87.6,1.2
							c3.9,0,3.8-5.6,0-6c-63.2-6.1-126.9-11.6-190-1.5c-3.2,0.5-2.5,4.9,0,5.8c49.8,17.6,103.1,21.3,155.1,13.2
							c2.9-0.4,2.5-4.1,0.7-5.5c-12-9.1-27.4-10.6-41.9-12.8c-16.8-2.6-33.6-5-50.5-7.2c-34.5-4.6-69.2-8.5-103.9-11.8
							C83.5,97,63.8,95.3,44,93.9c-3.4-0.2-4,5-0.8,5.9c53.8,14.8,109.4,20.7,165,18.2c3.4-0.2,4.1-4.9,0.8-5.9
							c-35.7-11.2-72.9-17-110.3-17.5c-3.9-0.1-3.8,5.8,0,6c68.2,4,136.6-0.7,203.8-13c2.9-0.5,2.9-5.3,0-5.8
							c-54.5-9.9-110-12.2-165.3-14.5c-3.9-0.2-3.8,5.8,0,6c52.6,3.2,105.3,2.8,157.9-0.8c3.1-0.2,4.4-5.4,0.8-5.9
							c-63.7-8.9-128.2-10.8-192.4-6.1c-3.9,0.3-3.8,5.6,0,6c42,4.7,84.2,6.3,126.4,5.1c3.9-0.1,3.9-6,0-6
							c-24.5,0.2-49.1,0.5-73.6,0.7c-3.9,0-3.9,6,0,6c26.2,0.2,52.3-3.4,77.6-10.1c2.1-0.6,3-3.5,1.3-5
							c-9.2-8.3-20.6-12.4-32.7-14.8c-14.4-2.9-29.1-4.9-43.6-7c-30.2-4.3-60.5-7.7-90.8-10.1c-3.9-0.3-3.8,5.7,0,6
							c66,5.5,132.4,6.5,198.6,3.4c3.3-0.2,4.2-5.1,0.8-5.9c-48.6-11.7-98.5-16-148.3-13.3c-3.9,0.2-3.9,5.8,0,6
							c33.4,1.7,66.9,0.9,100.3-2.2c3.8-0.4,3.9-5.9,0-6c-37.6-1.2-75.2-2.3-112.8-3.5c-3.9-0.1-3.8,5.6,0,6
							c49.2,4.7,98.6,6.4,148,5.3c3.6-0.1,3.8-4.7,0.8-5.9C221.7,1.8,186-5.6,149.8-7.2c-3.9-0.2-3.8,5.6,0,6
							c60,6.6,120.4,8.5,180.7,6c3.2-0.1,4.3-5.2,0.8-5.9c-69.9-14.3-139.8-28.5-209.8-42.7c-19.8-4-39.7-8.1-59.5-12.1
							C58.3-56.7,56.6-50.9,60.4-50.2L60.4-50.2z"/>
					</g>
				</g>
			</g>
		</g>
	</g>
</g>
<g>
	<g>
		<g>
			<g>
				<defs>
					<rect id="SVGID_3_" x="415.4" y="229.7" width="90.1" height="272.3"/>
				</defs>
				<clipPath id="SVGID_4_">
					<use xlink:href="#SVGID_3_"  style="overflow:visible;"/>
				</clipPath>
				<g class="st2">
					<g>
						<path class="st1" d="M383.6,84.8c69.2,12.8,138.4,25.7,207.6,38.5c0.3-2,0.5-3.9,0.8-5.9c-46.5,3.5-93.1,3.4-139.6-0.6
							c0,2,0,4,0,6c27.5,0.5,54.5,5.7,80.1,15.6c0.3-2,0.5-3.9,0.8-5.9c-38.1,2.1-76.3,1.8-114.3-0.8c0,2,0,4,0,6
							c29,0.1,58.1,0.2,87.1,0.2c0-2,0-4,0-6c-25.7,3.3-51.6,4.8-77.5,4.2c0,2,0,4,0,6c37.9-3.3,75.9-1.1,113,7.3
							c0.3-2,0.5-3.9,0.8-5.9c-51,4.1-102.3,4.9-153.4,1.9c0,2,0,4,0,6c22,1.2,43.9,3,65.8,5.6c10.8,1.3,21.5,2.6,32.2,4.3
							c9.9,1.5,19.6,3.8,27.2,10.7c0.4-1.7,0.9-3.3,1.3-5c-19.1,5.9-38.6,9.4-58.6,9.9c0,2,0,4,0,6c19-0.8,37.9-1.6,56.9-2.3
							c0-2,0-4,0-6c-32.5,2-65.1,1.6-97.6-1.2c0,2,0,4,0,6c49.2-5.3,98.8-5.4,148,0.4c0-2,0-4,0-6c-40.5,4.2-81.3,5.7-122,4.4
							c0,2,0,4,0,6c42.1,0.5,84.5,1,126.2,7.8c0-1.9,0-3.9,0-5.8c-51.2,11.4-103.6,16.9-156.1,15.2c0,2,0,4,0,6
							c28.4-0.4,56.5,3.3,83.7,11.5c0.3-2,0.5-3.9,0.8-5.9c-42.3,3.3-84.7-0.1-125.8-10.9c-0.3,2-0.5,3.9-0.8,5.9
							c33.6,1.5,67.1,3.9,100.6,7.2c16.3,1.6,32.6,3.4,48.9,5.4c8.4,1,16.9,2,25.3,3.3c7.1,1.1,13.8,2.9,19.6,7.4
							c0.2-1.8,0.5-3.7,0.7-5.5c-39,7.6-79.2,5.8-116.9-7.2c0,1.9,0,3.9,0,5.8c48-9.6,96.9-6.6,145.4-3.1c0-2,0-4,0-6
							c-79.2,3.4-158.3-1.5-237.2-8.4c-22.2-2-44.4-4.1-66.6-6.2c-3.4-0.3-4.1,5.2-0.8,5.9c43.2,9.7,86,21.1,128.2,34.3
							c0-1.9,0-3.9,0-5.8c-13.7,2.5-27.6,2.8-41.4,0.3c-0.3,2-0.5,3.9-0.8,5.9c47-2,94.1,2.3,139.9,13.5c0.3-2,0.5-3.9,0.8-5.9
							c-35.6,1.2-71.2-2-106-9.9c-0.3,2-0.5,3.9-0.8,5.9c29-3.1,58.2-1.4,86.6,5.9c0-1.9,0-3.9,0-5.8c-45.9,6.3-92.2,5.1-138.3,3.6
							c-3.5-0.1-4,4.9-0.8,5.9c35.3,10.8,70.5,21.5,105.8,32.3c-0.2-1.8-0.5-3.7-0.7-5.5c-9.9,5-20.4,7.7-31.5,6.6c0,2,0,4,0,6
							c57.4,2.2,114.6,8.2,171.1,18.2c0.3-2,0.5-3.9,0.8-5.9c-57-1.7-113.9-8-169.8-19.2c-0.3,2-0.5,3.9-0.8,5.9
							c46.4-2.9,92.9-2.2,139.2,2.4c3.9,0.4,3.8-5.6,0-6c-73.9-8.5-147.4-21.2-219.9-37.9c-0.3,2-0.5,3.9-0.8,5.9
							c35.2,2.7,70.3,7.2,105,13.6c16.8,3.1,33.5,6.6,50.2,10.6c15.6,3.7,31.2,8.4,44,18.6c0.7-1.7,1.4-3.4,2.1-5.1
							c-33.3,3.8-66.9,0.6-98.6-10.3c0,1.9,0,3.9,0,5.8c27.3-6.8,55.6-7,82.6,1.3c0-1.9,0-3.9,0-5.8c-50.5,12-102.1,16.9-153.6,21.5
							c-3.9,0.3-3.8,5.6,0,6c41.1,4.3,82.3,8.5,123.4,12.8c0-2,0-4,0-6c-68.6-4.1-136.8-14.1-203.6-30.2
							c-18.7-4.5-37.3-9.5-55.8-14.9c0,1.9,0,3.9,0,5.8c16.9-6.2,34.4-6.1,52.1-4.7c18,1.5,36,3.4,53.9,5.6
							c36.3,4.5,72.3,10.6,108.1,18.1c0.3-2,0.5-3.9,0.8-5.9c-6.3,0.8-12.5,1.6-18.8,2.4c-3.7,0.5-4,6.2,0,6
							c50.6-2.1,101.1,3.3,150,16.8c-0.2-1.8-0.5-3.7-0.7-5.5c-8.5,6.4-18.1,6.4-28.3,6.4c-11.9,0-23.7-0.2-35.6-0.5
							c-23.2-0.7-46.4-2.1-69.6-4.2c0.3,2,0.5,3.9,0.8,5.9c16.4-2.2,33-2.8,49.6-1.5c0-2,0-4,0-6c-56.1,0.8-112-4.8-166.7-17.2
							c-0.3,2-0.5,3.9-0.8,5.9c32.9,3.9,65.4,10.2,97.4,18.8c15.7,4.3,31.3,9.1,46.7,14.4c12.9,4.5,27.8,8.2,34.7,21.2
							c0.6-1.5,1.2-2.9,1.8-4.4c-20.5,3.8-41.3,3.6-61.6-1.2c-0.5,1.9-1.1,3.9-1.6,5.8c30.2,6.7,60.4,13.4,90.6,20.2
							c0.3-2,0.5-3.9,0.8-5.9c-54.5-6.7-108.1-19.9-159.6-39.2c0,1.9,0,3.9,0,5.8c29.1-4,58.7,0,85.3,12.7c0.5-1.9,1-3.7,1.5-5.6
							c-21.6,1.3-42.9-2.5-62.4-11.9c-0.5,1.9-1,3.7-1.5,5.6c42.4-3.2,85,0.6,125.9,12.1c0.5-1.9,1.1-3.9,1.6-5.8
							c-26.7-6-53.4-12-80.1-18c-0.3,2-0.5,3.9-0.8,5.9c30.9-1,61.6,3.2,90.9,13.2c0.3-2,0.5-3.9,0.8-5.9c-57,0.1-114-2.6-170.7-8.3
							c0,2,0,4,0,6c45.6,4.1,90.7,11.8,135.1,23.2c0.3-2,0.5-3.9,0.8-5.9c-17.3,1.4-34.5,0.9-51.6-2c-3.7-0.6-5.4,4.7-1.6,5.8
							c55.1,16.3,110.2,32.6,165.2,48.9c0.5-1.9,1.1-3.9,1.6-5.8C552.2,380,474.9,358,397.6,335.9c-0.5,1.9-1.1,3.9-1.6,5.8
							c15.5,3.9,30.5,9.3,44.9,16.2c-0.2-1.6-0.4-3.1-0.6-4.7c-6.5,6.1-14.5,4.1-22.4,2.8c-9.2-1.5-18.4-2.9-27.6-4.4
							c-18.4-2.9-36.8-5.8-55.2-8.7c-3.8-0.6-5.3,4.4-1.6,5.8c40.8,14.9,80.6,32.1,119.5,51.4c0.2-1.8,0.5-3.7,0.7-5.5
							c-11,1.7-22,3.3-33,5c-2.9,0.4-2.8,5.3,0,5.8c29.9,5.4,59.8,10.8,89.6,16.1c0.5-1.9,1.1-3.9,1.6-5.8
							c-39.1-6.7-77.7-16-115.5-27.9c-0.3,2-0.5,3.9-0.8,5.9c65.7,4.7,130.7,17.3,193.4,37.7c0.3-2,0.5-3.9,0.8-5.9
							c-20.9,2.7-41.9,0-61-9.1c0.2,1.6,0.4,3.1,0.6,4.7c6.9-7,13.9-13.9,20.8-20.9c1.5-1.5,0.9-4.6-1.3-5
							c-62.7-12.3-125.3-24.6-188-36.9c-0.3,2-0.5,3.9-0.8,5.9c22.6,1.8,45.1,5.6,66.9,11.7c10.6,2.9,21,6.3,31.3,10.3
							c5.3,2,10.8,4.1,16,6.6c2.2,1.1,4.5,2.3,5,4.9c0.4,2.1-0.1,5.5-1.9,6.8c-1.9,1.4-2,4.9,0.7,5.5c21.1,4.2,42.4-0.9,62.9-5.9
							c2.7-0.7,3-5.3,0-5.8c-52.8-8.3-105.1-19.4-156.6-33.3c-0.3,2-0.5,3.9-0.8,5.9c36.2-0.6,72.5,1.4,108.2,8.2
							c0.3-2,0.5-3.9,0.8-5.9c-16.5,0.2-32.9-0.8-49.2-3.3c-0.3,2-0.5,3.9-0.8,5.9c7.4,0.6,14.2,2.7,20.6,6.4
							c0.2-1.8,0.5-3.7,0.7-5.5c-17.2,3.7-34.4,7.4-51.5,11.1c-2.8,0.6-2.9,5.3,0,5.8c45.4,7.9,90.7,15.7,136.1,23.6
							c-0.4-1.7-0.9-3.3-1.3-5c-3.4,4.3-7.4,7.8-12.9,8.9c-2.9,0.6-2.8,5.1,0,5.8c11.2,2.8,22.5,5.6,33.7,8.3
							c0.5-1.9,1.1-3.9,1.6-5.8c-41.8-7.2-83.6-14.5-125.4-21.7c-3.8-0.7-5.2,4.3-1.6,5.8c45.1,18.3,90.2,36.7,132.4,61.3
							c0.8-1.8,1.5-3.7,2.3-5.5c-52.8-8.3-104.7-21.3-155.1-39c-0.5,1.9-1.1,3.9-1.6,5.8c10.8,2.6,21.5,5.2,32.3,7.8
							c3.8,0.9,5.2-4.5,1.6-5.8c-28.4-9.7-56.8-19.3-85.2-29c-0.3,2-0.5,3.9-0.8,5.9c43.1,2.9,85.6,10.9,126.7,24.2
							c0.3-2,0.5-3.9,0.8-5.9c-24.6-3.3-48.5-9.8-71.4-19.2c-0.3,2-0.5,3.9-0.8,5.9c29.2-1.7,58.3,0.5,86.8,7.2
							c3.8,0.9,5.4-4.9,1.6-5.8c-31.6-7.7-63.2-15.4-94.7-23.2c0,1.9,0,3.9,0,5.8c19.7-2.7,35.5,12.4,51.8,20.8
							c19.2,9.9,40.9,11.2,62.1,12.2c3.9,0.2,3.8-5.6,0-6c-26.6-2.9-53.3-4.5-80.1-4.7c-2.8,0-4.4,4.4-1.5,5.6
							c10.7,4.6,21.4,9.1,32.1,13.7c5.2,2.2,10.4,4.4,15.6,6.6c2.4,1,16.7,5.5,15.7,8.5c0.7-0.7,1.4-1.4,2.1-2.1
							c-37.9,7.3-75.7,14.6-113.6,21.9c-1.3,0.3-2.1,1.6-2.2,2.9c-0.3,6.4,4.1,9,9.6,10.7c9.2,2.8,18.5,5.5,27.8,8.2
							c18.8,5.6,37.7,11.1,56.5,16.7c0.5-1.9,1.1-3.9,1.6-5.8c-37.9-7.1-74.2-20.6-107.5-39.9c0.2,1.6,0.4,3.1,0.6,4.7
							c6.9-5.4,14.9-9.5,23.8-10.1c3.8-0.3,3.9-6,0-6c-17.7,0.2-35-2.7-51.6-9c-0.3,2-0.5,3.9-0.8,5.9c61.6-1.6,123.3,1.2,184.5,8.7
							c3.4,0.4,4-5.1,0.8-5.9c-2-0.5-4-1-6-1.5c0,1.9,0,3.9,0,5.8c9.1-1.7,18.3-3.4,27.4-5.1c3.3-0.6,2.5-6-0.8-5.9
							c-18.5,0.4-36.9,1.7-55.3,3.7c-3.2,0.3-4.3,5-0.8,5.9c3.2,0.9,6.4,1.7,9.7,2.6c0.5-1.9,1.1-3.9,1.6-5.8
							c-30.5-5.2-61.2-9.6-91.9-13.2c-2.9-0.3-4.2,4.4-1.5,5.6c8.9,4,17.7,8.1,26.6,12.1c0.2-1.8,0.5-3.7,0.7-5.5
							c-20.1,4.3-40.6,6-61.2,4.9c-3.6-0.2-3.7,4.8-0.8,5.9c3.8,1.5,7.6,2.9,11.4,4.4c0.5-1.9,1.1-3.9,1.6-5.8
							c-27.6-5-55.2-10-82.8-15c-3.8-0.7-5.3,4.5-1.6,5.8c24.5,8.7,49.1,17.5,73.6,26.2c0.5-1.9,1.1-3.9,1.6-5.8
							c-30.2-6.5-60.1-13.8-89.9-22.1c-0.3,2-0.5,3.9-0.8,5.9c30.8,2.1,61.2,9,89.9,20.8c14.2,5.8,27.4,13.5,41.6,19.3
							c13.8,5.7,28.4,7.6,43.2,8.4c17.5,0.9,35.2,0.6,52.4,5c0.5-1.9,1.1-3.9,1.6-5.8c-34.1-5.6-67.8-13.3-100.9-23.2
							c-3.7-1.1-5.2,4.5-1.6,5.8c12.7,4.6,25.4,9.1,38.1,13.7c0-1.9,0-3.9,0-5.8c-28,4.2-56.4,2.2-83.3-6.7c-0.3,2-0.5,3.9-0.8,5.9
							c12.9-0.9,25.7-1.7,38.6-2.6c3.9-0.3,3.8-5.7,0-6c-13.2-1-25.3-6.1-35.5-14.4c-0.4,1.7-0.9,3.3-1.3,5
							c55.6-7.6,110.9,2.8,165.3,13.7c0.3-2,0.5-3.9,0.8-5.9c-28.6-0.6-56.8-5.5-83.9-14.9c0,1.9,0,3.9,0,5.8
							c19.4-4.8,39.1-4,57.6,3.8c0.3-2,0.5-3.9,0.8-5.9c-26.1,1.8-52.2,3.7-78.3,5.5c-3.8,0.3-3.9,6,0,6c15,0.1,29.6,3,43.5,8.7
							c0-1.9,0-3.9,0-5.8c-22.4,7.2-45.4,11.9-68.9,13.4c-3.9,0.2-3.8,5.6,0,6c11.9,1.2,23.8,2.4,35.7,3.5c0-2,0-4,0-6
							c-28.7,1.3-57.4,0.4-85.9-3.1c-3.5-0.4-3.9,4.9-0.8,5.9c54.5,17.1,109.4,34.7,157.9,65.8c0.8-1.8,1.5-3.7,2.3-5.5
							c-44.3-9.4-88.5-18.7-132.8-28.1c-3.1-0.7-5.6,4-2.3,5.5c17.1,7.9,34.1,16.2,51.5,23.5c15.2,6.4,30.6,8.9,45.7,1
							c2.5-1.3,1.5-4.6-0.7-5.5c-21.4-8.2-42.7-16.5-64.1-24.7c0,1.9,0,3.9,0,5.8c23.5-4.3,47.3-5.1,71-2c3.3,0.4,4.1-5.3,0.8-5.9
							c-32.7-5.4-65.8-11.1-95.6-26.2c-0.2,1.8-0.5,3.7-0.7,5.5c8.7-1.4,17.3-2.8,26-4.2c3.5-0.6,2.4-5.7-0.8-5.9
							c-27.6-1.3-55.1-3.7-82.6-7c0,2,0,4,0,6c26.3,0.3,52.4,3.6,77.9,10.2c0.3-2,0.5-3.9,0.8-5.9c-39.1,1.9-78.1-1.4-116.2-10.3
							c-3.8-0.9-5.3,4.7-1.6,5.8c63.1,18.4,125.4,39.7,186.7,63.6c0.5-1.9,1.1-3.9,1.6-5.8c-25.1-3.5-49.8-9.3-73.8-17.7
							c-0.5,1.9-1.1,3.9-1.6,5.8c23.1,3.6,45.2,11.1,65.7,22.3c0.5-1.9,1-3.7,1.5-5.6c-23.9-1.7-47.9-3.3-71.8-5
							c-3.1-0.2-3.9,4.1-1.5,5.6c13.2,8,27.2,14.3,41.9,18.8c3.7,1.1,5.2-4.5,1.6-5.8c-23.5-8.4-45.7-19.8-66.6-33.5
							c0.2,1.6,0.4,3.1,0.6,4.7c2-2.1,4.1-4.1,6.1-6.2c1.1-1.1,1.2-3.1,0-4.2c-2.4-2.4-3.7-5-4.8-8.2c-1.2-3.7-7-2.1-5.8,1.6
							c1.3,4.1,3.2,7.8,6.3,10.8c0-1.4,0-2.8,0-4.2c-2,2.1-4.1,4.1-6.1,6.2c-1.4,1.4-1,3.7,0.6,4.7c21.2,14.1,44,25.5,68,34.2
							c0.5-1.9,1.1-3.9,1.6-5.8c-14.3-4.3-27.8-10.4-40.5-18.2c-0.5,1.9-1,3.7-1.5,5.6c23.9,1.7,47.9,3.3,71.8,5
							c3,0.2,4-4.2,1.5-5.6c-20.9-11.5-43.5-19.3-67.1-23c-3.8-0.6-5.3,4.5-1.6,5.8c24,8.3,48.6,14.2,73.8,17.7
							c3.8,0.5,5.3-4.4,1.6-5.8c-61.3-23.9-123.6-45.1-186.7-63.6c-0.5,1.9-1.1,3.9-1.6,5.8c38.6,9,78.2,12.4,117.8,10.5
							c3.3-0.2,4.2-5,0.8-5.9c-26-6.7-52.7-10.1-79.5-10.4c-4,0-3.7,5.6,0,6c27.4,3.3,55,5.6,82.6,7c-0.3-2-0.5-3.9-0.8-5.9
							c-8.7,1.4-17.3,2.8-26,4.2c-2.5,0.4-2.9,4.4-0.7,5.5c30.3,15.4,63.8,21.3,97.1,26.8c0.3-2,0.5-3.9,0.8-5.9
							c-24.2-3.2-48.6-2.2-72.6,2.2c-3.2,0.6-2.5,4.8,0,5.8c21.4,8.2,42.7,16.5,64.1,24.7c-0.2-1.8-0.5-3.7-0.7-5.5
							c-15.4,8.1-30.9,3.1-45.8-3.6c-15.2-6.9-30.3-13.9-45.4-20.9c-0.8,1.8-1.5,3.7-2.3,5.5c44.3,9.4,88.5,18.7,132.8,28.1
							c3.3,0.7,5.2-3.6,2.3-5.5c-48.9-31.3-104.3-49.1-159.3-66.4c-0.3,2-0.5,3.9-0.8,5.9c28.5,3.4,57.2,4.4,85.9,3.1
							c3.9-0.2,3.8-5.6,0-6c-11.9-1.2-23.8-2.4-35.7-3.5c0,2,0,4,0,6c24-1.5,47.6-6.2,70.5-13.6c3-1,2.7-4.7,0-5.8
							c-14.4-5.9-29.6-8.9-45.1-8.9c0,2,0,4,0,6c26.1-1.8,52.2-3.7,78.3-5.5c3.5-0.2,3.9-4.6,0.8-5.9c-19.4-8.2-40.5-8.8-60.8-3.8
							c-3,0.8-2.7,4.9,0,5.8c27.5,9.6,56.3,14.5,85.5,15.1c3.3,0.1,4.2-5.2,0.8-5.9c-55.6-11-111.8-21.3-168.5-13.6
							c-2.2,0.3-3,3.7-1.3,5c11.5,9.4,24.9,15,39.8,16.2c0-2,0-4,0-6c-12.9,0.9-25.7,1.7-38.6,2.6c-3.4,0.2-4.1,4.8-0.8,5.9
							c28,9.2,57.5,11,86.5,6.7c3.2-0.5,2.5-4.9,0-5.8c-12.7-4.6-25.4-9.1-38.1-13.7c-0.5,1.9-1.1,3.9-1.6,5.8
							c33.1,9.9,66.8,17.6,100.9,23.2c3.7,0.6,5.4-4.8,1.6-5.8c-30-7.7-62.1-1-91.5-11.8c-14.5-5.3-27.9-13.4-42.1-19.4
							s-28.8-10.9-43.7-14.5c-16.9-4.2-34.1-6.7-51.5-7.9c-3.4-0.2-4,5-0.8,5.9c29.7,8.2,59.7,15.6,89.9,22.1
							c3.8,0.8,5.2-4.5,1.6-5.8c-24.5-8.7-49.1-17.5-73.6-26.2c-0.5,1.9-1.1,3.9-1.6,5.8c27.6,5,55.2,10,82.8,15
							c3.8,0.7,5.2-4.4,1.6-5.8c-3.8-1.5-7.6-2.9-11.4-4.4c-0.3,2-0.5,3.9-0.8,5.9c21.1,1.2,42.1-0.7,62.8-5.1
							c2.4-0.5,3.1-4.4,0.7-5.5c-8.9-4-17.7-8.1-26.6-12.1c-0.5,1.9-1,3.7-1.5,5.6c30.2,3.5,60.3,7.8,90.3,12.9
							c3.7,0.6,5.4-4.8,1.6-5.8c-3.2-0.9-6.4-1.7-9.7-2.6c-0.3,2-0.5,3.9-0.8,5.9c18.4-2,36.8-3.3,55.3-3.7c-0.3-2-0.5-3.9-0.8-5.9
							c-9.1,1.7-18.3,3.4-27.4,5.1c-3,0.6-2.8,5.1,0,5.8c2,0.5,4,1,6,1.5c0.3-2,0.5-3.9,0.8-5.9c-61.2-7.5-122.9-10.3-184.5-8.7
							c-3.5,0.1-3.9,4.7-0.8,5.9c17,6.4,35,9.4,53.2,9.2c0-2,0-4,0-6c-10.6,0.8-19.8,5.4-28.1,11.9c-1.5,1.2-0.9,3.8,0.6,4.7
							c33.8,19.5,70.6,33.3,109,40.5c3.8,0.7,5.4-4.7,1.6-5.8c-15.6-4.6-31.3-9.2-46.9-13.8c-7.7-2.3-15.3-4.5-23-6.8
							c-3.8-1.1-7.7-2.3-11.5-3.4c-3.3-1-8.3-1.3-8-5.7c-0.7,1-1.5,1.9-2.2,2.9c37.9-7.3,75.7-14.6,113.6-21.9
							c1-0.2,1.8-1.1,2.1-2.1c1.5-4.9-1.3-7.9-5.6-9.8c-6.7-3-13.5-5.7-20.2-8.6c-13.5-5.7-26.9-11.5-40.4-17.2
							c-0.5,1.9-1,3.7-1.5,5.6c26.8,0.2,53.5,1.8,80.1,4.7c0-2,0-4,0-6c-23-1.2-45.3-3.1-65.6-15.1c-15.6-9.2-30.8-20.4-49.9-17.8
							c-3,0.4-2.7,5.1,0,5.8c31.6,7.7,63.2,15.4,94.7,23.2c0.5-1.9,1.1-3.9,1.6-5.8c-29-6.8-58.7-9.1-88.4-7.4
							c-3.5,0.2-3.9,4.6-0.8,5.9c23.5,9.6,47.9,16.1,73,19.4c3.5,0.5,3.9-4.9,0.8-5.9c-41.6-13.4-84.7-21.5-128.3-24.4
							c-3.5-0.2-3.9,4.9-0.8,5.9c28.4,9.7,56.8,19.3,85.2,29c0.5-1.9,1.1-3.9,1.6-5.8c-10.8-2.6-21.5-5.2-32.3-7.8
							c-3.8-0.9-5.2,4.5-1.6,5.8c50.4,17.7,102.3,30.7,155.1,39c3.2,0.5,5.5-3.6,2.3-5.5c-42.6-24.8-88.2-43.5-133.8-61.9
							c-0.5,1.9-1.1,3.9-1.6,5.8c41.8,7.2,83.6,14.5,125.4,21.7c3.7,0.6,5.4-4.8,1.6-5.8c-11.2-2.8-22.5-5.6-33.7-8.3
							c0,1.9,0,3.9,0,5.8c6.4-1.3,11.5-5.4,15.5-10.5c1.3-1.6,1.1-4.6-1.3-5c-45.4-7.9-90.7-15.7-136.1-23.6c0,1.9,0,3.9,0,5.8
							c17.2-3.7,34.4-7.4,51.5-11.1c2.6-0.6,2.9-4.2,0.7-5.5c-7.4-4.2-15.2-6.6-23.7-7.2c-3.3-0.3-4.2,5.4-0.8,5.9
							c16.8,2.5,33.8,3.7,50.8,3.5c3.3,0,4.2-5.2,0.8-5.9c-36.2-6.9-73-9.1-109.8-8.4c-3.3,0.1-4.1,5-0.8,5.9
							c51.6,14,103.8,25.1,156.6,33.3c0-1.9,0-3.9,0-5.8c-19.4,4.7-39.7,9.9-59.7,5.9c0.2,1.8,0.5,3.7,0.7,5.5
							c6.8-4.8,6.6-16-0.3-20.6c-5.1-3.5-11.9-5.4-17.6-7.7c-6.5-2.6-13.1-4.9-19.8-7.1c-26.8-8.6-54.5-13.9-82.5-16.1
							c-3.3-0.3-4.1,5.2-0.8,5.9c62.7,12.3,125.3,24.6,188,36.9c-0.4-1.7-0.9-3.3-1.3-5c-6.9,7-13.9,13.9-20.8,20.9
							c-1.3,1.3-1.2,3.9,0.6,4.7c20.1,9.6,42,12.8,64,9.9c3.2-0.4,4.2-4.8,0.8-5.9c-63.2-20.5-128.7-33.1-194.9-37.9
							c-3.5-0.3-3.9,4.9-0.8,5.9c37.9,11.8,76.4,21.1,115.5,27.9c3.8,0.7,5.4-5.1,1.6-5.8c-29.9-5.4-59.8-10.8-89.6-16.1
							c0,1.9,0,3.9,0,5.8c11-1.7,22-3.3,33-5c2.5-0.4,2.9-4.4,0.7-5.5c-39.3-19.5-79.7-36.9-121-52c-0.5,1.9-1.1,3.9-1.6,5.8
							c21,3.3,42,6.6,63.1,10c9.6,1.5,19.3,3.4,29,4.5c7.3,0.8,13.6-0.7,19-5.8c1.3-1.2,1.1-3.9-0.6-4.7
							c-14.9-7.1-30.3-12.7-46.3-16.8c-3.7-0.9-5.3,4.7-1.6,5.8c77.3,22.1,154.5,44.1,231.8,66.2c3.7,1.1,5.3-4.7,1.6-5.8
							c-55.1-16.3-110.2-32.6-165.2-48.9c-0.5,1.9-1.1,3.9-1.6,5.8c17.6,3,35.4,3.7,53.2,2.3c3.2-0.3,4.3-5,0.8-5.9
							c-44.8-11.6-90.5-19.3-136.7-23.4c-3.9-0.3-3.8,5.6,0,6c56.7,5.7,113.7,8.4,170.7,8.3c3.5,0,3.9-4.8,0.8-5.9
							c-29.8-10.1-61.1-14.5-92.5-13.4c-3.3,0.1-4.2,5.1-0.8,5.9c26.7,6,53.4,12,80.1,18c3.8,0.8,5.3-4.7,1.6-5.8
							c-41.5-11.6-84.6-15.5-127.5-12.3c-2.7,0.2-4.4,4.2-1.5,5.6c20.5,9.8,42.8,14.1,65.5,12.7c2.7-0.2,4.4-4.2,1.5-5.6
							c-28.2-13.4-59.1-17.5-89.9-13.3c-3.3,0.4-2.4,4.9,0,5.8c52,19.5,106.1,32.6,161.2,39.4c3.4,0.4,4.1-5.2,0.8-5.9
							c-30.2-6.7-60.4-13.4-90.6-20.2c-3.8-0.8-5.4,4.9-1.6,5.8c21.4,5,43.2,5.1,64.8,1.2c2-0.4,2.6-2.8,1.8-4.4
							c-6.5-12.3-18.8-16.9-31.2-21.4c-16.5-6-33.3-11.3-50.2-16c-33.6-9.3-67.9-15.9-102.6-20c-3.4-0.4-4.1,5.2-0.8,5.9
							c55.2,12.6,111.7,18.3,168.3,17.5c3.9-0.1,3.8-5.7,0-6c-17.1-1.3-34.2-0.6-51.2,1.8c-3.6,0.5-2.3,5.6,0.8,5.9
							c24.5,2.2,49,3.7,73.5,4.3c12.2,0.3,24.4,0.5,36.6,0.4c9.6-0.1,18.5-1.2,26.4-7.2c2-1.5,2-4.7-0.7-5.5
							c-49.3-13.6-100.5-19.1-151.6-17c0,2,0,4,0,6c6.3-0.8,12.5-1.6,18.8-2.4c3-0.4,4.4-5.1,0.8-5.9
							c-36.3-7.6-72.9-13.7-109.7-18.3c-18.5-2.3-37.1-4.3-55.7-5.8c-17.6-1.4-35.1-1.1-51.9,5.1c-2.7,1-3,4.9,0,5.8
							c65.9,19.4,133.5,32.9,201.8,40.3c19.7,2.2,39.5,3.8,59.2,5c3.9,0.2,3.8-5.6,0-6c-41.1-4.3-82.3-8.5-123.4-12.8c0,2,0,4,0,6
							c52.1-4.7,104.2-9.6,155.2-21.8c3-0.7,2.7-4.9,0-5.8c-28-8.6-57.5-8.3-85.8-1.3c-3,0.8-2.7,4.9,0,5.8
							c32.2,11.1,66.4,14.4,100.2,10.5c2.2-0.3,4.4-3.3,2.1-5.1c-12.5-10-27.2-15.3-42.5-19.2c-17.3-4.3-34.8-8-52.4-11.2
							c-35.9-6.7-72.1-11.4-108.5-14.2c-3.4-0.3-4.1,5.1-0.8,5.9c73,16.9,147,29.6,221.5,38.1c0-2,0-4,0-6
							c-46.3-4.5-92.8-5.2-139.2-2.4c-3.2,0.2-4.3,5.2-0.8,5.9c56.5,11.3,113.8,17.7,171.4,19.4c3.3,0.1,4.2-5.3,0.8-5.9
							c-57.1-10-114.9-16.1-172.8-18.4c-3.9-0.2-3.8,5.6,0,6c12.1,1.2,23.8-1.9,34.5-7.4c2.4-1.2,1.6-4.8-0.7-5.5
							c-35.3-10.8-70.5-21.5-105.8-32.3c-0.3,2-0.5,3.9-0.8,5.9c46.7,1.5,93.5,2.6,139.9-3.8c3-0.4,2.7-5.1,0-5.8
							c-28.8-7.4-58.6-9.3-88.2-6.1c-3.1,0.3-4.4,5.1-0.8,5.9c35.3,8,71.4,11.3,107.6,10.1c3.3-0.1,4.2-5.1,0.8-5.9
							c-46.2-11.3-93.9-15.8-141.4-13.7c-3.2,0.1-4.3,5.3-0.8,5.9c14.9,2.6,29.7,2.4,44.6-0.3c3.1-0.6,2.6-5,0-5.8
							c-42.2-13.2-85-24.6-128.2-34.3c-0.3,2-0.5,3.9-0.8,5.9c78.4,7.5,157,14.9,235.8,15.7c22.7,0.2,45.3-0.1,67.9-1.1
							c3.9-0.2,3.8-5.7,0-6c-49.1-3.6-98.4-6.4-147,3.3c-3.1,0.6-2.6,4.9,0,5.8c38.7,13.3,80,15,120.1,7.2c2.8-0.6,2.5-4.1,0.7-5.5
							c-11.6-8.9-28.1-9.1-42-10.8c-16.9-2.1-33.9-4.1-50.8-5.7c-34.8-3.5-69.6-6-104.5-7.6c-3.4-0.2-4,5-0.8,5.9
							c41.5,10.9,84.6,14.4,127.4,11.1c3.3-0.3,4.2-4.9,0.8-5.9c-27.7-8.3-56.4-12.2-85.3-11.8c-3.9,0.1-3.9,5.9,0,6
							c53,1.7,106-3.9,157.7-15.4c2.8-0.6,3-5.3,0-5.8c-42.2-6.9-85.1-7.5-127.8-8c-3.9,0-3.9,5.9,0,6c40.7,1.4,81.5-0.2,122-4.4
							c3.9-0.4,3.8-5.5,0-6c-49.2-5.8-98.8-5.7-148-0.4c-3.8,0.4-3.9,5.7,0,6c32.5,2.8,65.1,3.2,97.6,1.2c3.8-0.2,3.9-6.2,0-6
							c-19,0.8-37.9,1.6-56.9,2.3c-3.8,0.2-3.9,6.1,0,6c20.5-0.5,40.6-4.1,60.2-10.1c2.1-0.6,3-3.4,1.3-5
							c-7.1-6.5-15.7-9.7-25.1-11.4c-10.8-2-21.8-3.3-32.8-4.6c-23.8-2.9-47.6-5-71.5-6.3c-3.9-0.2-3.8,5.8,0,6
							c51.1,2.9,102.4,2.2,153.4-1.9c3.2-0.3,4.3-5.1,0.8-5.9c-37.6-8.5-76.2-10.9-114.6-7.5c-3.8,0.3-3.9,5.9,0,6
							c25.9,0.6,51.8-0.8,77.5-4.2c3.7-0.5,4-6,0-6c-29-0.1-58.1-0.2-87.1-0.2c-3.9,0-3.8,5.7,0,6c38.1,2.7,76.2,2.9,114.3,0.8
							c3.5-0.2,3.9-4.7,0.8-5.9c-26.1-10.1-53.7-15.3-81.7-15.8c-3.9-0.1-3.8,5.7,0,6c46.4,4,93.1,4.1,139.6,0.6
							c3.1-0.2,4.3-5.2,0.8-5.9c-69.2-12.8-138.4-25.7-207.6-38.5C381.4,78.4,379.8,84.1,383.6,84.8L383.6,84.8z"/>
					</g>
				</g>
			</g>
		</g>
	</g>
</g>
<g>
	<g>
		<g>
			<g>
				<defs>
					<rect id="SVGID_5_" x="202.9" y="490.7" width="90.1" height="9"/>
				</defs>
				<clipPath id="SVGID_6_">
					<use xlink:href="#SVGID_5_"  style="overflow:visible;"/>
				</clipPath>
				<g class="st3">
					<g>
						<path class="st4" d="M306.4,498.3c4.1-6.7-3.3-11.4-8.6-14c-1-0.5-2.2,0.1-2.3,1.3c-0.3,8.7-0.7,17.5-1,26.2
							c0.9-0.3,1.9-0.5,2.8-0.8c-3.8-5.3-7.7-10.5-12.7-14.8c-7.2-6.2-15.8-10.5-24.5-14.1c-0.5-0.2-1.1,0-1.5,0.4
							c-7,7.8-12.8,16.4-16.1,26.3c1,0.1,2,0.3,2.9,0.4c0.7-8.7,1.5-17.3,2.2-26c-0.9,0.3-1.9,0.5-2.8,0.8c4.5,8.2,9,16.3,13.5,24.5
							c0.8,1.5,3.2,0.5,2.7-1.2c-3.2-11.1-6.5-22.1-9.7-33.2c-0.7,0.6-1.5,1.1-2.2,1.7c17.4,8.2,40.1,18.9,48.5,37.7
							c0.7-0.7,1.4-1.4,2.1-2.1c-15-9-30-18-44.9-27c-1.7-1-3.1,1.6-1.5,2.6c8.4,5.3,20,13.6,18.3,25c0.6-0.3,1.2-0.7,1.8-1
							c-5.7-0.9-11.4-1.7-15.3-6.2c-6.9-8-13.3-16.5-19.4-25.2c-0.9-1.2-2.7-0.8-2.8,0.8c-0.5,5.6-0.9,11.3-2.9,16.7
							c-2.6,7.2-7.4,12.8-13.2,17.6c0.8,0.1,1.6,0.2,2.4,0.3c-7.1-11.9-14.3-23.7-21.4-35.6c-0.9-1.5-3-0.5-2.7,1.2
							c2.2,12.8,4.4,25.7,6.7,38.5c0.3,1.7,2.9,1.2,2.9-0.4c0.7-18.1,1.5-36.2,2.2-54.3c-0.8,0.4-1.5,0.9-2.3,1.3
							c8.9,6,18.7,13.6,21.3,24.6c0.6-0.6,1.2-1.2,1.8-1.8c-11-3.9-22-7.9-33-11.8c-1.7-0.6-2.5,1.8-1.2,2.7
							c16.5,11.5,33,25.3,41.4,44c0.7,1.5,3.3,0.4,2.7-1.2c-5.4-16,1.1-30.6,11.9-42.7c-0.8-0.2-1.7-0.4-2.5-0.7
							c1.1,6.8-2.5,12.8-7.1,17.5c-2.7,2.8-5.7,5.1-8.9,7.3c-4.1,2.8-8.3,6.5-13.3,5.3c-5.8-1.4-11.7-5.4-15.5-9.9
							c-5.7-6.8-10.5-14.4-15.7-21.6c-0.9-1.2-2.7-0.8-2.8,0.8c-0.8,19.1-2.1,38.1-9.9,55.9c0.8-0.1,1.6-0.2,2.4-0.3
							c-18.1-18.8-30.5-42.7-22-69c-0.8,0.2-1.7,0.4-2.5,0.7c7.1,6.4,13.5,14.3,13.8,24.3c0,1.9,2.9,1.9,3,0
							c0.5-8.5,1.1-17.1,1.6-25.6c-0.9,0.3-1.9,0.5-2.8,0.8c6.1,7.9,11.1,16.8,12.2,26.9c1,9.6-1.8,18.7-6.5,26.9
							c0.7-0.2,1.4-0.4,2.1-0.5c-6-2.8-13.1-6.5-15.7-13c-1.6-4-0.9-8.3-0.2-12.4c-0.7,0.3-1.5,0.6-2.2,0.9
							c8.7,6,16.8,14.6,9.8,25.1c0.7-0.2,1.4-0.4,2.1-0.5c-6.1-2.7-6.8-5.6-8.3-11.7c-1.6-6.4-3.1-12.7-4.7-19.1
							c-0.8,0.5-1.7,1-2.5,1.5c8.4,9.7,21.3,23,11,35.8c0.8,0.1,1.6,0.2,2.4,0.3c-3.8-5.9-7.2-12.6-6.6-19.7c0.8-9.2,8-16.1,15.2-21
							c2.1-1.5,5.1-4.1,7.5-4.6c3.1-0.7,7.6,2.3,10.3,3.6c4.3,2.2,8.6,4.6,12.5,7.5c5.6,4.3,10.9,10.2,8.3,17.7c1,0.1,2,0.3,2.9,0.4
							c0.2-9.6,0.4-19.3,0.7-28.9c-0.9,0.3-1.9,0.5-2.8,0.8c5.4,11.8,10.7,23.5,16.1,35.3c0.7,1.6,3.1,0.4,2.7-1.2
							c-3.2-12.7,2.4-23.8,10.7-33.1c-0.7,0-1.4,0-2.1,0c7.6,7.7,9.8,16.1,2.8,25.1c0.8,0.1,1.6,0.2,2.4,0.3
							c-6.7-12.9-3.6-25.3,5.3-36.3c-0.6,0.1-1.2,0.2-1.8,0.2c11.6,6.3,31.1,17.7,25.5,33.7c0.7-0.3,1.5-0.6,2.2-0.9
							c-5-2.3-16.9-7.5-13.2-15c-0.6,0.2-1.1,0.5-1.7,0.7c10.3,4.3,23.9,9.7,29.5,20c0.7-0.7,1.4-1.4,2.1-2.1
							c-6.5-4.5-14-10.1-16.8-17.9c-2.3-6.5,0.4-12.6,4.9-17.3c0.8-0.9,2.5-2.8,3.6-3.3c1.9-0.8,4.5,0.5,6.4,1c3.5,1,6.9,2,10.3,3.2
							c5.1,1.8,10.6,3.7,14.9,7.1c2.5,2,4.4,4.4,2.4,7.5c-3.8,5.7-10.6,2.4-16.1,1.1c-10.6-2.5-22.2-5-31.7-10.7
							c-0.5,0.9-1,1.7-1.5,2.6c12.4,6,24.7,12.7,35,22c0.6-0.8,1.2-1.6,1.8-2.4c-7.5-4-21.5-12-15.8-22.4c0.3-0.6,1.1-2.2,1.7-2.4
							c1.3-0.5,4.8,1.8,5.9,2.3c2.6,1.1,5.1,2.4,7.6,3.7c4.5,2.4,8.9,5,12.9,8.2c10.4,8.4,14.3,18.8,16.2,31.6
							c0.7-0.6,1.5-1.1,2.2-1.7c-4.6-3.3-9.9-7.4-11.6-13.1c-1.6-5.3,1.1-9.9,4.5-13.7c-0.6,0.1-1.2,0.2-1.8,0.2
							c5.8,3.5,13,8.8,8,15.9c0.7-0.2,1.4-0.4,2.1-0.5c-12.3-7.3-25.8-16.3-31.8-29.9c-0.7,0.7-1.4,1.4-2.1,2.1
							c4.5,3.3,9.5,7.5,10.2,13.4c0.8-0.4,1.5-0.9,2.3-1.3c-4.9-2.2-9.9-4.3-14.6-6.8c-3.1-1.6-9.7-4.5-10.4-8.3c-0.7-4,5-0.8,6.8,0
							c2.5,1.1,5.1,2.3,7.6,3.5c4.4,2.1,8.7,4.2,13,6.6c13,7,26.5,15.3,35.5,27.3c0.6-0.7,1.1-1.5,1.7-2.2
							c-16.8-4.5-34.2-9.4-49.4-18c-1-0.6-2.3,0.1-2.3,1.3c0,4.4,0,8.7,0,13.1c0,3.1,0.8,7.2,0,10.2c-0.5,2.2-2.2,3-4.3,3.8
							c-4.9,2-7.8,0.6-12.2-1.8c-11.2-6.2-20-14.4-28.2-24.2c-0.9-1.1-2.5-0.1-2.6,1.1c-0.2,3-0.3,6-0.5,8.9
							c-0.1,1.8,0.4,5.7-0.4,7.3c-1.3,2.4-6.6,2.6-9,3c0.6,0.6,1.2,1.2,1.8,1.8c2.9-16.7,5.8-33.3,8.7-50c0.2-1.1-0.7-2.2-1.8-1.8
							c-5,1.5-10.2,3.2-14.4,6.5c-3.4,2.7-5.9,6.5-8.5,9.9c-10.2,13.3-20.3,26.6-30.5,40c0.9,0.5,1.7,1,2.6,1.5
							c12.1-26.2,31.9-47.8,53.4-66.6c-0.8-0.2-1.7-0.4-2.5-0.7c3.4,21,5,42.1-4.4,61.9c0.9,0,1.7,0,2.6,0
							c-6.8-14.2-13.5-28.5-20.3-42.7c-0.4-0.8-1.8-1-2.4-0.3c-10.9,14-23.4,26.6-36.9,38.1c-3.3,2.9-7.1,7.1-11,9.1
							c-2.3,1.2-7.9,1.4-9.4-0.6c-2.4-3-1.2-10.1-0.3-13.4c1.5-5.2,4.6-9.6,8.2-13.6c-0.6,0.1-1.2,0.2-1.8,0.2
							c4.7,3.5,6,7.6,1.4,11.7c-5.5,4.9-16.9,10.9-23.8,7.9c-5.3-2.3-8.9-6-11.7-10.9c-4.8-8.4-9.4-16.9-14-25.4
							c-0.6-1.1-2-0.9-2.6,0c-8.2,11.7-19,21.2-30.4,29.6c0.8,0.4,1.5,0.9,2.3,1.3c-1.4-12.1,11.7-20.2,20.7-25.4
							c-0.7-0.6-1.5-1.1-2.2-1.7c-4,12.4-13.2,17.8-25.1,22.3c0.6,0.5,1.3,1,1.9,1.4c1.7-15.5,20.3-25.2,32.4-31.6
							c-0.7-0.2-1.4-0.4-2.1-0.5c8.6,19.1,4.2,37.9-7.8,54.4c0.9,0.3,1.9,0.5,2.8,0.8c0-13.5,0-26.9,0.1-40.4c0-1.5-2.1-2.1-2.8-0.8
							c-8.4,14.8-20.5,26.6-34.1,36.6c0.6,0.8,1.2,1.6,1.8,2.4c27-30.9,64.1-52.2,100.2-70.5c-0.7-0.2-1.4-0.4-2.1-0.5
							c3,7-1,13.2-6.2,17.9c-4.9,4.3-11.1,8.7-17.4,10.6c-6.6,2-14.5,2.9-21.3,2c-3.8-0.5-3.7-2.5-4.7-6.3
							c-1.6-5.8-1.5-11.5-0.1-17.3c-1-0.3-1.9-0.5-2.9-0.8c-4.2,25.7-13.6,49.8-26.5,72.3c-1,1.7,1.6,3.2,2.6,1.5
							c13-22.7,22.6-47.1,26.8-73c0.3-1.9-2.4-2.7-2.9-0.8c-1.4,6-1.6,12-0.1,18c0.7,2.7,1.4,7.1,4.1,8.6c3.2,1.7,8.5,1.3,11.9,1
							c4.4-0.4,9-0.9,13.3-2.1c7.9-2.2,15.8-7.7,21.4-13.5c5.4-5.5,7.8-12.4,4.7-19.7c-0.3-0.8-1.4-0.9-2.1-0.5
							c-36.3,18.4-73.7,39.9-100.8,70.9c-1,1.2,0.4,3.4,1.8,2.4c14.1-10.3,26.6-22.4,35.2-37.7c-0.9-0.3-1.9-0.5-2.8-0.8
							c0,13.5,0,26.9-0.1,40.4c0,1.6,2,1.9,2.8,0.8c12.7-17.4,16.9-37.4,7.8-57.5c-0.3-0.8-1.4-0.9-2.1-0.5
							c-13.4,7-32,17.4-33.9,34.2c-0.1,0.9,1,1.8,1.9,1.4c7.4-2.8,15.2-6.1,20.7-12c3.3-3.6,5-7.8,6.5-12.4c0.4-1.3-1.1-2.3-2.2-1.7
							c-9.9,5.7-23.7,14.8-22.2,28c0.1,1,1.2,2,2.3,1.3c11.9-8.7,23-18.5,31.5-30.7c-0.9,0-1.7,0-2.6,0c3.4,6.2,6.8,12.5,10.2,18.6
							c2.1,3.7,3.9,7.8,6.6,11.1c2.2,2.8,5,4.9,8.1,6.6c1.9,1.1,4.8,2.9,7.1,3.2c2.1,0.3,5-1.5,6.9-2.2c6.3-2.4,15.6-5.8,18.7-12.5
							c2.4-5.1-1.3-9.3-5.2-12.3c-0.5-0.4-1.4-0.2-1.8,0.2c-6.3,7.2-11.1,15.8-9.7,25.6c0.4,2.5,0.6,5.8,3.1,7.1
							c2.2,1.1,8,1.4,10.1,0.7c1.9-0.6,3.7-2.8,5.2-4c2.4-2,4.9-4,7.3-6c4.8-4.1,9.5-8.3,14-12.7c8.4-8.1,16.4-16.8,23.5-26
							c-0.8-0.1-1.6-0.2-2.4-0.3c6.8,14.2,13.5,28.5,20.3,42.7c0.5,1,2.1,1,2.6,0c9.7-20.6,8.2-42.3,4.7-64.2
							c-0.2-1.2-1.7-1.3-2.5-0.7c-21.7,19-41.7,40.8-53.9,67.2c-0.8,1.8,1.4,3,2.6,1.5c9-11.8,17.9-23.6,26.9-35.4
							c3.1-4.1,6-8.7,9.7-12.3c4.1-4,9.7-5.8,15-7.4c-0.6-0.6-1.2-1.2-1.8-1.8c-2.9,16.7-5.8,33.3-8.7,50c-0.2,1.2,0.7,2,1.8,1.8
							c3.1-0.5,8.9-0.9,10.7-4.2c0.6-1.2,0.5-2.8,0.6-4c0.3-4.6,0.5-9.3,0.8-13.9c-0.9,0.4-1.7,0.7-2.6,1.1
							c4.4,5.3,9,10.5,14.3,14.9c3,2.5,6.2,4.8,9.5,6.9c2.4,1.5,4.8,2.8,7.2,4.1c1.6,0.8,3.8,2.5,5.6,2.6c3.7,0.4,11.2-2.7,12.7-6.5
							c0.9-2.3,0.4-5.2,0.4-7.5c0-5.9,0-11.8,0-17.8c-0.8,0.4-1.5,0.9-2.3,1.3c15.5,8.7,33.1,13.8,50.2,18.4
							c1.2,0.3,2.5-1.1,1.7-2.2c-15.3-20.5-41.8-32-64.6-41.7c-0.5-0.2-1.1,0-1.5,0.4c-10.5,10.8,18.1,20.5,24.2,23.1
							c0.9,0.4,2.4,0,2.3-1.3c-0.9-7.2-6.2-12-11.7-16c-1.4-1-2.6,0.9-2.1,2.1c6.2,14,20.2,23.4,32.9,31c0.7,0.4,1.6,0.1,2.1-0.5
							c6.1-8.7-1.9-15.6-9.1-20c-0.5-0.3-1.4-0.3-1.8,0.2c-3.9,4.3-6.9,9.5-5.6,15.5c1.5,7.1,7.7,12.1,13.3,16
							c1.2,0.8,2.4-0.5,2.2-1.7c-1.4-9-3.4-17.5-9-24.8c-8.9-11.6-23.1-18.2-36.3-23.5c-0.5-0.2-1.1,0-1.5,0.4
							c-11.6,13.2,2.4,24.2,14,30.5c1.4,0.8,3.1-1.2,1.8-2.4c-10.5-9.5-23-16.4-35.6-22.5c-1.7-0.8-3.2,1.6-1.5,2.6
							c9.7,5.9,21.5,8.5,32.4,11c3.6,0.8,8.8,3,12.5,2.7c1.7-0.2,3-1.3,4.3-2.4c2-1.7,4-4,4-6.8c0.1-7.3-10.5-11.2-15.8-13.3
							c-3.2-1.3-6.6-2.4-9.9-3.4c-2-0.6-3.9-1.2-5.9-1.7c-1.5-0.4-4.3-1.7-6-1.5c-2.2,0.3-4.6,3.3-6,4.9c-2.2,2.3-4.2,5-5.4,8
							c-5.5,13.7,7.9,25,17.9,31.9c1.3,0.9,2.7-0.8,2.1-2.1c-6.1-11.1-20.3-16.8-31.3-21.4c-0.6-0.2-1.4,0.2-1.7,0.7
							c-4.7,9.5,7.3,15.8,14.3,19.1c0.9,0.4,1.9,0.1,2.2-0.9c6.1-17.6-14.1-30.1-26.9-37.1c-0.5-0.3-1.4-0.3-1.8,0.2
							c-9.8,12-13.1,25.7-5.7,39.9c0.4,0.8,1.8,1.1,2.4,0.3c8-10.2,6.1-20.4-2.8-29.4c-0.5-0.6-1.6-0.6-2.1,0
							c-9.1,10.1-15,22.2-11.5,36c0.9-0.4,1.8-0.8,2.7-1.2c-5.4-11.8-10.7-23.5-16.1-35.3c-0.7-1.4-2.8-0.6-2.8,0.8
							c-0.2,9.6-0.4,19.3-0.7,28.9c0,1.8,2.4,1.9,2.9,0.4c2.7-7.6-1.6-14.3-7.3-19.2c-4.7-4-10.1-7.1-15.6-9.8
							c-2.6-1.3-6.7-4.2-9.7-4.3c-2.5-0.1-5.6,2.6-7.6,3.9c-8.5,5.3-17.4,12.8-19.2,23.2c-1.5,8.5,2.2,16.6,6.7,23.5
							c0.5,0.7,1.7,1.1,2.4,0.3c11.6-14.5-1.2-28.7-11-40c-1-1.2-2.8,0.1-2.5,1.5c2,8,3.6,16.1,5.9,24c1.3,4.5,4.2,6.7,8.5,8.5
							c0.8,0.3,1.6,0.2,2.1-0.5c8.1-12-0.8-22.2-10.8-29.2c-0.7-0.5-2.1,0-2.2,0.9c-0.8,5-1.5,10,0.6,14.8c3,6.9,10.2,10.9,16.7,14
							c0.7,0.3,1.6,0.2,2.1-0.5c4.9-8.7,7.9-18.3,6.9-28.4c-1.1-10.6-6.1-20.1-12.6-28.4c-0.9-1.2-2.7-0.8-2.8,0.8
							c-0.5,8.5-1.1,17.1-1.6,25.6c1,0,2,0,3,0c-0.3-10.8-7-19.4-14.7-26.4c-0.9-0.8-2.2-0.4-2.5,0.7c-8.8,27.3,4,52.3,22.8,71.9
							c0.6,0.6,2,0.6,2.4-0.3c8-18.3,9.5-37.7,10.3-57.4c-0.9,0.3-1.9,0.5-2.8,0.8c5.7,7.8,10.8,16.7,17.5,23.7
							c2.2,2.3,4.8,4.2,7.6,5.7c2.9,1.6,8.9,5.2,12.1,4.7c2.1-0.3,5.2-2.8,6.9-3.9c2.4-1.5,4.7-3,7-4.7c3.4-2.6,6.7-5.4,9.4-8.7
							c4.1-5.1,6.4-11,5.4-17.6c-0.2-1.1-1.8-1.4-2.5-0.7c-11.5,12.9-18.4,28.5-12.7,45.6c0.9-0.4,1.8-0.8,2.7-1.2
							c-8.6-19.1-25.6-33.3-42.4-45c-0.4,0.9-0.8,1.8-1.2,2.7c11,3.9,22,7.9,33,11.8c1.1,0.4,2.1-0.8,1.8-1.8
							c-2.8-11.8-13.1-19.9-22.7-26.4c-1-0.7-2.2,0.2-2.3,1.3c-0.7,18.1-1.5,36.2-2.2,54.3c1-0.1,2-0.3,2.9-0.4
							c-2.2-12.8-4.4-25.7-6.7-38.5c-0.9,0.4-1.8,0.8-2.7,1.2c7.1,11.9,14.3,23.7,21.4,35.6c0.5,0.9,1.6,0.9,2.4,0.3
							c5.8-4.9,10.7-10.6,13.5-17.7c2.3-6,2.9-12.4,3.4-18.7c-0.9,0.3-1.9,0.5-2.8,0.8c6.4,9.1,13.1,18.5,20.6,26.7
							c4,4.3,10.3,5.2,15.9,6.1c0.7,0.1,1.7-0.2,1.8-1c1.9-13.1-9.9-22.1-19.7-28.4c-0.5,0.9-1,1.7-1.5,2.6c15,9,30,18,44.9,27
							c1.4,0.8,2.6-0.8,2.1-2.1c-8.6-19.2-31.7-30.3-49.6-38.7c-1.1-0.5-2.6,0.3-2.2,1.7c3.2,11.1,6.5,22.1,9.7,33.2
							c0.9-0.4,1.8-0.8,2.7-1.2c-4.5-8.2-9-16.3-13.5-24.5c-0.8-1.4-2.7-0.6-2.8,0.8c-0.7,8.7-1.5,17.3-2.2,26
							c-0.2,1.8,2.4,1.9,2.9,0.4c2.3-7.1,6.1-13.6,10.6-19.5c2-2.5,2.7-4.8,6.3-3.8c1.6,0.4,3.3,1.5,4.8,2.2c2.7,1.3,5.4,2.8,8,4.4
							c8.1,5.1,14,11.8,19.5,19.5c0.8,1.2,2.7,0.8,2.8-0.8c0.3-8.7,0.7-17.5,1-26.2c-0.8,0.4-1.5,0.9-2.3,1.3
							c3.5,1.8,10.5,5,7.5,9.9C302.8,498.4,305.3,499.9,306.4,498.3L306.4,498.3z"/>
					</g>
				</g>
			</g>
		</g>
	</g>
</g>
<g>
	<g>
		<g>
			<g>
				<defs>
					<rect id="SVGID_7_" x="505.4" y="363.7" width="90.1" height="136.5"/>
				</defs>
				<clipPath id="SVGID_8_">
					<use xlink:href="#SVGID_7_"  style="overflow:visible;"/>
				</clipPath>
				<g class="st5">
					<g>
						<path class="st4" d="M627,814.5c2.3-176.6,0.1-353.1-6.6-529.6c-0.1-1.9-3-1.9-3,0c-0.2,313.1-0.5,626.2-0.7,939.2
							c0,38.7-0.1,77.4-0.1,116.1c0,18.8,0,37.5,0,56.3c0,9.4,0,18.8,0,28.1c0-1-0.3,14,0,14.1c5.3,1.6,2.8-11.4,2.7-14
							c-1-77.3-2-154.5-3.1-231.8c-2.3-156.7-4.9-313.4-8.6-470.1c-4.2-174.5-9.7-348.9-17.6-523.3c-0.1-1.9-3-1.9-3,0
							c-3.7,218.7-6.7,437.4-8.9,656.1c-1.1,108.2-2.1,216.4-2.9,324.7c-0.2,25.9-0.4,51.8-0.5,77.6c-0.1,14.1-0.2,28.2-0.3,42.4
							c0,6.4-1.4,14.9-0.1,21.2c-2.4,5.7-1.4,8,2.9,7.1c0-3.5,0-7.1,0-10.6c0.1-55.3,0.2-110.6,0.3-165.8
							c0.3-216.4,0.7-432.8,1-649.3c0.1-54.1,0.2-108.2,0.3-162.3c0-27.1,0.1-54.1,0.1-81.2c0-12.9,0-25.9,0.1-38.8
							c0-6.4,1.4-14.9,0-21.2c2.4-5.7,1.4-8-2.9-7c0,3.5,0.1,7.1,0.1,10.6c1.1,109.6,2.2,219.1,3.4,328.7c2.5,245,5,490,7.5,735.1
							c0,1.9,3,1.9,3,0c-1.5-282.5-3.1-564.9-4.6-847.4C584.7,277,584,134.6,583.2-7.8c-0.2-35.3-0.4-70.6-0.6-105.9
							c-0.1-16.5-0.2-33-0.3-49.4c0-8.1,0.7-16.7-0.1-24.7c-2-18.9-2.3,5.2-2.1,10.4c2.7,70.1,5.4,140.1,7.8,210.2
							c9.9,281.2,17.6,562.6,23,843.9c2.7,142.3,4.9,284.5,6.5,426.8c0.4,35.3,0.8,70.6,1.1,105.9c0.2,16.5,0.3,33,0.4,49.4
							c0,3.8-1.3,21.2,1.6,21.2c2.3,0,0.7-24.5,0.6-28.1c-2.2-70.3-4.3-140.7-6.5-211c-8.6-281.4-17.3-562.7-25.9-844.1
							c-1.1-35.2-2.2-70.3-3.2-105.5c-0.1-1.9-3.1-1.9-3,0c10,338,15.2,676.2,15.7,1014.4c0.1,42.2,0,84.4-0.1,126.6
							c0,5.1-3.4,27.3-0.1,31.7c2.7,3.6,0.6-15,0.3-18.3c-2-20.6-3.5-41.2-4.7-61.8c-4.7-81.8-5-163.8-6.3-245.7
							c-2.7-170.7-5.2-341.3-7.6-512c-2.7-190.7-5.3-381.5-7.8-572.2c0-1.9-3-1.9-3,0c-0.6,407.3-1.2,814.6-7.1,1221.9
							c-1.5,102-3.3,203.9-5.5,305.9c-0.1,5.4-2.6,28.8,2.1,28.1c0.6-0.1-0.4-33.1-0.4-35.3c-0.3-25.9-0.6-51.8-0.9-77.6
							c-0.6-51.8-1.2-103.5-1.7-155.3c-2.3-203.5-4.5-407.1-6.8-610.6c-2.6-229.4-5.1-458.8-7.7-688.2c0-1.9-3-1.9-3,0
							c1.4,442.5,2.8,884.9,4.2,1327.4c0.4,124.7,0.8,249.5,1.2,374.2c0,1.9,3,1.9,3,0c0.2-263.6,0.4-527.3,0.6-790.9
							c0.2-262.5,0.4-524.9,0.6-787.4c0.2-263.6,0.4-527.3,0.6-790.9c0-3.6,2.1-22.8,0-24.7c-4-3.6-2.5,12.3-2.4,14
							c0.5,17.6,1,35.1,1.4,52.7c0.9,32.8,1.7,65.6,2.5,98.4c1.6,65.7,3.1,131.3,4.4,197c2.6,130.3,4.7,260.7,6.2,391
							c0.8,65.8,1.4,131.6,1.9,197.5c0.2,32.9,0.5,65.8,0.6,98.8c0.1,16.5,0.2,32.9,0.2,49.4c0,1.6-0.9,17.6,2.7,14.2
							c2.3-2.1-1.2-24-1.4-27.9c-6.7-130.3-13.4-260.5-20.1-390.8c-1.7-32.6-3.4-65.1-5-97.7c-0.1-1.9-3.1-1.9-3,0
							c6.8,255.9,12.8,511.9,17.7,767.9c5,255.2,9,510.4,12.1,765.7c1.8,144.8,3.2,289.6,4.4,434.4c0,1.9,3,1.9,3,0
							c-2.1-318.2-2.4-636.5-0.8-954.7c1.5-317,4.9-633.9,10.1-950.9c0.2-9.6,2.4-22.4,0.5-31.7c-0.6-2.8,2.6-8.6-2.7-7
							c-0.3,0.1,0,15.2,0,14.1c0.1,20,0.1,40,0.1,59.9c0.1,40,0,79.9,0,119.9c-0.1,78.7-0.5,157.5-1.1,236.2
							c-1.2,159.7-3.5,319.4-6.7,479.1c-3.2,158.2-7.4,316.3-12.5,474.4c-0.6,18.7-1.2,37.4-1.9,56.1c-0.4,13.1,2.2,13.8,1.4,0.3
							c-0.6-11.5-1.2-23-1.8-34.5c-1.9-38.1-3.6-76.3-5-114.5c-3-79.2-5-158.4-6.5-237.7c-6.1-317.3-8.9-634.7-13.2-952
							c-0.5-40-1.1-80.1-1.6-120.1c0-1.9-3-1.9-3,0c-0.3,439.7-0.7,879.3-1.9,1319c-0.6,218.7-1.5,437.3-2.7,655.9
							c-0.6,108.1-1.3,216.3-2,324.4c-0.4,54.1-0.8,108.1-1.2,162.2c0,5.5-2.3,36.1,2.5,35.3c0.9-0.2-0.7-38.6-0.8-42.2
							c-0.5-28.2-1-56.3-1.5-84.5c-7.4-436.8-12.6-873.7-15.5-1310.5c-3-437.3-3.7-874.6-2.2-1311.8c0.4-110.5,0.9-221,1.6-331.5
							c0-4.3,0.8-10,0.1-14.1c-1.7-10.1-0.9-9.2-2.6,0c-2.4,12.8,0.6,29.1,0.9,42.2c0.6,28.2,1.1,56.3,1.6,84.5
							c1,54,1.9,108,2.7,162c3.3,218.5,5.3,437.1,5.9,655.7c0.2,54.1,0.2,108.2,0.2,162.3c0,1.9,3,1.9,3,0
							c0.3-249.8,0.6-499.6,0.9-749.4c0.1-62.2,0.1-124.3,0.2-186.5c0-31.7,0.1-63.3,0.1-95c0-15.2,0-30.5,0.1-45.7
							c0-7,0-14.1,0-21.1c0-3.9,2.9-25.5,0-28.1c-4.1-3.7-2.7,12.4-2.7,14.1c0.1,8.2,0.2,16.4,0.4,24.7c0.2,15.3,0.4,30.5,0.6,45.8
							c0.4,31.7,0.9,63.4,1.3,95.1c0.8,62.3,1.5,124.5,2.2,186.8c2.7,250.3,4.4,500.7,5.1,751.1c0.7,251.6,0.5,503.3-0.8,754.9
							c-0.6,124.6-1.5,249.3-2.6,373.9c-0.3,31.7-0.6,63.5-0.9,95.2c-0.1,15.3-0.3,30.6-0.5,45.8c-0.1,7.1-0.1,14.1-0.2,21.2
							c0,3.8-2.7,22.4-0.3,24.7c3.3,3.2,2-15.1,2-17.3c-0.3-7-0.5-13.9-0.8-20.9c-0.6-16.3-1.2-32.5-1.7-48.8
							c-1.1-31.4-2-62.8-2.9-94.3c-6.9-249.2-8.1-498.4-7.8-747.7c0.1-62.1,0.2-124.3,0.4-186.4c0-15.2,0.1-30.5,0.1-45.7
							c0-6.6,1.4-14.7,0.1-21.1c0-0.1,0.1-6.2-2.8-3.6c-1.2,1.1,0.4,14.9,0.5,17.5c0.8,30.3,1.6,60.6,2.3,90.9
							c2.9,125,5.1,250,6.4,375c1.3,125.2,1.9,250.4,1.6,375.7c-0.1,62-0.4,124.1-1,186.1c-0.3,30.4-0.6,60.9-0.9,91.3
							c-0.2,14.3-3,31.5-0.6,45.6c1.9,11.3,2.1-6.1,2-10.1c-0.3-8-0.6-16.1-0.9-24.1c-9-248.8-5.5-498.3-6.6-747.2
							c-0.6-126-1.1-252-1.7-378.1c-0.3-62.4-0.6-124.8-0.9-187.3c0-7.1-0.1-14.1-0.1-21.2c0-3.1,0.3-21.9-2.9-10.6
							c-1.7,5.8,0.2,15,0.3,21.1c0.2,9.4,0.3,18.8,0.5,28.2c0.5,30.5,1,61,1.5,91.5c4,250.1,7.6,500.3,9.3,750.5
							c1.7,251.4,1.5,502.8-2.4,754.2c0,1.7-1.3,17.7,2.6,14.1c2-1.8-0.2-18-0.3-21c-0.2-16.4-0.4-32.7-0.6-49.1
							c-0.4-31.6-0.7-63.2-1-94.8c-0.6-62-1.2-124-1.7-186.1c-1-125.3-1.6-250.6-1.9-375.8c-0.5-249.3,0.8-498.6,4.5-747.8
							c1.8-123.8,4.3-247.6,7.4-371.3C523.2,137,525,74,527,11.1c0.5-15.1,1-30.3,1.5-45.4c0.2-7,0.5-14,0.7-21
							c0.1-3.7,3.1-22.2,0.8-24.4c-3.4-3.4-1.8,15-1.7,17.4c0.3,7,0.6,14,0.9,20.9c0.7,16.3,1.4,32.6,2,48.9
							c10.2,249.1,16.9,498.2,20.2,747.5c1.6,125.7,2.4,251.5,2.3,377.2c0,30.6-0.1,61.1-0.2,91.7c-0.1,15.3-0.1,30.6-0.2,45.8
							c0,7.2-2.2,18.1-0.2,24.7c3.3,10.8,2.9-6.6,2.9-10.6c0-62.5,0.1-124.9,0.1-187.4c0.1-251,0.2-502.1,0.3-753.1
							c0-63.6,0.1-127.3,0.1-190.9c0-30.6,0-61.3,0-91.9c0-7.3,2.2-17.8,0-24.8c-3-9.6-2.9,2.6-2.8,7c0.1,16.5,0.3,32.9,0.4,49.4
							c1.1,125.8,2.1,251.7,3.2,377.5c2.1,250.5,4.2,501,6.3,751.4c1,121.1,2,242.2,3.1,363.4c0,1.9,3,1.9,3,0
							c-1.9-377.6-0.8-755.2,3.5-1132.8c1.1-93.8,2.3-187.5,3.8-281.3c0.4-23.4,0.7-46.9,1.1-70.3c0.2-10,2.3-21.8,0.5-31.6
							c-1.5-8.4-1.8-1-2.6,3.5c-1,6.3,0.3,14.8,0.4,21.1c0.9,46.9,1.6,93.8,2.3,140.7c2.7,189,3.8,378,3.4,567
							c-0.2,95.1-0.8,190.3-1.8,285.4c-0.5,47-1.1,93.9-1.7,140.9c-0.1,4.8-1.6,28.2,1,28.2s1.2-23.4,1.1-28.2
							c-0.2-25.8-0.5-51.6-0.7-77.5c-1.6-187.9-2.4-375.7-2.3-563.6c0-189.1,0.9-378.2,2.5-567.2c0.8-93.9,1.8-187.8,3.1-281.8
							c0.3-22.3,0.6-44.6,0.9-66.9c0.2-11.7,0.3-23.5,0.5-35.2c0.2-13,3.1-29.6,0.6-42.2c-0.6-3.3,2.6-7.6-2.5-7.1
							c-0.2,0,0.5,15.7,0.6,17.5c0.4,10.5,0.7,21,1,31.5c0.8,25.6,1.7,51.3,2.5,76.9c11.6,374.5,17.5,749.2,18,1123.9
							c0.1,95-0.1,190.1-0.7,285.1c0,1.8-0.4,17.6-0.1,17.6c5.2,0.7,1.8-3.6,2.4-6.9c1.8-10.6-0.9-24-1.3-34.9
							c-0.9-24.5-1.8-49-2.5-73.5c-1.5-47.9-2.8-95.9-3.9-143.8c-2.1-93.9-3.3-187.7-3.6-281.6c-0.2-47-0.1-94,0.2-141
							c0.1-11.7,0.2-23.5,0.3-35.2c0-4.4,0.8-9.9,0.1-14.1c-0.6-3.9-1.2-12.3-2.4-3.7c-1.4,9.8,0.9,21.3,1.4,31.2
							c0.6,13.9,1.2,27.8,1.8,41.7c7.8,186,13.5,372,17.2,558.1c0.9,46.7,1.7,93.4,2.4,140.1c0.3,23.4,0.7,46.7,0.9,70.1
							c0.1,11.7,0.3,23.4,0.4,35.1c0,4.3-0.6,10,0.1,14c2.3,12.2,1.5,6.6,2.8,0c2.1-10.7-0.6-24.1-0.9-35.1
							c-0.3-11.7-0.6-23.4-0.9-35.1c-0.6-24.6-1.2-49.1-1.8-73.7c-1.1-46.8-2.1-93.6-3.1-140.5c-7.6-376.6-10.1-753.2-6.1-1129.9
							c1-93.8,2.4-187.7,4.2-281.5c0.5-23.4,0.9-46.9,1.4-70.3c0.1-6.4,3.7-69.8,1.6-70.3c-3.8-0.9-0.7,21.8-0.4,26.7
							c0.8,11.3,1.6,22.5,2.3,33.8c1.6,23.7,3.1,47.5,4.6,71.3c11.2,184.6,17.6,369.6,19.5,554.5c0.9,92.6,0.7,185.3-0.6,277.9
							c-0.7,46.2-1.6,92.5-2.9,138.7c-0.1,4.2,0.1,34.4-1,34.6c4.4-0.9,0.2-21.3-0.3-26.7c-2-22.5-3.9-45-5.8-67.5
							c-7.5-91.3-13.6-182.6-18.4-274.1c-2.4-46.3-4.5-92.6-6.3-138.9c-0.9-22.8,1-47.3-2.4-69.8c-3-20-2.5,8.8-2.3,14.1
							c0.4,11.7,0.9,23.4,1.3,35.1c7.1,189.7,13.2,379.5,18.2,569.3c2.5,94,4.8,187.9,6.8,281.9c0.2,7,0,63.5,2.8,63.5
							c2.1,0-0.6-62.1-0.9-69.8c-1.5-46.6-2.8-93.3-4.1-139.9c-4.9-187.2-7.5-374.4-7.9-561.7c-0.2-94.9,0.1-189.9,1-284.8
							c0.4-46.9,1-93.7,1.8-140.6c0-2.7,1.6-31.4,0.5-31.6c-4.2-1-1.5,22.6-1.3,27.6c1.1,24.3,2.2,48.6,3.2,72.9
							c15.7,373.7,23.1,747.7,26.9,1121.8c1.9,188.5,2.9,377,3.6,565.5c0.2,46.8,0.3,93.7,0.5,140.5c0.1,22.2,0.1,44.5,0.2,66.7
							c0,11.7,0.1,23.4,0.1,35.1c0,12.9-2.6,29.7,0.1,42.1c0.7,3.1-2.5,8.1,2.9,7.1c0.4-0.1-0.4-15.7-0.5-17.5
							c-0.3-10.5-0.5-21-0.8-31.5c-0.6-25.7-1.3-51.3-1.8-77c-1-46.7-2-93.4-2.8-140.1c-3.3-187.1-4.7-374.2-4.4-561.3
							c0.2-93.6,0.8-187.2,1.9-280.8c0.5-46.8,1.2-93.6,2-140.3c0.1-4.6,3-28.7-2.2-28.1c-0.3,0,1,32.8,1.1,35
							c0.7,23.3,1.3,46.7,1.9,70c4.8,189.6,6.5,379.3,5,569c-0.2,21.1-0.4,42.2-0.6,63.3c-0.1,11-2.2,24.2-0.4,35.1
							c0.7,4.4,1.1,12,2.5,3.5c1.2-7.6-0.5-16.9-0.8-24.6c-1.4-46.9-2.8-93.7-4.2-140.6c-2.7-93.8-5.1-187.7-7.3-281.6
							c-4.4-188-7.9-376.1-10.4-564.2c-1.3-95.3-2.3-190.7-3.2-286c0-2.9,1.4-31.3-0.3-31.8c-4.7-1.5-2.3,22.7-2.2,27.8
							c0.6,24.4,1.2,48.9,1.7,73.3c1,46.6,1.9,93.2,2.7,139.8c1.6,94.5,2.7,189,3.2,283.4c0.1,21,0.2,42,0.3,63
							c0,11.7,0.1,23.4,0.1,35c0,3-2.9,15.5,2.7,14.1c0.6-0.2-0.8-19.9-0.9-20.9c-2-46.5-3.9-93-5.8-139.5
							c-7.5-186.8-13.6-373.6-14.2-560.5c-0.1-46.8,0.1-93.7,0.7-140.5c0.2-11.1,2.2-24.1,0.6-35.1c-2.9-19.4-1.7,8.9-1.5,13.9
							c1,23.3,2,46.6,3,69.8c4,94.4,7.8,188.8,11.3,283.2c7.1,188.2,13.3,376.4,18.5,564.7c5.3,187.6,9.6,375.3,13.1,562.9
							c1.7,94,3.3,188,4.6,281.9c0,3.1-2.7,15.3,2.8,14.3c0.1,0-1-14.8-0.9-13.7c-0.8-11.4-1.6-22.9-2.3-34.3
							c-1.5-22.9-3-45.9-4.5-68.8c-3-47.2-5.8-94.3-8.5-141.5c-10.2-179.8-18.2-359.7-24-539.7c-0.1-1.9-3-1.9-3,0
							c0,337.6,0.1,675.2,0,1012.7c0,81.6-0.3,163.2-4,244.7c-0.9,19.2-1.9,38.4-3.3,57.5c-0.3,3.8-1.4,9.4-1,13.4
							c0.5,4.9,0.8,10.8,1.5,2.9c1-11.2-0.9-23.7-1.3-35c-1.6-42-3.1-84-4.5-126c-5.6-167.4-9.8-334.9-13.2-502.3
							c-3.9-190.2-6.9-380.4-9.8-570.7c0-1.9-3-1.9-3,0c-0.2,203.7-0.4,407.4-0.6,611.1c-0.1,49.6,0.1,99.3-0.3,148.9
							c-0.2,23.6-0.7,47.2-1.6,70.8c-0.5,11-1,22.1-1.7,33.1c-0.8,12.4-4.1,26.4-3.2,38.8c0.7,10.9,0.6,5.7,1.6-1.5
							c0.6-4.3,0-9.7,0-14.1c0-14.1,0.1-28.2,0.1-42.3c0.1-25.9,0.2-51.8,0.2-77.6c0.2-50.6,0.3-101.2,0.5-151.7
							c1.3-407,2.6-814,3.9-1221c0.7-229.4,1.5-458.8,2.2-688.1c0-1.9-2.9-1.9-3,0c-10.3,161.1-12.7,322.5-15,483.9
							c-2.3,164.9-4.7,329.8-7,494.7c-4.6,327.5-9.2,655.1-13.8,982.6c-1.2,82.5-2.3,164.9-3.5,247.4c-0.6,41.2-1.2,82.5-1.7,123.7
							c-0.3,20-0.6,40.1-0.8,60.1c-0.1,9.4-0.3,18.9-0.4,28.3c-0.1,5.2-3.8,32.4-0.5,35.3c4,3.6,3.1-17.7,3.1-21.2
							c0.1-9.4,0.2-18.8,0.2-28.3c0.2-21.2,0.4-42.4,0.6-63.6c0.4-42.4,0.8-84.8,1.2-127.2c0.8-81.2,1.6-162.5,2.4-243.7
							c3.5-328.4,7.6-656.8,12.5-985.1c4.9-328.2,10.4-656.4,16.7-984.6c0.8-42.5,9.2-490.2,8.5-490.2c-2.4,0-0.2,444.8-0.1,487
							c0.8,328.2,1.2,656.5,0.9,984.7s-1.3,656.5-3.5,984.7c-0.5,82.3-1.2,164.7-1.8,247c-0.2,18.8-0.3,37.6-0.5,56.5
							c0,2.4-1.9,14.1,1.3,14.1c4,0,1.4-7.5,1.3-10.6c-0.1-11.8-0.2-23.5-0.3-35.3c-0.4-41.1-0.7-82.3-1.1-123.4
							c-1.4-163.4-2.9-326.7-4.3-490.1c-2.9-327.9-5.8-655.8-8.6-983.7c-0.7-79.9-1.4-159.8-2.1-239.8c0-1.9-3-1.9-3,0
							c-5.9,410.9-12.8,821.8-20.8,1232.7c-4,206.5-8.3,413-12.9,619.4c-1.1,51.6-2.3,103.2-3.5,154.8c-0.5,23.5-1.1,46.9-1.6,70.4
							c-0.3,12.9-0.6,25.8-0.9,38.7c0,2.1,0.6,17.2-0.4,17.6c-3.6,1.5-4.2-14.9-4.4-17.5c-4.1-47.3-1.4-96-1.6-143.4
							c-0.3-50.4-0.4-100.8-0.5-151.1c-0.5-206.2,0.2-412.5,2.1-618.7c0.9-103.1,2.2-206.1,3.7-309.2c0.3-23.4,0.7-46.8,1.1-70.2
							c0.2-12.1,2.7-26.7,0.6-38.6c-1.5-8.5-1.7-1-2.5,3.4c-1.5,8.5,0.5,19.2,0.7,27.8c1.1,49.9,1.9,99.8,2.5,149.7
							c2.3,203.2-0.1,406.5-7.1,609.7c-1.8,50.8-3.8,101.5-6.2,152.3c-1.1,23-2.2,46-3.4,69c-0.2,4,0,40.5-2.2,41.3
							c4.9-1.6,1-27.7,0.7-34.4c-4.4-100.4-7-200.9-8.7-301.4c-7.1-409.2-9-818.5-13.1-1227.7c-0.5-50.4-1-100.7-1.5-151.1
							c0-1.9-3-1.9-3,0c-3.8,301.2-8.9,602.4-15.3,903.5c-1.6,75.2-3.3,150.4-5,225.7c-0.9,37.6-1.8,75.2-2.7,112.8
							c-0.4,17.6-0.9,35.2-1.3,52.9c-0.2,7.8-2.7,20.7-0.7,28.2c3.2,11.8,2.7-14.2,2.7-17.6c-0.3-150.4,0.4-300.7,2.2-451.1
							c1.7-150.2,4.5-300.4,8.2-450.5c1.9-74.9,4-149.8,6.4-224.7c0.1-3.7,2-21.1-0.7-21c-2.5,0-1.5,21.6-1.6,24.6
							c-0.1,19.9-0.2,39.9-0.4,59.8c-0.2,37.5-0.5,75.1-0.8,112.6c-1.1,148.8-2.8,297.6-6.3,446.3c-1.8,74.6-4,149.2-6.8,223.8
							c-1.4,37.2-3,74.3-4.7,111.5c-0.4,9.3-0.9,18.5-1.3,27.8c-0.5,9.2,0.9,15.4,2.2,3.3c2.1-19.5,0.1-40.3,0.2-59.9
							c1-300.4,5.1-600.7,12.5-901c3.7-149.7,8.1-299.4,13.3-449.1c0.1-2.5,3-22.5,0.9-24.5c-2.9-2.8-2.5,18.1-2.5,21.2
							c0.2,20,0.3,39.9,0.5,59.9c0.3,37.6,0.6,75.2,0.8,112.7c0.5,75.2,0.9,150.4,1.3,225.5c1.4,299.6,1.6,599.2,0.6,898.8
							c-1,300.8-3.3,601.5-6.7,902.3c-0.9,75.2-1.8,150.3-2.8,225.5c-0.1,5.3,0.7,24.7,2.7,7c1-9.1,0-19,0-28.2
							c0-18.8,0-37.6,0-56.4c0-37.6,0-75.2,0-112.9c0-150.5,0-301,0-451.5c0-301,0-601.9,0-902.9c0-72.9,0-145.8,0-218.7
							c0-1.9-3-1.9-3,0c-3.6,345.7-8.3,691.4-14.9,1037.1c-3.3,172.6-7,345.3-11.2,517.9c-0.5,20-1,39.9-1.5,59.9
							c-0.1,5.4-1.5,12.3-0.4,17.6c1.6,8.6,2,0.8,3-3.6c2.3-10.6,0.4-24.5,0.6-35.3c0.7-42.4,1.4-84.7,2.1-127.1
							c1.5-87,3.1-174.1,4.7-261.1c6.5-345.6,14.2-691.1,23.1-1036.6c8.8-343.8,18.8-687.6,30-1031.3
							c5.6-172.2,11.5-344.4,17.7-516.6c0.8-21.1,1.5-42.1,2.3-63.2c0.3-9.2,1.6-18.9,1-28.1c-0.5-7.4,2.5-7.2-2.4-7
							c-0.1,0,0.1,18.3,0.2,21.1c0.3,43.4,0.6,86.8,0.7,130.1c0.3,85.6,0.2,171.2-0.3,256.8c-0.9,173.4-3.4,346.8-7.3,520.2
							c-1.9,84.2-4.2,168.3-6.9,252.5c-2.6,83.6-1.6,168.9-14.6,251.7c-0.4,2.4-3.5,23.2-3.9,23.2c-1.3,0.1-4-22.5-4.2-24.3
							c-2-19.8-1.9-39.7-2-59.5c-0.4-43.3-0.7-86.6-1-129.9c-0.6-85.5-1-171-1.3-256.4c-0.6-172.2-0.6-344.3-0.1-516.5
							c0.1-42.2,0.3-84.3,0.5-126.5c0-3.6,0.9-29.5-2.9-17.5c-2.7,8.5-0.1,22.6-0.1,31.8c-0.1,22.4-0.1,44.7-0.2,67.1
							c-0.3,86-0.6,171.9-0.9,257.9c-0.7,174.3-1.4,348.6-2.3,522.9c-1.7,345-3.9,690-6.5,1035s-5.6,689.9-9.1,1034.9
							c-0.9,84.8-1.7,169.5-2.6,254.3c0,1.9,3,1.9,3,0c4.5-419.1,8.3-838.3,11.5-1257.4c3.2-416.8,5.7-833.7,7.6-1250.5
							c1.1-235.5,2-471,2.6-706.6c0-1.9-3-1.9-3,0c-1.5,304.5-1.3,609,0.7,913.5c0.3,42.1,0.6,84.3,0.9,126.4
							c0.3,34.8-3.1,73.4,7.9,106.9c0.4,1.3,2.6,1.5,2.9,0c18.9-86.7,16.7-178.1,19.5-266.4c3.1-95.8,5.6-191.7,7.8-287.5
							c4.3-194.5,6.7-389,7.2-583.6c0.3-110.2-0.1-220.4-1-330.6c0-1.9-2.9-1.9-3,0c-14.9,406.6-28.1,813.3-39.7,1220
							c-11.6,406.4-21.6,812.8-29.9,1219.3c-4.7,229.3-8.9,458.7-12.6,688.1c0,1.9,3,1.9,3,0c11.4-446.5,19.3-893,24.9-1339.5
							c0.7-54.1,1.3-108.2,1.9-162.3c0.3-27.1,0.6-54.1,0.9-81.2c0.1-12.9,0.3-25.9,0.4-38.8c0-3.4,3.3-15.4-2.8-14.1
							c-0.8,0.2,0,25.9,0,28.2c0,110.5,0,221,0,331.5c0,223.4,0,446.7,0,670.1c0,249.2,0,498.5,0,747.7c0,1.9,3,1.9,3,0
							c4.4-321.8,7.5-643.7,9.1-965.6s1.8-643.9,0.6-965.8c-0.7-180.9-1.8-361.8-3.4-542.6c0-1.9-2.9-1.9-3,0
							c-13.4,377-21.9,754.2-25.4,1131.5c-1,108-1.6,216-1.7,324.1c0,1.9,2.9,1.9,3,0c13.4-267.2,17.6-534.7,19.8-802.2
							c0.6-76.2,1.1-152.4,1.5-228.7c0-1.9-2.9-1.9-3,0c-9.9,307.2-15.7,614.5-17.2,921.8c-0.4,86.9-0.5,173.9-0.3,260.8
							c0,1.9,3,1.9,3,0C474,1001,481.8,602.4,487.4,203.7c0.3-24.7,0.7-49.4,1-74.2c0.2-11.8,0.3-23.5,0.5-35.3
							c0-3.8,0.9-10.1,0.2-14.1c-3.1-16.9-2.7,0.5-2.6,7c0.5,49.2,1,98.4,1.5,147.6c1,98.4,2,196.8,3,295.2
							c2,199.1,4.1,398.3,6.1,597.4c2.3,220.1,3.8,440.2,14.5,660.1c0.1,1.9,2.9,1.9,3,0c15.3-277.6,21.8-555.7,19.7-833.7
							c-0.6-78.9-1.9-157.8-3.9-236.7c0-1.9-3-1.9-3,0c-6.3,374.8-8.8,749.7-7.4,1124.6c0.2,51.5,0.4,103.1,0.8,154.6
							c0.1,22.4-0.9,45.2,1.6,67.5c0.7,5.9,0.7,18.8,7.9,21.1c1,0.3,1.9-0.5,1.9-1.4c6.1-261.6,11.8-523.1,17.1-784.7
							c5.3-261.7,10.1-523.5,14.4-785.2c2.2-130.3,4.2-260.7,6.2-391c0.5-32.9,1-65.8,1.5-98.6c0.2-15.3,0.4-30.5,0.7-45.8
							c0.1-7.5,1.8-17.3,0.4-24.7c0-0.2,0.2-6.2-2.8-3.5c-1.2,1.1,0.1,15,0.2,17.6c0.6,65.8,1.2,131.6,1.7,197.5
							c2.3,260.9,4.6,521.8,6.9,782.8c2.3,262.1,4.6,524.2,6.9,786.3c0.3,32.9,0.6,65.8,0.9,98.7c0,1.9,3,1.9,3,0
							c3.3-362.3,5-724.7,5.7-1087c0.7-362.4,0.4-724.7-0.4-1087.1c-0.4-204.7-1-409.4-1.6-614.1c0-1.9-3-1.9-3,0
							c-8.2,385.7-15.4,771.4-21.7,1157.1c-6.2,383.6-11.5,767.3-15.8,1151c-2.4,216.6-4.6,433.3-6.4,649.9c0,1.9,3,1.9,3,0
							c4.3-304,8.5-608,12.8-911.9c4.3-305.2,8.6-610.3,12.9-915.5c2.1-150.1,3.3-300.3,8.3-450.4c1.2-36.7,2.7-73.5,4.5-110.2
							c0.9-18.2,1.9-36.5,3-54.7c0.4-6.1,0-23.5-1.8-6.3c-1.1,10.3-0.1,21.4-0.1,31.8c-0.2,75.3-0.5,150.6-0.7,225.9
							c-1,304.7-2,609.3-2.9,914c-1,303.5-1.9,607-2.9,910.5c-0.1,37.6-0.2,75.3-0.4,112.9c0,2,2.8,1.9,3,0
							c7.6-66.2,8.1-132.9,8.2-199.4c0.1-70.1,0.1-140.1,0.2-210.2c0.1-140.5,0.3-280.9,0.4-421.4c0-17.6,0-35.1,0.1-52.7
							c0-3.1,1-24.4,0-24.6c-5.1-1.2-2.6,16.7-2.6,21.2c0.5,35.2,1.1,70.5,1.6,105.7c1.1,70.5,2.3,140.9,3.5,211.4
							c2.4,140.8,5.2,281.6,8.7,422.3c3.9,159,8.8,317.9,15,476.8c0.1,1.9,2.8,1.9,3,0c11-137.4,9.3-275.4,9.3-413.1
							c0-140.7,0-281.4,0-422.1c0-139.5,0-279.1,0-418.6c0-17.6,0-35.2,0-52.8c0-7.7,1.5-17.2,0-24.6c0,0,0.1-6.2-2.8-3.6
							c-1.2,1.1,0.5,14.9,0.6,17.5c1.2,35,2.4,69.9,3.7,104.9c2.7,69.7,5.6,139.4,8.9,209.1c7.4,155.5,16.5,311,27.2,466.3
							c0.1,1.9,3,2,3,0c-3.2-236-7.8-471.9-13.8-707.8c-6-235.1-13.3-470.3-22.1-705.3c-5-132.9-10.4-265.7-16.2-398.5
							c-0.1-1.9-3-1.9-3,0c-4.7,238.5,1.9,477,11.2,715.3c2.6,67.4,5.5,134.9,8.3,202.3c0.1,1.9,3,1.9,3,0
							c-0.3-216.8-3.3-433.7-9-650.5c-0.1-1.9-3-1.9-3,0c2.8,350.4,8.7,700.8,17.9,1051c2.6,98.5,5.4,196.9,8.5,295.3
							c0.1,1.9,3,1.9,3,0c3.7-264.5,1.4-529-7-793.4c-0.1-1.9-3-1.9-3,0c-5.8,335.6-6,671.4-0.2,1007c1.6,94.5,3.7,189,6.3,283.4
							c0.1,1.9,3,1.9,3,0c-0.8-272.8-1.5-545.6-4.1-818.4c-2.6-272-6.9-544-14.9-815.8c-4.5-153.1-10.1-306.1-17.2-459.1
							c-0.1-1.9-3-1.9-3,0C612,69.5,613,392.9,620.7,716c2.1,90.9,4.8,181.9,8,272.8c0.1,1.9,3,1.9,3,0
							c-5.2-255.8-12.1-511.6-20.9-767.3c-2.5-72.5-5.2-145-8-217.5c-0.1-1.9-3.1-1.9-3,0c5.9,199.6,17.8,399.1,36.4,597.9
							c0.2,1.9,2.9,2,3,0c9.2-300,6.5-600.3-8.6-900.1c-4.2-83.9-9.4-167.7-15.6-251.4c-0.1-1.9-3-2-3,0c-6,240.6-9,482.3-9.4,723.9
							c-0.4,241.7,1.6,483.4,5.9,725.1c2.4,135.8,5.5,271.5,9.1,407.3c0.1,1.9,3,1.9,3,0c-2.3-237.8-7.8-475.5-16.6-713.2
							c-2.5-67.2-5.3-134.3-8.3-201.5c-0.1-1.9-3-1.9-3,0c-2.6,250.8,1.1,501.7,11.2,752.3c0.1,1.9,3,1.9,3,0
							c2.8-407.9-0.9-815.8-11.2-1223.5c-2.9-114.4-6.3-228.7-10.2-343c-0.1-1.9-3-1.9-3,0c-6.7,436.8-9.2,873.6-7.2,1310.4
							c0.6,124.4,1.5,248.9,2.7,373.3c0,1.9,3,1.9,3,0c4.8-312.3,5.4-624.7,1.8-937c-1-89.1-2.4-178.2-4.1-267.3c0-1.9-3-1.9-3,0
							c-6.8,400.9-10.2,802-10,1203c0,98.5,0.3,197,0.8,295.5c0,1.5-0.5,21,0.1,21.1c6.3,1.5,2.9-6.9,2.9-10.6
							c-0.1-11.8-0.2-23.5-0.3-35.3c-0.2-27-0.5-54.1-0.7-81.1c-0.4-49.4-0.8-98.8-1.2-148.2c-1.7-199.9-3.4-399.8-5.1-599.7
							c-1.9-225.8-3.8-451.6-5.7-677.4c0-1.9-3-1.9-3,0c-0.1,332.4-0.3,664.7-0.4,997.1c0,94.3-0.1,188.6-0.1,282.9c0,1.9,3,1.9,3,0
							c2.6-361.4-2-722.9-13.9-1084.2c-3.4-102.5-7.4-205-11.9-307.5c-0.1-1.9-2.9-1.9-3,0c-9.7,277.7-15.4,555.5-18.3,833.4
							c-2.9,278.6-2.9,557.2-1.2,835.9c1,156.8,2.5,313.6,4.4,470.4c0,1.9,3,1.9,3,0c6.9-437,3.1-874-3.3-1311
							c-1.8-122.1-3.7-244.2-5.7-366.2c0-1.9-3-1.9-3,0c1.7,364.9,3,729.7,5,1094.6c0.5,101.7,1.6,203.5,6.2,305.1
							c0.1,1.9,3,1.9,3,0c4.1-311.2,3.4-622.5-2.3-933.6c-1.6-88.7-3.7-177.3-6.1-266c-0.1-1.9-3-1.9-3,0
							c-1,311.5-1.9,623.1,5.3,934.5c2,88.4,4.8,176.9,8.3,265.3c0.1,1.9,3,1.9,3,0c3.4-318.6,5.3-637.3,5.6-955.9
							s-1-637.2-3.9-955.8c-1.6-178.5-3.7-357.1-6.3-535.6c0-1.9-3-1.9-3,0c-0.3,292-0.7,584-1,876c-0.1,72.7-0.2,145.4-0.3,218.1
							c0,8.4-1.8,20,0,28.1c2.5,11.3,3-6.3,3-10.6c0-18.8,0-37.6,0-56.4c-0.1-36.5-0.1-72.9-0.3-109.4
							c-0.5-146.9-1.6-293.8-3.3-440.7c-1.9-164.3-4.6-328.7-8-493c0-1.9-3-1.9-3,0c-2.5,406.7-3.1,813.5-1.8,1220.3
							c1.3,404.2,4.5,808.4,9.7,1212.5c2.9,227.7,6.4,455.4,10.5,683.1c0,1.9,3,1.9,3,0c2.2-258.6,3.7-517.2,4.8-775.8
							c1.1-258.6,1.8-517.3,2.3-775.9s0.7-517.3,0.9-775.9c0-32.9,0.1-65.8,0.1-98.7c0-15.3,0-30.6,0-45.8c0-3.1,1-24.5,0-24.7
							c-5.2-1.2-2.7,13.8-2.7,17.7c0.9,64.7,1.7,129.5,2.6,194.2c1.7,129.5,3.5,259,5.2,388.5c3.4,258.4,4.4,517,16.2,775.2
							c1.4,31.1,3,62.2,4.8,93.3c0.1,1.9,2.9,1.9,3,0c13.1-379.9,20.5-759.9,22.4-1140c0.5-108.1,0.6-216.2,0.2-324.3
							c0-1.9-3-1.9-3,0c-4.9,288.7-8.3,577.5-10.1,866.3c-1.9,287.7-2.2,575.4-1.1,863.2c0.1,36.4,0.3,72.8,0.5,109.2
							c0.1,16.4,0.2,32.9,0.3,49.3c0.1,9.4,0.1,18.8,0.2,28.2c0,3.9-2.7,25.6,0.2,28.2c3.6,3.2,2.8-18.1,2.8-21.2
							c-0.1-8.2-0.1-16.5-0.2-24.7c-0.2-18.8-0.3-37.7-0.5-56.5c-0.3-36.5-0.7-73-1.1-109.5c-1.5-144.8-3.2-289.5-5.3-434.3
							c-4.1-288-9.4-576-15.9-864c-3.2-144.4-6.8-288.7-10.6-433.1c0-1.4,0.7-9.7-0.3-10.6c-4.5-4-2.4,6.2-2.5,6.9
							c-1.1,8.5,1,19.3,1.4,27.9c1,18.6,1.9,37.2,2.9,55.8c1.8,34.9,3.6,69.8,5.4,104.7c3.7,72.1,7.4,144.2,11.2,216.3
							c1.8,34.9,3.6,69.8,5.4,104.7c0.1,1.9,3,1.9,3,0c-1.2-292.5-5-585-11.6-877.4c-1.9-83.2-4-166.4-6.3-249.5c-0.1-1.9-3-1.9-3,0
							c-0.3,369.6-0.5,739.1-0.8,1108.7c-0.3,367.2-0.5,734.4-0.8,1101.6c0,47.1-0.1,94.2-0.1,141.2c0,10.6,0,21.2,0,31.8
							c0,2.2-2,14.9,3,10.6c0.8-0.7,0-11.9,0-14.1c-0.1-23.5-0.2-47.1-0.2-70.6c-0.3-93-0.6-185.9-0.9-278.9
							c-0.6-184.8-1.2-369.5-1.8-554.3c-0.6-183.6-1.2-367.2-1.8-550.7c-0.1-45.9-0.3-91.8-0.4-137.7c-0.1-22.4-0.1-44.7-0.2-67.1
							c0,1,0.3-14,0-14.1c-6.1-1.9-2.8,11.1-2.8,14.1c0.1,11.8,0.3,23.5,0.4,35.3c1,91.8,2,183.5,3.1,275.3
							c4.1,369.4,8.2,738.8,12.3,1108.2c0.5,44.7,1,89.4,1.5,134.1c0,1.9,3,1.9,3,0c8.9-389.4,11.6-778.9,12.7-1168.4
							c0.3-96.3,0.5-192.6,0.6-288.8c0-23.5,0.1-47,0.1-70.4c0-4.7,0-9.4,0-14.1c0-0.7,2.3-18.7-2.9-14.1c-0.8,0.7,0.2,12,0.2,14.1
							c0.1,9.4,0.2,18.8,0.4,28.3c0.6,47.1,1.2,94.2,1.9,141.3c2.6,195.4,5.4,390.8,8.2,586.3c1.6,108.3,3.2,216.6,4.9,324.9
							c1.6,105.1,1.4,210.7,13.4,315.2c0.2,1.9,3,2,3,0c1-308-1.9-616.1-8.8-924.1c-1.7-77.1-3.7-154.1-6-231.1
							c-0.1-4.3,1-10-0.4-14c-1.7-4.9-1.6-5-3,0.1c-2,7,0.5,17.4,0.8,24.6c0.6,21.1,1.3,42.2,1.9,63.3c1.2,37.5,2.3,75,3.5,112.5
							c4.8,154.7,9.5,309.5,14.3,464.2c5.3,173.5,10.7,347,16,520.5c0.1,1.9,3,1.9,3,0C618.8,1048,610,608.8,595.7,169.8
							c-4-123.9-8.5-247.7-13.4-371.6c-0.1-1.9-3-1.9-3,0c1.8,330.7,3.6,661.5,5.4,992.2c0.4,82.4,0.9,164.8,1.3,247.2
							c0.2,41.2,0.4,82.4,0.7,123.6c0.1,20,0.2,40,0.3,60c0.1,9.9-1.7,22,0.2,31.8c0.5,2.8-2.4,8.8,3,7.1c1-0.3-0.2-20.1-0.2-21.2
							c-1.7-164.9-3.4-329.8-5.1-494.8c-1.9-186.1-3.8-372.2-5.7-558.4c0-1.9-3-1.9-3,0c-0.5,298.8-0.9,597.5-1.4,896.3
							c-0.1,84.7-0.3,169.4-0.4,254.1c0,1.9,3,1.9,3,0c1.8-310.5,5-621,9.6-931.5c0.6-38.8,1.2-77.6,1.8-116.4
							c0.3-17.6,0.6-35.3,0.9-52.9c0-2.7,1.3-28,0.5-28.2c-4.5-1.1-1.5,22.9-1.3,27.7c3.4,76.6,6.2,153.2,8.8,229.8
							c5.1,154,8.7,308,11.6,462c3.2,173.2,5.5,346.4,7.7,519.6c0,1.9,3,1.9,3,0c0.2-220.4,0.3-440.9,0.5-661.3
							c0.1-109.1,0.2-218.1,0.2-327.2c0-27,0-53.9,0.1-80.9c0-9.1,2.4-84,0.1-84.4c-4.8-0.9-1.9,22-1.7,27.6
							c0.5,13.9,0.9,27.8,1.4,41.6c0.9,27.8,1.6,55.6,2.2,83.4c2.8,123.3,3.3,246.6,1.7,369.9C624,816.5,627,816.5,627,814.5
							L627,814.5z"/>
					</g>
				</g>
			</g>
		</g>
	</g>
</g>
</svg>
