<?xml version="1.0" encoding="utf-8"?>
<!-- Generator: Adobe Illustrator 19.2.0, SVG Export Plug-In . SVG Version: 6.00 Build 0)  -->
<svg version="1.1" id="Calque_1" xmlns="http://www.w3.org/2000/svg" xmlns:xlink="http://www.w3.org/1999/xlink" x="0px" y="0px"
	 viewBox="0 0 500 400" style="enable-background:new 0 0 500 400;" xml:space="preserve">
<style type="text/css">
	.st0{clip-path:url(#SVGID_2_);}
	.st1{fill:#E700C9;}
	.st2{clip-path:url(#SVGID_4_);}
</style>
<g>
	<defs>
		<polygon id="SVGID_1_" points="293.6,191.8 293.6,296 293.6,400.1 429.8,400.1 429.8,296 429.8,191.8 		"/>
	</defs>
	<clipPath id="SVGID_2_">
		<use xlink:href="#SVGID_1_"  style="overflow:visible;"/>
	</clipPath>
	<g class="st0">
		<g>
			<path class="st1" d="M221.9,84.4c78.9,9.9,157.8,19.7,236.7,29.6c0-2,0-4,0-6c-51.5,2.4-103,2.1-154.5-1c0,2,0,4,0,6
				c30.9,0.5,61.6,4.5,91.5,11.9c0.3-2,0.5-3.9,0.8-5.9c-42.2,1.4-84.4,1-126.6-1.1c0,2,0,4,0,6c32.1,0.2,64.3,0.4,96.4,0.5
				c0-2,0-4,0-6c-28.2,2.4-56.6,3.4-84.9,2.8c0,2,0,4,0,6c42.2-2.4,84.6-0.4,126.4,5.9c0.3-2,0.5-3.9,0.8-5.9
				c-56.4,2.9-112.8,3.2-169.2,0.8c0,2,0,4,0,6c24.7,1,49.3,2.5,74,4.5c12.1,1,24.1,2.1,36.1,3.3c11.4,1.2,22.9,2.8,33.1,8.4
				c0.2-1.8,0.5-3.7,0.7-5.5c-20.8,4.5-41.8,6.8-63,7.1c0,2,0,4,0,6c20.8-0.5,41.6-1,62.5-1.5c0-2,0-4,0-6
				c-36,1.4-72.1,0.9-108.1-1.3c0,2,0,4,0,6c54.5-3.9,109.2-3.6,163.7,0.9c0-2,0-4,0-6c-44.6,3-89.4,3.9-134.1,2.8c0,2,0,4,0,6
				c47.3,0.6,94.7,1.2,141.9,6.4c-0.3-2-0.5-3.9-0.8-5.9c-56.2,8.6-113.1,12.1-169.9,10.7c0,2,0,4,0,6c31.8-0.2,63.5,2.8,94.7,8.9
				c0.3-2,0.5-3.9,0.8-5.9c-47.2,2.3-94.6-0.5-141.2-8.6c-0.3,2-0.5,3.9-0.8,5.9c37,1.3,73.9,3.1,110.8,5.6
				c18.5,1.3,36.9,2.7,55.3,4.2c9.1,0.8,18.3,1.6,27.4,2.4c8.9,0.9,17.7,2,25.9,5.8c0.5-1.9,1-3.7,1.5-5.6
				c-43.8,5.8-88.4,3.9-131.6-5.7c0,1.9,0,3.9,0,5.8c53.1-7.2,106.9-4.4,160.3-1.7c0-2,0-4,0-6c-88.1,2.2-176.1-1.8-264-7.3
				c-24.9-1.5-49.8-3.2-74.6-4.9c-3.3-0.2-4.2,5.4-0.8,5.9c49.6,7.4,99,16.1,148.1,26.1c0.3-2,0.5-3.9,0.8-5.9
				c-15.8,1.9-31.6,2-47.4,0.1c0,2,0,4,0,6c52.6-1.3,105.3,2.2,157.2,10.6c0.3-2,0.5-3.9,0.8-5.9c-39.8,0.8-79.7-1.8-119.1-7.8
				c-0.3,2-0.5,3.9-0.8,5.9c32.4-2.2,64.9-0.7,96.9,4.7c0.3-2,0.5-3.9,0.8-5.9c-50.9,4.6-102.1,3.5-153.1,2.2
				c-3.3-0.1-4.2,5.2-0.8,5.9c41,8.2,81.9,16.4,122.9,24.5c0-1.9,0-3.9,0-5.8c-11.1,4.1-22.6,5.8-34.4,5c0,2,0,4,0,6
				c64.7,1.9,129.2,6.7,193.5,14.4c0-2,0-4,0-6c-64.3-1.5-128.5-6.6-192.2-15.1c0,2,0,4,0,6c51.5-2,103-1.2,154.4,2.3
				c3.9,0.3,3.8-5.7,0-6c-83.7-6.7-167.2-16.4-250.2-29.2c-0.3,2-0.5,3.9-0.8,5.9c39.3,2.2,78.5,5.6,117.6,10.5
				c19.8,2.4,39.6,5.2,59.3,8.3c17.9,2.9,35.8,6.3,52.2,14.2c0.5-1.9,1-3.7,1.5-5.6c-37.2,2.8-74.6,0.1-111.1-8.1c0,1.9,0,3.9,0,5.8
				c30.4-5.2,61.5-4.8,91.8,1.3c0-1.9,0-3.9,0-5.8c-54.9,9-110.5,12.2-165.9,15.4c-3.9,0.2-3.8,5.7,0,6c46.3,3.3,92.5,6.7,138.8,10
				c0-2,0-4,0-6c-77.2-3.4-154.2-11.1-230.5-23.3c-21.6-3.5-43.2-7.3-64.8-11.4c0,1.9,0,3.9,0,5.8c19.3-5,39.2-4.3,58.9-3.1
				c20,1.2,39.9,2.7,59.9,4.4c40.7,3.5,81.2,8.1,121.6,13.8c0.3-2,0.5-3.9,0.8-5.9c-6.8,0.6-13.6,1.2-20.4,1.7c-3.8,0.3-3.9,6.1,0,6
				c56.6-1.4,113.3,3,169,13.1c-0.2-1.8-0.5-3.7-0.7-5.5c-9.8,5.6-21.8,4.6-32.7,4.5c-12.9-0.1-25.7-0.3-38.6-0.6
				c-25.4-0.6-50.8-1.8-76.1-3.4c0,2,0,4,0,6c18.4-1.7,36.9-2,55.4-1c0-2,0-4,0-6c-62.8,0.4-125.5-4.1-187.6-13.5
				c-0.3,2-0.5,3.9-0.8,5.9c36.7,3,73.2,7.7,109.4,14.1c17.9,3.2,35.8,6.7,53.5,10.7c15.2,3.4,34.1,5.5,45.8,16.8
				c0.7-1.7,1.4-3.4,2.1-5.1c-23,2.9-46.3,2.6-69.3-1c-0.5,1.9-1.1,3.9-1.6,5.8c34.6,5.1,69.3,10.3,103.9,15.4
				c0.3-2,0.5-3.9,0.8-5.9c-61.9-5.3-123.4-15.3-183.8-29.9c-0.3,2-0.5,3.9-0.8,5.9c33.2-3,66.5,0.3,98.5,9.9c0.3-2,0.5-3.9,0.8-5.9
				c-24.5,0.9-48.8-2.2-72.2-9.3c-0.3,2-0.5,3.9-0.8,5.9c47.4-2.3,94.9,0.9,141.6,9.5c0.5-1.9,1.1-3.9,1.6-5.8
				c-30.6-4.6-61.3-9.2-91.9-13.8c-0.3,2-0.5,3.9-0.8,5.9c34.6-0.7,69.2,2.7,103,10.2c0.3-2,0.5-3.9,0.8-5.9
				c-63.5-0.1-127-2.4-190.3-6.9c0,2,0,4,0,6c51.5,3.2,102.8,9.2,153.7,17.9c0.3-2,0.5-3.9,0.8-5.9c-19.5,1-39,0.4-58.3-1.8
				c-3.3-0.4-4.1,5.3-0.8,5.9c63.3,12.1,128.4,5.1,191.7,17.2c0.5-1.9,1.1-3.9,1.6-5.8c-68.6-12.7-138.4-14.1-207.6-21.6
				c-20.4-2.2-40.8-5-60.9-8.8c-0.5,1.9-1.1,3.9-1.6,5.8c18.1,3,35.9,7.2,53.5,12.5c-0.2-1.8-0.5-3.7-0.7-5.5c-7.6,5.6-18.3,3-27,2
				c-10.2-1.1-20.4-2.2-30.6-3.3c-20.7-2.2-41.4-4.5-62.2-6.7c-3.4-0.4-4,5.1-0.8,5.9c47.9,11.3,95.5,24.4,142.5,39.1
				c0.3-2,0.5-3.9,0.8-5.9c-11.9,1.2-23.7,2.4-35.6,3.6c-3.9,0.4-3.8,5.5,0,6c34,4.1,68.1,8.3,102.1,12.4c0-2,0-4,0-6
				c-44.3-5.2-88.4-12.2-132.1-21.2c-0.3,2-0.5,3.9-0.8,5.9c74.2,3.8,148.1,13.5,220.8,28.9c0.3-2,0.5-3.9,0.8-5.9
				c-23.7,2-47.3-0.4-70.1-7.3c0.4,1.7,0.9,3.3,1.3,5c6.4-5.2,12.8-10.3,19.2-15.5c2.3-1.9,0.1-4.8-2.1-5.1
				c-71.5-9.4-143.1-18.9-214.6-28.3c0,2,0,4,0,6c24.7,1.4,49.3,4.1,73.7,8.5c11.7,2.1,23.3,4.5,34.8,7.2c5.9,1.4,11.8,2.9,17.7,4.5
				c2.8,0.7,5.6,1.4,8.3,2.4c1.9,0.7,7.7,4.3,3.8,6.5c-2.9,1.6-1.2,5.2,1.5,5.6c22.6,3,45.2-0.6,67.5-4.2c3.6-0.6,2.3-5.6-0.8-5.9
				c-59.8-6.4-119.3-14.8-178.5-25.4c-0.3,2-0.5,3.9-0.8,5.9c40.8-0.3,81.6,1.5,122,6.6c0-2,0-4,0-6c-18.7,0.1-37.3-0.8-55.9-2.7
				c0,2,0,4,0,6c8.6,0.5,16.9,2.2,25,5.1c0-1.9,0-3.9,0-5.8c-18.3,2.7-36.6,5.4-54.9,8.1c-3.6,0.5-2.2,5.5,0.8,5.9
				c51.6,6,103.2,12.1,154.8,18.1c-0.7-1.7-1.4-3.4-2.1-5.1c-3.5,3.7-7.6,5.7-12.6,6.4c-2.9,0.4-2.8,5.3,0,5.8
				c12.9,2.1,25.9,4.2,38.8,6.4c0.3-2,0.5-3.9,0.8-5.9c-47.6-5.6-95.1-11.1-142.7-16.7c-3.4-0.4-4,5.1-0.8,5.9
				c53.3,13.8,106.7,27.7,158.5,46.5c0.3-2,0.5-3.9,0.8-5.9c-59.8-6.4-119.2-16.3-177.9-29.6c-0.5,1.9-1.1,3.9-1.6,5.8
				c12.4,2,24.8,4,37.2,6c3.7,0.6,5.4-4.9,1.6-5.8c-33.2-7.3-66.3-14.6-99.5-22c-0.3,2-0.5,3.9-0.8,5.9c48.6,2.3,97,8.5,144.6,18.6
				c0.3-2,0.5-3.9,0.8-5.9c-27.9-2.6-55.5-7.5-82.6-14.6c-0.3,2-0.5,3.9-0.8,5.9c32.6-1.2,65.2,0.7,97.4,5.7
				c3.8,0.6,5.4-5.2,1.6-5.8c-36.3-5.9-72.7-11.8-109-17.7c-0.3,2-0.5,3.9-0.8,5.9c22.8-2,43.3,9.7,64.4,16.4
				c22.1,6.9,45.5,7.8,68.4,8.7c3.9,0.1,3.8-5.7,0-6c-29.8-2.3-59.6-3.5-89.4-3.8c-3.4,0-4.1,5-0.8,5.9c6.4,1.7,75.8,19.7,75.6,20.6
				c1-0.7,1.9-1.5,2.9-2.2c-40.5,5.3-81,10.6-121.5,15.9c-2,0.3-3.3,1.7-2.9,3.8c1.4,7.5,11.4,7.9,17.3,9c10.1,2,20.3,3.9,30.4,5.9
				c20.6,4,41.2,8,61.7,11.9c0.3-2,0.5-3.9,0.8-5.9c-43.1-5.4-85.4-15.6-126.3-30.3c0.2,1.8,0.5,3.7,0.7,5.5
				c7.7-4.7,16.1-7.3,25.1-7.7c3.8-0.2,3.9-6,0-6c-19.8,0.1-39.5-2.2-58.8-6.9c-0.3,2-0.5,3.9-0.8,5.9c68.6-1,137.2,1.5,205.6,7.3
				c3.3,0.3,4.1-5.3,0.8-5.9c-2.3-0.4-4.6-0.8-6.9-1.1c-0.3,2-0.5,3.9-0.8,5.9c9.8-1.2,19.6-2.5,29.4-3.7c3.7-0.5,4-6.1,0-6
				c-20.2,0.3-40.3,1.1-60.4,2.6c-3.1,0.2-4.3,5.3-0.8,5.9c3.7,0.7,7.4,1.3,11.2,2c0.3-2,0.5-3.9,0.8-5.9
				c-34.3-4-68.7-7.3-103.2-10.1c-3.4-0.3-4,5-0.8,5.9c10.5,3,21.1,6.1,31.6,9.1c0-1.9,0-3.9,0-5.8c-22.1,3.2-44.5,4.3-66.8,3.4
				c-3.4-0.1-4.1,5.1-0.8,5.9c4.5,1.1,9,2.2,13.4,3.3c0.3-2,0.5-3.9,0.8-5.9c-31.4-3.9-62.9-7.7-94.3-11.6c-3.4-0.4-4.1,5.1-0.8,5.9
				c28.7,6.6,57.5,13.2,86.2,19.9c0.5-1.9,1.1-3.9,1.6-5.8c-34.6-5-69.1-10.6-103.5-16.9c-0.3,2-0.5,3.9-0.8,5.9
				c34.7,1.7,69.1,6.9,102.6,15.7c16.4,4.3,32.4,10,48.8,14.4c16.4,4.4,33.2,6.2,50.1,6.8c19.9,0.8,39.8,0.6,59.5,3.9
				c0.3-2,0.5-3.9,0.8-5.9c-38.6-4.3-76.9-10.2-115-17.6c-3.8-0.7-5.4,4.9-1.6,5.8c14.9,3.5,29.8,6.9,44.7,10.4
				c0.3-2,0.5-3.9,0.8-5.9c-31.6,3.2-63.3,1.5-94.3-5.2c-0.3,2-0.5,3.9-0.8,5.9c14.1-0.6,28.1-1.2,42.2-1.8c3.9-0.2,3.9-5.8,0-6
				c-15-0.8-29.5-4.6-43-11.2c-0.5,1.9-1,3.7-1.5,5.6c62.6-5.7,125.1,2.6,187.1,10.9c0-2,0-4,0-6c-32.2-0.5-64.2-4.4-95.6-11.4
				c0,1.9,0,3.9,0,5.8c21.5-3.7,43.5-2.6,64.6,3.1c0.3-2,0.5-3.9,0.8-5.9c-28.5,1.3-57.1,2.5-85.6,3.8c-3.8,0.2-3.9,6,0,6
				c16.9,0.1,33.5,2.3,49.8,6.7c0-1.9,0-3.9,0-5.8c-24.3,5.5-48.9,8.7-73.8,9.7c-3.9,0.1-3.8,5.7,0,6c13.4,0.9,26.8,1.9,40.2,2.8
				c0-2,0-4,0-6c-31.9,0.9-63.8,0-95.6-2.6c-3.4-0.3-4.1,5.2-0.8,5.9c62.2,12.5,127.7,6.5,187.5,30c0.5-1.9,1.1-3.9,1.6-5.8
				c-50.6-6.9-101.5,5.4-152-1.5c-3.7-0.5-5.5,4.8-1.6,5.8c18,4.7,34.6-9.4,52.3-4.8c19,5,38.7,10.9,58,3.4c2.5-1,3.1-5.1,0-5.8
				c-25.2-5.8-50.3,7.1-75.4,1.3c-0.3,2-0.5,3.9-0.8,5.9c26.2-3.2,52.7-3.6,79-1.2c3.9,0.4,3.8-5.6,0-6
				c-37.3-4.2-74.8-8.6-110.6-20.1c-0.3,2-0.5,3.9-0.8,5.9c9.3-1,18.6-2,27.9-3c3.8-0.4,3.9-5.9,0-6c-30.9-1.1-61.8-3-92.6-5.5
				c0,2,0,4,0,6c29.5,0.3,59,2.9,88.1,7.9c0.3-2,0.5-3.9,0.8-5.9c-43.7,1.3-87.3-1.4-130.5-8.1c-3.7-0.6-5.4,5.1-1.6,5.8
				c72.2,13.7,146.6,10.4,218.1,28.2c0.3-2,0.5-3.9,0.8-5.9c-28.3-2.7-56.3-7.1-84-13.4c-0.3,2-0.5,3.9-0.8,5.9
				c26.2,2.8,51.9,8.5,76.8,17.1c0.3-2,0.5-3.9,0.8-5.9c-26.8-1.3-53.5-2.7-80.3-4c-3.6-0.2-3.8,4.8-0.8,5.9c15.9,6,32.3,10.7,49,14
				c3.8,0.7,5.4-4.9,1.6-5.8c-27.5-6.4-54.5-14.9-80.6-25.5c0.2,1.8,0.5,3.7,0.7,5.5c-2.8-1.4-3.8-1.6-3.2-0.4
				c0.1,0.4,0.3,0.8,0.4,1.3c0.1,1,0.6,2.2,0.8,3.3c0.5,2.2,0.9,4.4,1.5,6.5c0.8,3,2.4,6.5,6.1,4.8c2.1-0.9,1.8-4.1,0-5.2
				c-2.7-1.6-4.9-3.5-6.8-6.1c-2.3-3.1-7.5-0.1-5.2,3c2.5,3.4,5.3,6.1,9,8.2c0-1.7,0-3.5,0-5.2c2.8,1.4,3.8,1.6,3.2,0.4
				c-0.1-0.4-0.3-0.8-0.4-1.3c-0.1-1-0.6-2.2-0.8-3.3c-0.5-2.2-0.9-4.4-1.5-6.5c-0.8-3-2.4-6.5-6.1-4.8c-2.7,1.2-1.4,4.6,0.7,5.5
				c26.2,10.6,53.1,19.2,80.6,25.5c0.5-1.9,1.1-3.9,1.6-5.8c-16.7-3.3-33-8-49-14c-0.3,2-0.5,3.9-0.8,5.9c26.8,1.3,53.5,2.7,80.3,4
				c3.5,0.2,3.9-4.8,0.8-5.9c-25.4-8.7-51.7-14.4-78.4-17.3c-3.4-0.4-4.1,5.2-0.8,5.9c28.2,6.3,56.8,10.9,85.6,13.6
				c3.4,0.3,4-5.1,0.8-5.9c-71.5-17.8-146-14.5-218.1-28.2c-0.5,1.9-1.1,3.9-1.6,5.8c43.7,6.8,87.9,9.6,132.1,8.3
				c3.2-0.1,4.3-5.3,0.8-5.9c-29.6-5-59.6-7.8-89.7-8.1c-3.9,0-3.8,5.7,0,6c30.8,2.6,61.7,4.4,92.6,5.5c0-2,0-4,0-6
				c-9.3,1-18.6,2-27.9,3c-3.3,0.4-4.2,4.8-0.8,5.9c36.4,11.7,74.4,16,112.2,20.3c0-2,0-4,0-6c-26.3-2.4-52.8-2-79,1.2
				c-3.1,0.4-4.4,5.1-0.8,5.9c25.2,5.8,50.3-7.1,75.4-1.3c0-1.9,0-3.9,0-5.8c-9.5,3.6-19.4,4-29.4,2.6c-9.7-1.4-18.8-5-28.4-6.7
				c-16.9-3-32.6,9.8-49.3,5.4c-0.5,1.9-1.1,3.9-1.6,5.8c50.6,6.9,101.5-5.4,152,1.5c3.8,0.5,5.3-4.4,1.6-5.8
				c-59.9-23.4-125.4-17.4-187.5-30c-0.3,2-0.5,3.9-0.8,5.9c31.8,2.6,63.7,3.5,95.6,2.6c3.9-0.1,3.8-5.7,0-6
				c-13.4-0.9-26.8-1.9-40.2-2.8c0,2,0,4,0,6c25.4-1,50.6-4.3,75.4-9.9c2.9-0.7,2.8-5,0-5.8c-16.8-4.5-34-6.8-51.4-6.9c0,2,0,4,0,6
				c28.5-1.3,57.1-2.5,85.6-3.8c3.3-0.1,4.2-5,0.8-5.9c-22.2-6-45.2-6.9-67.8-3.1c-2.9,0.5-2.8,5.2,0,5.8
				c31.9,7.2,64.5,11.1,97.2,11.6c4,0.1,3.7-5.5,0-6c-61.9-8.3-124.5-16.6-187.1-10.9c-2.7,0.2-4.4,4.2-1.5,5.6
				c14.5,7.1,29.9,11.1,46,12c0-2,0-4,0-6c-14.1,0.6-28.1,1.2-42.2,1.8c-3.2,0.1-4.2,5.2-0.8,5.9c31.5,6.8,63.9,8.6,95.9,5.4
				c3.1-0.3,4.3-5.1,0.8-5.9c-14.9-3.5-29.8-6.9-44.7-10.4c-0.5,1.9-1.1,3.9-1.6,5.8c38.6,7.6,77.5,13.5,116.6,17.8
				c3.3,0.4,4.1-5.3,0.8-5.9c-34.4-5.8-69.9-1.1-104-9.3c-17.1-4.1-33.7-10.3-50.7-14.9c-16.6-4.4-33.4-8-50.3-10.8
				c-19.1-3.1-38.3-5.1-57.6-6.1c-3.3-0.2-4.2,5.3-0.8,5.9c34.4,6.3,68.9,11.9,103.5,16.9c3.7,0.5,5.5-4.9,1.6-5.8
				c-28.7-6.6-57.5-13.2-86.2-19.9c-0.3,2-0.5,3.9-0.8,5.9c31.4,3.9,62.9,7.7,94.3,11.6c3.4,0.4,4-5.1,0.8-5.9
				c-4.5-1.1-9-2.2-13.4-3.3c-0.3,2-0.5,3.9-0.8,5.9c22.9,0.9,45.8-0.3,68.4-3.6c3.1-0.4,2.6-5,0-5.8c-10.5-3-21.1-6.1-31.6-9.1
				c-0.3,2-0.5,3.9-0.8,5.9c34.4,2.8,68.8,6.2,103.2,10.1c3.3,0.4,4.1-5.3,0.8-5.9c-3.7-0.7-7.4-1.3-11.2-2c-0.3,2-0.5,3.9-0.8,5.9
				c20.1-1.5,40.3-2.3,60.4-2.6c0-2,0-4,0-6c-9.8,1.2-19.6,2.5-29.4,3.7c-3,0.4-4.5,5.3-0.8,5.9c2.3,0.4,4.6,0.8,6.9,1.1
				c0.3-2,0.5-3.9,0.8-5.9c-68.4-5.8-137-8.2-205.6-7.3c-3.3,0-4.2,5.1-0.8,5.9c19.8,4.8,40,7.2,60.4,7.1c0-2,0-4,0-6
				c-10.1,0.5-19.5,3.3-28.2,8.5c-2.3,1.4-1.7,4.6,0.7,5.5c41.4,14.9,84.3,25.1,127.9,30.5c3.3,0.4,4.1-5.3,0.8-5.9
				c-18-3.5-35.9-6.9-53.9-10.4c-8.8-1.7-17.6-3.4-26.5-5.1c-4.6-0.9-9.1-1.8-13.7-2.7c-2.9-0.6-10.4-0.7-11.1-4.4
				c-1,1.3-1.9,2.5-2.9,3.8c40.5-5.3,81-10.6,121.5-15.9c1.2-0.2,2.6-0.8,2.9-2.2c1.1-5.7-4.1-7.5-8.7-8.7
				c-7.9-2.1-15.8-4.3-23.7-6.4c-15.8-4.3-31.6-8.6-47.4-12.9c-0.3,2-0.5,3.9-0.8,5.9c29.8,0.3,59.7,1.6,89.4,3.8c0-2,0-4,0-6
				c-23.7-0.9-47.5-2-70.2-9.6c-20.5-6.9-40.5-17.5-62.7-15.5c-3.1,0.3-4.4,5.3-0.8,5.9c36.3,5.9,72.7,11.8,109,17.7
				c0.5-1.9,1.1-3.9,1.6-5.8c-32.8-5.1-65.9-7.1-99-5.9c-3.3,0.1-4.2,5-0.8,5.9c27.6,7.3,55.8,12.2,84.2,14.8
				c3.4,0.3,4.1-5.2,0.8-5.9c-48.2-10.1-97.1-16.4-146.2-18.8c-3.4-0.2-4.1,5.2-0.8,5.9c33.2,7.3,66.3,14.6,99.5,22
				c0.5-1.9,1.1-3.9,1.6-5.8c-12.4-2-24.8-4-37.2-6c-3.7-0.6-5.4,4.9-1.6,5.8C386.1,360,446,370,506.3,376.4
				c3.6,0.4,3.8-4.8,0.8-5.9c-51.8-18.8-105.2-32.7-158.5-46.5c-0.3,2-0.5,3.9-0.8,5.9c47.6,5.6,95.1,11.1,142.7,16.7
				c3.3,0.4,4.1-5.3,0.8-5.9c-12.9-2.1-25.9-4.2-38.8-6.4c0,1.9,0,3.9,0,5.8c6-0.9,11.1-3.6,15.3-7.9c1.9-2,0.4-4.8-2.1-5.1
				c-51.6-6-103.2-12.1-154.8-18.1c0.3,2,0.5,3.9,0.8,5.9c18.3-2.7,36.6-5.4,54.9-8.1c3.2-0.5,2.5-4.9,0-5.8
				c-8.6-3.1-17.4-4.8-26.6-5.3c-3.9-0.2-3.8,5.6,0,6c18.6,1.9,37.2,2.8,55.9,2.7c4,0,3.7-5.5,0-6c-40.5-5.2-81.3-7-122-6.6
				c-3.3,0-4.2,5.3-0.8,5.9c59.7,10.7,119.8,19.2,180.1,25.6c-0.3-2-0.5-3.9-0.8-5.9c-21.8,3.6-43.8,7-65.9,4c0.5,1.9,1,3.7,1.5,5.6
				c3.5-2,4.8-6,3.7-9.8c-1.4-4.6-6-6.8-10.3-8.2c-14.5-4.5-29.5-7.7-44.3-10.8c-29.8-6.1-60-9.9-90.4-11.6c-4-0.2-3.7,5.5,0,6
				c71.5,9.4,143.1,18.9,214.6,28.3c-0.7-1.7-1.4-3.4-2.1-5.1c-6.4,5.2-12.8,10.3-19.2,15.5c-1.8,1.5-0.6,4.4,1.3,5
				c23.2,7,47.5,9.6,71.6,7.5c3.1-0.3,4.3-5.1,0.8-5.9c-73.3-15.5-147.7-25.2-222.4-29.1c-3.3-0.2-4.1,5.2-0.8,5.9
				c44.2,9,88.8,16.1,133.7,21.4c3.8,0.4,3.8-5.5,0-6c-34-4.1-68.1-8.3-102.1-12.4c0,2,0,4,0,6c11.9-1.2,23.7-2.4,35.6-3.6
				c3.3-0.3,4.2-4.8,0.8-5.9c-47-14.7-94.5-27.7-142.5-39.1c-0.3,2-0.5,3.9-0.8,5.9c22,2.4,44.1,4.7,66.1,7.1
				c10.9,1.2,21.7,2.3,32.6,3.5c8.3,0.9,17.1,1.7,24.1-3.5c2-1.5,1.9-4.7-0.7-5.5c-17.5-5.3-35.4-9.5-53.5-12.5
				c-3.8-0.6-5.4,5.1-1.6,5.8c68.6,12.7,138.4,14.1,207.6,21.6c20.4,2.2,40.8,5,60.9,8.8c3.8,0.7,5.4-5.1,1.6-5.8
				c-63.3-12.1-128.4-5.1-191.7-17.2c-0.3,2-0.5,3.9-0.8,5.9c19.4,2.2,38.9,2.8,58.3,1.8c3.2-0.2,4.3-5.3,0.8-5.9
				c-51.4-8.8-103.3-14.8-155.3-18.1c-3.9-0.2-3.8,5.7,0,6c63.3,4.5,126.8,6.8,190.3,6.9c3.3,0,4.2-5.1,0.8-5.9
				c-34.3-7.6-69.4-11.1-104.6-10.4c-3.2,0.1-4.3,5.4-0.8,5.9c30.6,4.6,61.3,9.2,91.9,13.8c3.7,0.6,5.4-5.1,1.6-5.8
				c-47.2-8.7-95.2-12-143.2-9.7c-3.4,0.2-4.1,4.9-0.8,5.9c23.9,7.3,48.8,10.5,73.8,9.5c3.4-0.1,4.1-4.9,0.8-5.9
				c-32.4-9.7-66.4-13.2-100.1-10.1c-3.2,0.3-4.3,5-0.8,5.9C333.5,288,395.5,298,458,303.4c3.3,0.3,4.2-5.4,0.8-5.9
				c-34.6-5.1-69.3-10.3-103.9-15.4c-3.8-0.6-5.4,5.2-1.6,5.8c23.5,3.7,47.3,4.2,70.9,1.2c2.4-0.3,4.2-3.1,2.1-5.1
				c-11.8-11.4-29.2-14-44.6-17.5c-18.4-4.2-36.9-7.9-55.4-11.2c-37.4-6.7-75.1-11.5-112.9-14.6c-3.3-0.3-4.2,5.4-0.8,5.9
				c62.6,9.5,125.9,14.1,189.2,13.7c3.9,0,3.8-5.8,0-6c-18.5-1-37-0.6-55.4,1c-3.8,0.3-3.9,5.8,0,6c26.7,1.7,53.4,2.9,80.1,3.5
				c13.2,0.3,26.4,0.5,39.6,0.5c10.6,0,21.3,0.1,30.8-5.3c2.1-1.2,1.9-5-0.7-5.5c-56.3-10.2-113.4-14.7-170.6-13.3c0,2,0,4,0,6
				c6.8-0.6,13.6-1.2,20.4-1.7c3.1-0.3,4.4-5.4,0.8-5.9c-40.9-5.7-82-10.5-123.2-14c-20.6-1.8-41.2-3.3-61.8-4.5
				c-19.7-1.1-39.5-1.5-58.7,3.5c-2.7,0.7-3,5.2,0,5.8c76.1,14.7,153,25,230.3,30.9c22.2,1.7,44.4,3,66.6,4c3.9,0.2,3.8-5.7,0-6
				c-46.3-3.3-92.5-6.7-138.8-10c0,2,0,4,0,6c56-3.2,112.1-6.6,167.5-15.6c2.9-0.5,2.8-5.2,0-5.8c-31.4-6.3-63.4-6.7-95-1.3
				c-2.9,0.5-2.8,5.2,0,5.8c36.9,8.3,74.9,11.1,112.7,8.3c2.7-0.2,4.4-4.2,1.5-5.6c-16.4-7.9-34.1-11.7-51.9-14.6
				c-19.5-3.2-39.1-5.9-58.7-8.3c-40.4-5.1-80.9-8.7-121.5-10.9c-3.3-0.2-4.2,5.4-0.8,5.9c65,10,130.3,18.2,195.8,24.5
				c18.7,1.8,37.4,3.4,56.1,4.9c0-2,0-4,0-6c-51.4-3.5-102.9-4.3-154.4-2.3c-4,0.2-3.7,5.5,0,6c63.7,8.6,127.9,13.6,192.2,15.1
				c4,0.1,3.7-5.6,0-6c-64.2-7.7-128.8-12.5-193.5-14.4c-3.9-0.1-3.8,5.7,0,6c12.3,0.9,24.5-0.9,36-5.2c2.5-0.9,3.2-5.2,0-5.8
				c-41-8.2-81.9-16.4-122.9-24.5c-0.3,2-0.5,3.9-0.8,5.9c51,1.3,102.2,2.4,153.1-2.2c3.1-0.3,4.4-5.3,0.8-5.9
				c-32.5-5.5-65.6-7.2-98.5-5c-3.1,0.2-4.4,5.4-0.8,5.9c39.9,6,80.3,8.8,120.7,8c3.2-0.1,4.3-5.3,0.8-5.9
				c-52.5-8.5-105.7-12.2-158.8-10.8c-4,0.1-3.7,5.5,0,6c15.8,1.9,31.7,1.9,47.4-0.1c3-0.4,4.4-5.2,0.8-5.9
				c-49.1-10-98.5-18.7-148.1-26.1c-0.3,2-0.5,3.9-0.8,5.9c87.9,5.9,175.8,11.7,263.9,12.7c24.9,0.3,49.8,0.1,74.7-0.5
				c3.9-0.1,3.8-5.8,0-6c-53.9-2.8-108.1-5.4-161.8,1.9c-3,0.4-2.7,5.2,0,5.8c43.7,9.8,88.8,11.8,133.2,6c2.6-0.3,4.6-4.2,1.5-5.6
				c-15.5-7.2-33.7-7.1-50.4-8.5c-19.1-1.7-38.2-3.1-57.3-4.5c-38.2-2.6-76.5-4.6-114.8-5.9c-3.3-0.1-4.2,5.3-0.8,5.9
				c47.1,8.2,95,11.2,142.8,8.8c3.2-0.2,4.3-5.2,0.8-5.9c-31.7-6.3-64-9.4-96.3-9.1c-3.9,0-3.9,5.9,0,6
				c57.4,1.4,114.8-2.2,171.5-10.9c3.6-0.6,2.3-5.6-0.8-5.9c-47.1-5.2-94.5-5.8-141.9-6.4c-3.9,0-3.9,5.9,0,6
				c44.7,1.2,89.5,0.2,134.1-2.8c3.9-0.3,3.8-5.7,0-6c-54.5-4.5-109.2-4.7-163.7-0.9c-3.8,0.3-3.9,5.8,0,6
				c36,2.2,72.1,2.6,108.1,1.3c3.8-0.1,3.9-6.1,0-6c-20.8,0.5-41.6,1-62.5,1.5c-3.9,0.1-3.9,6,0,6c21.7-0.3,43.4-2.7,64.6-7.3
				c2.5-0.5,2.9-4.3,0.7-5.5c-9.6-5.2-20.2-7.3-31-8.6c-12.4-1.5-24.9-2.5-37.3-3.5c-25.9-2.2-51.9-3.7-77.9-4.8
				c-3.9-0.2-3.9,5.8,0,6c56.4,2.4,112.9,2.1,169.2-0.8c3.2-0.2,4.3-5.4,0.8-5.9c-42.4-6.4-85.2-8.5-128-6.1c-3.8,0.2-3.9,5.9,0,6
				c28.3,0.6,56.7-0.4,84.9-2.8c3.8-0.3,3.9-6,0-6c-32.1-0.2-64.3-0.4-96.4-0.5c-3.9,0-3.8,5.8,0,6c42.2,2.1,84.4,2.5,126.6,1.1
				c3.3-0.1,4.2-5.1,0.8-5.9c-30.5-7.6-61.7-11.7-93.1-12.2c-3.9-0.1-3.8,5.8,0,6c51.4,3.1,103,3.5,154.5,1c4-0.2,3.8-5.5,0-6
				c-78.9-9.9-157.8-19.7-236.7-29.6C218.1,78,218.1,84,221.9,84.4L221.9,84.4z"/>
		</g>
	</g>
</g>
<g>
	<defs>
		<polygon id="SVGID_3_" points="94.6,86.8 94.6,244 94.6,401.1 230.8,401.1 230.8,244 230.8,86.8 		"/>
	</defs>
	<clipPath id="SVGID_4_">
		<use xlink:href="#SVGID_3_"  style="overflow:visible;"/>
	</clipPath>
	<g class="st2">
		<g>
			<path class="st1" d="M-24.4,20.1c79.8,11.1,159.7,22.2,239.5,33.3c22.4,3.1,44.9,6.2,67.3,9.3c0.3-2,0.5-3.9,0.8-5.9
				C216.6,57.3,150,54.7,83.7,49c0,2,0,4,0,6c40.1,1.9,79.9,7.6,118.9,17.1c0.3-2,0.5-3.9,0.8-5.9c-54.6-0.3-109.1-2.5-163.5-6.6
				c0,2,0,4,0,6c41.5,1.6,83,3.2,124.5,4.7c0-2,0-4,0-6c-36.5,1.5-73,1.2-109.5-0.6c0,2,0,4,0,6c54.8-0.8,109.6,3.2,163.7,11.9
				c0.3-2,0.5-3.9,0.8-5.9c-72.9,0.8-145.8-1.4-218.5-6.4c0,2,0,4,0,6c32,2.2,63.9,4.8,95.8,8.1c15.7,1.6,31.4,3.3,47,5.2
				c14.7,1.8,29.6,4.1,43.1,10.6c0.2-1.8,0.5-3.7,0.7-5.5c-26.9,4.1-54.1,5.7-81.4,5c0,2,0,4,0,6c26.9,0.3,53.7,0.7,80.6,1
				c0-2,0-4,0-6c-46.6-0.1-93.2-2.1-139.7-6.1c0,2,0,4,0,6c70.6-1.9,141.2,0.8,211.4,8c0-2,0-4,0-6c-57.7,1.4-115.4,0.4-173-2.8
				c0,2,0,4,0,6c61.2,2.7,122.6,5.4,183.4,13.1c0-2,0-4,0-6c-73.1,7.1-146.7,8.5-220,4.5c0,2,0,4,0,6c41.3,1.1,82.4,5.8,122.9,13.9
				c0.3-2,0.5-3.9,0.8-5.9c-61.3,0.5-122.6-4.7-182.9-15.5c-0.3,2-0.5,3.9-0.8,5.9c74.9,4.7,149.7,11,224.4,19
				c19.9,2.1,41.5,2.5,60.1,10.4c0.5-1.9,1-3.7,1.5-5.6c-57,4.5-114.5,0.4-170.3-12c-0.3,2-0.5,3.9-0.8,5.9
				c69.3-5.7,138.8-0.3,207.9,5c0-2,0-4,0-6c-113.8-1.3-227.3-9.6-340.7-19.3c-32.4-2.8-64.7-5.7-97-8.6c-3.3-0.3-4.1,5.4-0.8,5.9
				c64.3,10.2,128.4,21.9,192.2,35c0.3-2,0.5-3.9,0.8-5.9c-20.2,1.5-40.4,0.9-60.5-1.9c-0.3,2-0.5,3.9-0.8,5.9
				c68.3,0.8,136.4,7,203.7,18.5c0.3-2,0.5-3.9,0.8-5.9c-51.7-0.9-103.3-5.4-154.3-13.7c-0.3,2-0.5,3.9-0.8,5.9
				c42.1-1.1,84.1,2.1,125.6,9.4c0.3-2,0.5-3.9,0.8-5.9c-65.9,2.9-131.8-0.6-197.6-4.2c-3.3-0.2-4.1,5.2-0.8,5.9
				c53.2,10.7,106.4,21.4,159.6,32.2c0-1.9,0-3.9,0-5.8c-14.5,4.2-29.5,5.4-44.5,3.9c0,2,0,4,0,6c83.7,4.9,167.3,12.9,250.4,24.1
				c0-2,0-4,0-6c-83-4.4-165.8-12.7-248-24.7c-0.3,2-0.5,3.9-0.8,5.9c66.6,0,133.1,3.1,199.4,9.2c3.9,0.4,3.8-5.6,0-6
				c-84.6-8.5-169-19-253.1-31.6c-23.8-3.6-47.6-7.3-71.3-11.2c-0.3,2-0.5,3.9-0.8,5.9c79.4,6.4,158.9,15.7,237.3,29.6
				c20.5,3.6,41,8.1,60.2,16.5c0.5-1.9,1-3.7,1.5-5.6c-48.4,1.5-96.7-3.2-144-13.7c-0.3,2-0.5,3.9-0.8,5.9
				c40-4.6,80.4-2.7,119.8,5.3c0.3-2,0.5-3.9,0.8-5.9c-71.3,7.5-143.1,8.7-214.7,9.8c-3.9,0.1-3.8,5.6,0,6
				c59.9,5.7,119.8,11.3,179.6,17c0-2,0-4,0-6c-101.4-7.2-200.4-31.2-299.4-53.1c-27.8-6.2-55.6-12.2-83.5-17.7c0,1.9,0,3.9,0,5.8
				c17.5-3.1,34.7,5.9,50.6,11.9c8.1,3.1,16.4,5.9,25.1,7.1c10.1,1.3,20.4,1.9,30.6,2.8c43.6,4.1,87.2,8.9,130.7,14.6
				c24.9,3.3,49.8,6.8,74.6,10.6c0.3-2,0.5-3.9,0.8-5.9c-8.7,0.3-17.5,0.7-26.2,1c-3.8,0.2-3.9,6,0,6c73.5,0.9,146.8,8.2,219,21.7
				c-0.2-1.8-0.5-3.7-0.7-5.5c-13.7,6.4-30.5,4-45.1,3.4c-16.2-0.6-32.4-1.4-48.6-2.3c-32.4-1.8-64.8-4.1-97.1-6.9c0,2,0,4,0,6
				c23.9-1.1,47.7-0.6,71.5,1.3c0-2,0-4,0-6c-81.4-2.3-162.6-10-243-22.9c-0.3,2-0.5,3.9-0.8,5.9c73.8,7.6,147.2,19.6,219.6,36
				c17.5,4,38,6.8,52.2,18.7c0.7-1.7,1.4-3.4,2.1-5.1c-30,2.2-60.1,0.8-89.7-4.1c-0.5,1.9-1.1,3.9-1.6,5.8
				c44.9,7.1,89.8,14.2,134.7,21.4c0.3-2,0.5-3.9,0.8-5.9C209,255.7,129.3,242,50.7,223.4c-0.3,2-0.5,3.9-0.8,5.9
				c43.1-1.9,86.3,3.3,127.8,15.2c0.3-2,0.5-3.9,0.8-5.9c-31.8,0-63.3-4.5-93.8-13.4c-0.3,2-0.5,3.9-0.8,5.9
				c61.5-0.4,123,5.1,183.4,16.6c0.5-1.9,1.1-3.9,1.6-5.8c-39.7-6.3-79.5-12.7-119.2-19c-0.3,2-0.5,3.9-0.8,5.9
				c45,0.7,89.7,6,133.6,15.6c0.3-2,0.5-3.9,0.8-5.9c-82.1-2.9-164.2-8.1-246-15.7c0,2,0,4,0,6c66.8,5.8,133.4,14.5,199.4,26.2
				c0.3-2,0.5-3.9,0.8-5.9c-25.2,0.3-50.4-1.2-75.4-4.5c-3.3-0.4-4.1,5.2-0.8,5.9c83,16.3,166,32.7,249,49c0.5-1.9,1.1-3.9,1.6-5.8
				c-90.7-17.4-181.5-34.7-272.2-52.1c-25.5-4.9-50.9-9.7-76.4-14.6c-0.5,1.9-1.1,3.9-1.6,5.8c23.4,4.1,46.6,9.4,69.5,16
				c-0.2-1.8-0.5-3.7-0.7-5.5c-9.7,6.1-23.3,2.5-33.9,1.2c-13.5-1.7-27-3.4-40.5-5c-27-3.4-54-6.7-81-10.1c-3.4-0.4-4.1,5.1-0.8,5.9
				c62.3,14.5,124.1,30.8,185.5,48.9c0.3-2,0.5-3.9,0.8-5.9c-15.3,0.8-30.6,1.6-45.9,2.4c-3.2,0.2-4.3,5.4-0.8,5.9
				c44.1,6,88.2,12,132.3,18c0.3-2,0.5-3.9,0.8-5.9c-57.5-7.6-114.7-17.2-171.6-28.9c-0.3,2-0.5,3.9-0.8,5.9
				c75.1,5.8,149.8,15.4,223.9,28.8c20.9,3.8,41.8,7.9,62.6,12.3c0.3-2,0.5-3.9,0.8-5.9c-30.7,1.3-61.4-2.5-91-11
				c0.2,1.8,0.5,3.7,0.7,5.5c8.1-5.4,16.1-10.8,24.2-16.2c1.9-1.3,2.1-5.1-0.7-5.5c-72.4-10.5-144.7-20.9-217.1-31.4
				c-20.4-2.9-40.8-5.9-61.2-8.8c-0.3,2-0.5,3.9-0.8,5.9c32,2.6,63.8,6.7,95.4,12.4c15.3,2.8,30.5,6,45.7,9.5
				c7.6,1.8,15.1,3.6,22.6,5.6c3.8,1,7.7,1.8,11.4,3.1c2.1,0.7,11,5.2,5.2,7.8c-2.3,1-1.8,5.1,0.7,5.5c28.9,4.3,57.9,1.5,86.8-1.5
				c3.9-0.4,3.8-5.5,0-6c-77.6-9.6-154.8-21.4-231.7-35.6c-0.3,2-0.5,3.9-0.8,5.9c52.5,1.4,105,5.1,157,12.4c0.3-2,0.5-3.9,0.8-5.9
				c-24.2-0.7-48.3-2.5-72.3-5.4c0,2,0,4,0,6c11.2,0.9,22,3.1,32.7,6.7c0.3-2,0.5-3.9,0.8-5.9c-23.5,2.2-47.1,4.3-70.6,6.5
				c-3.9,0.4-3.8,5.5,0,6c66.9,8.8,133.7,17.7,200.6,26.5c-0.7-1.7-1.4-3.4-2.1-5.1c-4.4,3.9-9.8,5.9-15.6,6.4
				c-3.1,0.3-4.4,5.3-0.8,5.9c16.8,2.9,33.5,5.8,50.3,8.6c0.3-2,0.5-3.9,0.8-5.9c-61.6-8.1-123.2-16.3-184.8-24.4
				c-3.4-0.4-4,5.1-0.8,5.9c69.3,17.4,138.7,34.9,206.4,57.8c0.3-2,0.5-3.9,0.8-5.9c-77.6-9.6-154.7-23-231-40.2
				c-0.5,1.9-1.1,3.9-1.6,5.8c16.1,2.7,32.1,5.4,48.2,8.1c3.7,0.6,5.4-4.9,1.6-5.8c-43.1-9.5-86.2-18.9-129.3-28.4
				c-0.3,2-0.5,3.9-0.8,5.9c63.1,4.6,125.8,13.5,187.7,26.6c0.3-2,0.5-3.9,0.8-5.9c-36.3-4-72.2-10.6-107.5-19.6
				c-0.3,2-0.5,3.9-0.8,5.9c42.3,0.1,84.5,3.6,126.2,10.5c3.8,0.6,5.4-5.1,1.6-5.8c-47.1-8-94.3-16-141.4-24.1
				c-0.3,2-0.5,3.9-0.8,5.9c29.7-1.3,56.7,12.7,84.5,20.9c28.6,8.4,58.5,10.4,88,12.3c3.9,0.3,3.8-5.6,0-6c-38.5-3.8-77-6.4-115.6-8
				c-3.4-0.1-4.1,5-0.8,5.9c8.3,2.2,99.1,26.4,99.1,26.3c1-0.7,1.9-1.5,2.9-2.2c-52.1,4.1-104.2,8.1-156.4,12.2
				c-2,0.2-3.3,1.8-2.9,3.8c1.9,9,16.5,9.2,23.4,10.6c13.2,2.6,26.5,5.2,39.7,7.8c26.2,5.1,52.3,10.3,78.5,15.4
				c0.5-1.9,1.1-3.9,1.6-5.8c-56.2-7.8-111.5-20.8-165.3-38.8c0.2,1.8,0.5,3.7,0.7,5.5c10.2-5,21.3-7.3,32.6-7.3c3.9,0,3.9-5.9,0-6
				c-25.8-0.7-51.3-4.1-76.4-10.1c-0.3,2-0.5,3.9-0.8,5.9c69.2,1.5,138.3,5.2,207.3,11.2c19.5,1.7,39,3.6,58.5,5.6
				c3.3,0.4,4.1-5.3,0.8-5.9c-3-0.5-5.9-1-8.9-1.5c-0.3,2-0.5,3.9-0.8,5.9c12.6-0.9,25.2-1.9,37.8-2.8c3.8-0.3,3.9-5.9,0-6
				c-26-0.6-52-0.5-77.9,0.2c-3.2,0.1-4.3,5.3-0.8,5.9c4.8,0.9,9.7,1.8,14.5,2.6c0.3-2,0.5-3.9,0.8-5.9c-44.5-5.8-89-11-133.6-15.5
				c-3.4-0.3-4,5-0.8,5.9c13.7,3.8,27.4,7.6,41.2,11.4c0.3-2,0.5-3.9,0.8-5.9c-29,2.6-58.1,2.9-87.2,0.9c-3.4-0.2-4.1,5.1-0.8,5.9
				c5.8,1.4,11.6,2.8,17.5,4.2c0.5-1.9,1.1-3.9,1.6-5.8c-40.7-5.6-81.5-11.1-122.2-16.7c-3.7-0.5-5.5,4.9-1.6,5.8
				c37.4,8.5,74.7,17,112.1,25.5c0.5-1.9,1.1-3.9,1.6-5.8c-44.9-6.9-89.6-14.6-134.2-22.9c-0.3,2-0.5,3.9-0.8,5.9
				c45.1,3.4,89.8,10.6,133.7,21.7c21.6,5.5,42.7,12.5,64.3,18.1c21.1,5.4,42.5,7.9,64.2,9.4c25.6,1.7,51.3,2.4,76.7,6.9
				c0.3-2,0.5-3.9,0.8-5.9c-50.1-6.3-99.9-14.5-149.4-24.3c-3.8-0.7-5.4,4.9-1.6,5.8c19.4,4.4,38.7,8.9,58.1,13.3
				c0.3-2,0.5-3.9,0.8-5.9c-41,2.2-82.1-1.2-122.3-9.8c-0.3,2-0.5,3.9-0.8,5.9c18.1,0,36.3-0.1,54.4-0.1c3.9,0,3.8-5.7,0-6
				c-19.4-1.5-38.5-6.3-56.3-14.2c-0.5,1.9-1,3.7-1.5,5.6c80.9-3.6,161.4,8.2,241.2,19.9c0.3-2,0.5-3.9,0.8-5.9
				c-41.8-2-83.3-7.6-124.1-16.7c-0.3,2-0.5,3.9-0.8,5.9c28.4-3.2,57.1-1.1,84.8,6.1c0.3-2,0.5-3.9,0.8-5.9
				c-36.8,0.2-73.6,0.3-110.4,0.5c-3.9,0-3.9,5.9,0,6c21.9,0.8,43.6,4,64.9,9.5c0-1.9,0-3.9,0-5.8c-31.5,5-63.3,7.4-95.1,7.4
				c-3.9,0-3.8,5.7,0,6c17.3,1.6,34.7,3.2,52,4.8c0-2,0-4,0-6c-41.3-0.4-82.5-2.7-123.5-7c-3.4-0.3-4.1,5.2-0.8,5.9
				c64,13.2,128.1,26.4,190.7,45.1c17.9,5.4,35.7,11.2,53.3,17.6c0.5-1.9,1.1-3.9,1.6-5.8c-65.7-10-131.4-20.1-197.1-30.1
				c-3.7-0.6-5.4,4.7-1.6,5.8c24.8,6.9,49.5,13.9,74.3,20.6c22.1,6,45.8,11.3,68.4,4.5c2.7-0.8,3-5.1,0-5.8
				c-32.7-7.9-65.4-15.8-98.1-23.7c-0.3,2-0.5,3.9-0.8,5.9c34-2.4,68.1-1.7,102,2c3.9,0.4,3.8-5.5,0-6c-48.4-6.2-97-12.6-143.9-26.8
				c-0.3,2-0.5,3.9-0.8,5.9c12-0.7,24-1.4,36-2.1c3.9-0.2,3.9-5.8,0-6c-40-2.6-79.9-5.9-119.8-10c0,2,0,4,0,6
				c38.3,1.6,76.5,5.8,114.3,12.5c0.3-2,0.5-3.9,0.8-5.9c-56.6-0.5-113.2-5.4-169.1-14.6c-3.7-0.6-5.4,5-1.6,5.8
				c74,14.4,147.7,30.1,221.1,47.3c20.8,4.9,41.6,9.8,62.4,14.9c0.3-2,0.5-3.9,0.8-5.9c-36.7-4.1-73.2-10.3-109.3-18.3
				c-0.3,2-0.5,3.9-0.8,5.9c34,4.2,67.4,11.6,100,22c0.3-2,0.5-3.9,0.8-5.9c-34.6-2.6-69.2-5.2-103.8-7.9c-3.5-0.3-3.9,4.9-0.8,5.9
				c21.4,7,42.3-6.4,63.8-2.6c3.7,0.7,5.4-5,1.6-5.8c-34.7-7.6-71.3,0.8-105.1-11.4c0.2,1.8,0.5,3.7,0.7,5.5
				c2.4-1.6,4.7-3.2,7.1-4.8c1.8-1.2,2.1-4.1,0-5.2c-3.8-2-7-4.4-9.8-7.7c-2.5-2.9-6.8,1.3-4.2,4.2c3.1,3.6,6.8,6.4,11,8.6
				c0-1.7,0-3.5,0-5.2c-2.4,1.6-4.7,3.2-7.1,4.8c-2.2,1.5-1.7,4.6,0.7,5.5c33.9,12.3,70.4,3.9,105.1,11.4c0.5-1.9,1.1-3.9,1.6-5.8
				c-21.4-3.8-42.8,9.4-63.8,2.6c-0.3,2-0.5,3.9-0.8,5.9c34.6,2.6,69.2,5.2,103.8,7.9c3.5,0.3,3.9-4.9,0.8-5.9
				c-33.1-10.6-67.1-18-101.6-22.3c-3.4-0.4-4.1,5.2-0.8,5.9c36.6,8.2,73.6,14.3,110.8,18.5c3.4,0.4,4-5.1,0.8-5.9
				c-73.2-17.9-146.7-34.4-220.5-49.6c-21-4.3-41.9-8.5-62.9-12.6c-0.5,1.9-1.1,3.9-1.6,5.8c56.4,9.3,113.5,14.3,170.7,14.8
				c3.3,0,4.2-5.3,0.8-5.9c-38.3-6.8-77-11-115.9-12.7c-3.9-0.2-3.8,5.6,0,6c39.9,4.1,79.8,7.5,119.8,10c0-2,0-4,0-6
				c-12,0.7-24,1.4-36,2.1c-3.3,0.2-4.1,4.9-0.8,5.9c47.4,14.3,96.5,20.7,145.5,27c0-2,0-4,0-6c-33.9-3.7-68-4.5-102-2
				c-3.2,0.2-4.3,5.1-0.8,5.9c32.7,7.9,65.4,15.8,98.1,23.7c0-1.9,0-3.9,0-5.8c-22.7,6.8-46.6,0.6-68.7-5.5
				c-23.6-6.5-47.2-13.1-70.7-19.7c-0.5,1.9-1.1,3.9-1.6,5.8c65.7,10,131.4,20.1,197.1,30.1c3.8,0.6,5.3-4.4,1.6-5.8
				c-61.4-22.3-125-37.6-188.7-51.3c-18.4-3.9-36.9-7.7-55.3-11.5c-0.3,2-0.5,3.9-0.8,5.9c41,4.3,82.3,6.6,123.5,7
				c3.9,0,3.8-5.7,0-6c-17.3-1.6-34.7-3.2-52-4.8c0,2,0,4,0,6c32.4,0.1,64.7-2.5,96.7-7.6c3-0.5,2.7-5.1,0-5.8
				c-21.7-5.6-44-8.8-66.4-9.7c0,2,0,4,0,6c36.8-0.2,73.6-0.3,110.4-0.5c3.4,0,4.1-5,0.8-5.9c-28.2-7.3-57.4-9.6-86.4-6.3
				c-3.1,0.4-4.4,5.1-0.8,5.9c41.3,9.2,83.4,14.9,125.7,16.9c3.3,0.2,4.2-5.4,0.8-5.9c-80.3-11.8-161.3-23.7-242.8-20.1
				c-2.7,0.1-4.4,4.3-1.5,5.6c18.9,8.4,38.8,13.4,59.4,15c0-2,0-4,0-6c-18.1,0-36.3,0.1-54.4,0.1c-3.3,0-4.2,5.2-0.8,5.9
				c40.7,8.7,82.3,12.2,123.9,10c3.2-0.2,4.2-5.1,0.8-5.9c-19.4-4.4-38.7-8.9-58.1-13.3c-0.5,1.9-1.1,3.9-1.6,5.8
				c50,9.9,100.4,18.1,151,24.5c3.3,0.4,4.1-5.3,0.8-5.9c-44.5-7.9-90.3-4.2-134.4-14.6c-22-5.2-43.4-12.5-65.2-18.2
				c-21.7-5.7-43.6-10.4-65.8-14.1c-24.9-4.2-49.9-7.3-75.1-9.2c-3.3-0.3-4.1,5.3-0.8,5.9c44.6,8.4,89.4,16,134.2,22.9
				c3.7,0.6,5.4-4.9,1.6-5.8c-37.4-8.5-74.7-17-112.1-25.5c-0.5,1.9-1.1,3.9-1.6,5.8c40.7,5.6,81.5,11.1,122.2,16.7
				c3.7,0.5,5.5-4.8,1.6-5.8c-5.8-1.4-11.6-2.8-17.5-4.2c-0.3,2-0.5,3.9-0.8,5.9c29.1,2,58.2,1.7,87.2-0.9c3.2-0.3,4.2-4.9,0.8-5.9
				c-13.7-3.8-27.4-7.6-41.2-11.4c-0.3,2-0.5,3.9-0.8,5.9c44.6,4.5,89.2,9.7,133.6,15.5c3.3,0.4,4.1-5.3,0.8-5.9
				c-4.8-0.9-9.7-1.8-14.5-2.6c-0.3,2-0.5,3.9-0.8,5.9c26-0.7,52-0.8,77.9-0.2c0-2,0-4,0-6c-12.6,0.9-25.2,1.9-37.8,2.8
				c-3.1,0.2-4.4,5.3-0.8,5.9c3,0.5,5.9,1,8.9,1.5c0.3-2,0.5-3.9,0.8-5.9c-68.9-7.2-138-12.3-207.2-15c-19.5-0.8-39-1.4-58.5-1.8
				c-3.4-0.1-4.1,5.1-0.8,5.9c25.6,6.1,51.7,9.6,78,10.3c0-2,0-4,0-6c-12.4,0-24.5,2.7-35.6,8.1c-2.5,1.2-1.6,4.7,0.7,5.5
				c53.8,18,109.1,31,165.3,38.8c3.7,0.5,5.5-5,1.6-5.8c-23.6-4.6-47.1-9.3-70.7-13.9c-11.6-2.3-23.2-4.6-34.9-6.8
				c-5.8-1.1-11.6-2.3-17.4-3.4c-3.4-0.7-13.5-1.1-14.4-5.5c-1,1.3-1.9,2.5-2.9,3.8c52.1-4.1,104.2-8.1,156.4-12.2
				c1.4-0.1,2.5-0.9,2.9-2.2c2.2-7.1-8.3-8.8-12.8-10c-9.9-2.6-19.9-5.2-29.8-7.8c-20.2-5.3-40.4-10.6-60.7-15.9
				c-0.3,2-0.5,3.9-0.8,5.9c38.6,1.6,77.2,4.3,115.6,8c0-2,0-4,0-6c-30.3-2-60.7-4.1-89.9-13.1c-27.1-8.4-53.6-21.3-82.6-20
				c-3.2,0.1-4.3,5.3-0.8,5.9c47.1,8,94.3,16,141.4,24.1c0.5-1.9,1.1-3.9,1.6-5.8c-42.2-7-85-10.6-127.8-10.7c-3.4,0-4.1,5-0.8,5.9
				c35.9,9.2,72.3,15.7,109.1,19.8c3.4,0.4,4.1-5.2,0.8-5.9c-62.4-13.2-125.7-22.1-189.3-26.8c-3.4-0.2-4.1,5.2-0.8,5.9
				c43.1,9.5,86.2,18.9,129.3,28.4c0.5-1.9,1.1-3.9,1.6-5.8c-16.1-2.7-32.1-5.4-48.2-8.1c-3.7-0.6-5.4,4.9-1.6,5.8
				c76.8,17.3,154.5,30.7,232.6,40.4c3.5,0.4,3.8-4.9,0.8-5.9c-67.8-22.9-137.1-40.3-206.4-57.8c-0.3,2-0.5,3.9-0.8,5.9
				c61.6,8.1,123.2,16.3,184.8,24.4c3.3,0.4,4.1-5.3,0.8-5.9c-16.8-2.9-33.5-5.8-50.3-8.6c-0.3,2-0.5,3.9-0.8,5.9
				c7.5-0.6,14.2-3.1,19.8-8.1c2.2-1.9,0.2-4.8-2.1-5.1c-66.9-8.8-133.7-17.7-200.6-26.5c0,2,0,4,0,6c23.5-2.2,47.1-4.3,70.6-6.5
				c3.3-0.3,4.1-4.8,0.8-5.9c-11.1-3.7-22.6-6-34.3-6.9c-3.9-0.3-3.8,5.6,0,6c24,2.9,48.1,4.7,72.3,5.4c3.3,0.1,4.2-5.4,0.8-5.9
				c-52.6-7.4-105.6-11.2-158.6-12.6c-3.3-0.1-4.2,5.3-0.8,5.9c77.4,14.2,155.2,26.2,233.3,35.8c0-2,0-4,0-6
				c-28.3,3-56.9,6-85.2,1.8c0.2,1.8,0.5,3.7,0.7,5.5c4.8-2.1,5.9-8,3.2-12.3c-3.9-6.1-13-7.4-19.3-9.1c-18.2-4.8-36.5-9-54.9-12.6
				c-37.1-7.4-74.6-12.6-112.3-15.6c-3.3-0.3-4.2,5.4-0.8,5.9c72.4,10.5,144.7,20.9,217.1,31.4c20.4,2.9,40.8,5.9,61.2,8.8
				c-0.2-1.8-0.5-3.7-0.7-5.5c-8.1,5.4-16.1,10.8-24.2,16.2c-2.1,1.4-1.9,4.7,0.7,5.5c30,8.7,61.3,12.5,92.6,11.2
				c3.2-0.1,4.2-5.2,0.8-5.9c-73.9-15.6-148.6-27.5-223.7-35.5c-21.4-2.3-42.9-4.2-64.4-5.9c-3.4-0.3-4.1,5.2-0.8,5.9
				c57.4,11.8,115.1,21.5,173.2,29.1c3.3,0.4,4.1-5.4,0.8-5.9c-44.1-6-88.2-12-132.3-18c-0.3,2-0.5,3.9-0.8,5.9
				c15.3-0.8,30.6-1.6,45.9-2.4c3.3-0.2,4.1-4.9,0.8-5.9C100,260.2,38.2,243.9-24.1,229.4c-0.3,2-0.5,3.9-0.8,5.9
				c28.3,3.5,56.6,7,84.9,10.5c13.8,1.7,27.7,3.4,41.5,5.1c10.6,1.3,22.4,3.4,32-2.6c2.2-1.4,1.8-4.8-0.7-5.5
				c-22.9-6.6-46.1-11.9-69.5-16c-3.8-0.6-5.4,5.1-1.6,5.8c90.7,17.4,181.5,34.7,272.2,52.1c25.5,4.9,50.9,9.7,76.4,14.6
				c3.8,0.7,5.4-5,1.6-5.8c-83-16.3-166-32.7-249-49c-0.3,2-0.5,3.9-0.8,5.9c25,3.3,50.2,4.8,75.4,4.5c3.3,0,4.2-5.3,0.8-5.9
				c-66.6-11.8-133.7-20.6-201-26.4c-3.9-0.3-3.8,5.6,0,6c81.8,7.6,163.9,12.9,246,15.7c3.3,0.1,4.1-5.2,0.8-5.9
				c-44.4-9.7-89.7-15.1-135.2-15.9c-3.3-0.1-4.2,5.3-0.8,5.9c39.7,6.3,79.5,12.7,119.2,19c3.7,0.6,5.4-5.1,1.6-5.8
				c-61-11.5-123-17.2-185-16.8c-3.4,0-4.1,4.9-0.8,5.9c31,9,63.1,13.6,95.4,13.6c3.4,0,4.1-5,0.8-5.9c-42-12-85.7-17.3-129.4-15.4
				c-3.3,0.1-4.2,5.1-0.8,5.9c79.1,18.7,159.4,32.4,240.3,40.9c3.3,0.4,4.1-5.4,0.8-5.9c-44.9-7.1-89.8-14.2-134.7-21.4
				c-3.8-0.6-5.4,5.1-1.6,5.8c30.2,5,60.8,6.6,91.3,4.4c2.3-0.2,4.3-3.3,2.1-5.1c-11.8-9.9-26.8-13.8-41.5-17.2
				c-18.7-4.4-37.5-8.5-56.3-12.3c-38-7.7-76.1-14.1-114.5-19.4c-21.2-2.9-42.4-5.5-63.7-7.6c-3.3-0.3-4.1,5.4-0.8,5.9
				c80.9,13.1,162.6,20.9,244.6,23.2c3.9,0.1,3.8-5.7,0-6c-23.8-1.9-47.7-2.3-71.5-1.3c-3.9,0.2-3.8,5.7,0,6
				c33.7,2.9,67.3,5.3,101.1,7.1c16.5,0.9,33,1.6,49.6,2.2c14.5,0.5,29.7,1.9,43.2-4.4c2.3-1.1,1.8-5-0.7-5.5
				c-72.7-13.6-146.6-21-220.6-21.9c0,2,0,4,0,6c8.7-0.3,17.5-0.7,26.2-1c3.2-0.1,4.3-5.4,0.8-5.9c-44-6.7-88-12.6-132.2-17.6
				c-22.3-2.5-44.5-4.9-66.8-7c-10.8-1-21.6-2-32.5-2.9c-9.5-0.8-18.3-3.3-27.2-6.6c-17.9-6.7-36.3-16.2-56-12.8
				c-2.9,0.5-2.8,5.2,0,5.8c100.2,19.7,199.1,46.4,300.3,61.5c27.9,4.2,56,7.5,84.2,9.5c3.9,0.3,3.8-5.6,0-6
				c-59.9-5.7-119.8-11.3-179.6-17c0,2,0,4,0,6c71.7-1.1,143.4-2.3,214.7-9.8c3.1-0.3,4.4-5.2,0.8-5.9
				c-39.9-8.1-80.9-10.2-121.4-5.5c-3.1,0.4-4.4,5.1-0.8,5.9c47.7,10.6,96.7,15.4,145.6,13.9c2.7-0.1,4.4-4.3,1.5-5.6
				c-34.9-15.3-74-19.5-111.3-25.1c-40-6-80.2-11.2-120.4-15.4c-22.9-2.4-45.9-4.5-68.8-6.4c-3.3-0.3-4.1,5.3-0.8,5.9
				c84.2,13.7,168.7,25.5,253.4,35.2c24.2,2.8,48.4,5.4,72.7,7.8c0-2,0-4,0-6c-66.3-6.1-132.8-9.2-199.4-9.2c-3.3,0-4.2,5.4-0.8,5.9
				c82.8,12.2,166.1,20.5,249.6,24.9c4,0.2,3.7-5.5,0-6C264.6,202.1,181,194,97.3,189.1c-3.9-0.2-3.8,5.6,0,6
				c15.5,1.5,31.1,0.2,46.1-4.2c2.7-0.8,3-5.2,0-5.8C90.2,174.5,37,163.8-16.3,153c-0.3,2-0.5,3.9-0.8,5.9
				c65.8,3.6,131.7,7.1,197.6,4.2c3.2-0.1,4.3-5.3,0.8-5.9c-42-7.4-84.6-10.7-127.2-9.6c-3.2,0.1-4.3,5.3-0.8,5.9
				c51.6,8.3,103.7,13,155.9,13.9c3.3,0.1,4.2-5.3,0.8-5.9c-67.8-11.6-136.5-17.9-205.3-18.7c-3.3,0-4.2,5.4-0.8,5.9
				c20.6,2.8,41.3,3.6,62.1,2.1c3.2-0.2,4.3-5.2,0.8-5.9c-63.8-13.1-127.9-24.8-192.2-35c-0.3,2-0.5,3.9-0.8,5.9
				C-12.7,126,100.8,136.2,214.6,141c32.3,1.4,64.6,2.3,97,2.7c3.9,0,3.8-5.7,0-6c-69.1-5.3-138.6-10.7-207.9-5
				c-3.2,0.3-4.3,5.1-0.8,5.9c56.3,12.5,114.4,16.8,171.9,12.2c2.6-0.2,4.5-4.3,1.5-5.6c-15.6-6.7-32.6-7.9-49.3-9.7
				c-19.2-2.1-38.3-4.1-57.5-6c-38.4-3.8-76.7-7.1-115.2-10c-21.8-1.6-43.7-3.1-65.6-4.5c-3.3-0.2-4.1,5.3-0.8,5.9
				c60.9,10.9,122.7,16.3,184.5,15.8c3.3,0,4.2-5.2,0.8-5.9c-41-8.2-82.7-13-124.5-14.1c-3.9-0.1-3.8,5.8,0,6
				c73.3,4,146.9,2.6,220-4.5c3.9-0.4,3.8-5.5,0-6c-60.9-7.7-122.2-10.5-183.4-13.1c-3.9-0.2-3.8,5.8,0,6
				c57.6,3.2,115.3,4.1,173,2.8c3.9-0.1,3.8-5.6,0-6c-70.2-7.2-140.9-9.9-211.4-8c-3.9,0.1-3.8,5.7,0,6c46.5,4,93.1,6,139.7,6.1
				c3.9,0,3.9-6,0-6c-26.9-0.3-53.7-0.7-80.6-1c-3.9,0-3.9,5.9,0,6c27.8,0.6,55.5-1.1,83-5.3c2.5-0.4,2.9-4.4,0.7-5.5
				c-12.6-6.2-26.2-8.9-40-10.7c-16.3-2.2-32.8-3.9-49.2-5.6c-33.2-3.4-66.5-6.3-99.8-8.5c-3.9-0.3-3.8,5.7,0,6
				c72.7,5,145.6,7.2,218.5,6.4c3.2,0,4.2-5.3,0.8-5.9c-54.6-8.8-109.9-13-165.3-12.2c-3.9,0.1-3.8,5.8,0,6c36.5,1.8,73,2,109.5,0.6
				c3.9-0.2,3.9-5.9,0-6c-41.5-1.6-83-3.2-124.5-4.7c-3.9-0.1-3.8,5.7,0,6c54.4,4.1,108.9,6.4,163.5,6.6c3.3,0,4.1-5.1,0.8-5.9
				C164.6,56.7,124.3,50.9,83.7,49c-3.9-0.2-3.8,5.7,0,6c66.3,5.6,132.9,8.3,199.5,7.8c3.2,0,4.2-5.4,0.8-5.9
				C204.1,45.8,124.3,34.7,44.5,23.7c-22.4-3.1-44.9-6.2-67.3-9.3C-26.6,13.8-28.2,19.6-24.4,20.1L-24.4,20.1z"/>
		</g>
	</g>
</g>
</svg>
