<?xml version="1.0" encoding="utf-8"?>
<!-- Generator: Adobe Illustrator 19.2.0, SVG Export Plug-In . SVG Version: 6.00 Build 0)  -->
<svg version="1.1" id="Calque_1" xmlns="http://www.w3.org/2000/svg" xmlns:xlink="http://www.w3.org/1999/xlink" x="0px" y="0px"
	 viewBox="0 0 920 500" style="enable-background:new 0 0 920 500;" xml:space="preserve">
<style type="text/css">
	.st0{fill:url(#SVGID_1_);}
</style>
<linearGradient id="SVGID_1_" gradientUnits="userSpaceOnUse" x1="0" y1="341.4695" x2="909" y2="341.4695">
	<stop  offset="0" style="stop-color:#E700C9"/>
	<stop  offset="1" style="stop-color:#F2F20F"/>
</linearGradient>
<path class="st0" d="M0.1,489.5c0,0,32.9,2.5,41.9-0.5s47,1,62,0s23,4,33-1s24,4,33,2s43-36,58-35s28-9,50,0s57,21,78,6s18-48,29-46
	s21,11,35,0s27-32,36-32s28,0,48,15s2-33,14-33s6,26,18,28s-3-70,14-70s17,40,26,40s22-34,36-29s31-24,45-50s32-119,38-98
	s20,40,28,44s18,29,24,25s4-49,9-43s106,90,153,111v177H0L0.1,489.5z"/>
</svg>
