<svg xmlns="http://www.w3.org/2000/svg">
<defs>
<font id="Baseticatrial-BoldItalic" horiz-adv-x="564" >
  <font-face 
    font-family="Basetica trial"
    font-weight="700"
    font-style="italic"
    font-stretch="normal"
    units-per-em="1000"
    panose-1="2 13 8 3 3 0 0 0 0 4"
    ascent="750"
    descent="-250"
    x-height="541"
    cap-height="720"
    bbox="-76 -180 1131 882"
    underline-thickness="96"
    underline-position="-121"
    slope="-10"
    stemh="141"
    stemv="146"
    unicode-range="U+000D-F6E9"
  />
<missing-glyph horiz-adv-x="589" 
d="M293 202c17 0 30 -14 30 -31c0 -18 -13 -32 -30 -32c-18 0 -31 14 -31 32c0 17 13 31 31 31zM302 153h8l-9 13c5 2 8 6 8 12c0 7 -5 12 -13 12h-17v-37h8v12h7zM145 400c3 -5 4 -11 4 -16c0 -18 -15 -35 -35 -35c-16 0 -33 13 -33 33c0 18 15 35 35 35c12 0 22 -6 29 -17
zM294 184c5 0 8 -3 8 -6c0 -5 -3 -7 -8 -7h-7v13h7zM260 412c5 3 10 4 16 4c8 0 17 -3 26 -10l-29 -92c-18 18 -30 48 -30 67c0 13 5 24 17 31zM314 394c17 -21 29 -49 29 -67s-12 -35 -32 -35c-9 0 -17 3 -25 10zM294 684l285 -164v-328l-285 -164l-284 164v328zM308 561
v-75h8v34h36v8h-36v25h39v8h-47zM230 561v-8h23v-67h8v67h24v8h-55zM127 259l89 51l-8 15l-68 -40l20 69c3 10 5 20 5 30c0 30 -24 49 -48 49c-30 0 -53 -25 -53 -51c0 -29 26 -49 49 -49c8 0 16 2 23 6l4 3l-20 -70zM293 130c22 0 40 18 40 41c0 22 -18 40 -40 40
c-23 0 -40 -18 -40 -40c0 -23 17 -41 40 -41zM335 282c18 11 25 27 25 46c0 44 -42 105 -83 105c-33 0 -51 -28 -51 -53c0 -44 42 -105 84 -105c8 0 16 2 25 7zM493 281c21 12 30 29 30 47c0 35 -29 54 -51 54c-25 0 -44 -17 -50 -34l-26 46l63 37l-8 14l-78 -45l47 -82
l14 8c0 2 -1 3 -1 5c0 14 13 34 37 34c18 0 36 -14 36 -36c0 -21 -20 -40 -43 -40c-7 0 -14 2 -20 6l-5 -17c7 -3 16 -5 25 -5c10 0 20 2 30 8z" />
    <glyph glyph-name=".notdef" horiz-adv-x="589" 
d="M293 202c17 0 30 -14 30 -31c0 -18 -13 -32 -30 -32c-18 0 -31 14 -31 32c0 17 13 31 31 31zM302 153h8l-9 13c5 2 8 6 8 12c0 7 -5 12 -13 12h-17v-37h8v12h7zM145 400c3 -5 4 -11 4 -16c0 -18 -15 -35 -35 -35c-16 0 -33 13 -33 33c0 18 15 35 35 35c12 0 22 -6 29 -17
zM294 184c5 0 8 -3 8 -6c0 -5 -3 -7 -8 -7h-7v13h7zM260 412c5 3 10 4 16 4c8 0 17 -3 26 -10l-29 -92c-18 18 -30 48 -30 67c0 13 5 24 17 31zM314 394c17 -21 29 -49 29 -67s-12 -35 -32 -35c-9 0 -17 3 -25 10zM294 684l285 -164v-328l-285 -164l-284 164v328zM308 561
v-75h8v34h36v8h-36v25h39v8h-47zM230 561v-8h23v-67h8v67h24v8h-55zM127 259l89 51l-8 15l-68 -40l20 69c3 10 5 20 5 30c0 30 -24 49 -48 49c-30 0 -53 -25 -53 -51c0 -29 26 -49 49 -49c8 0 16 2 23 6l4 3l-20 -70zM293 130c22 0 40 18 40 41c0 22 -18 40 -40 40
c-23 0 -40 -18 -40 -40c0 -23 17 -41 40 -41zM335 282c18 11 25 27 25 46c0 44 -42 105 -83 105c-33 0 -51 -28 -51 -53c0 -44 42 -105 84 -105c8 0 16 2 25 7zM493 281c21 12 30 29 30 47c0 35 -29 54 -51 54c-25 0 -44 -17 -50 -34l-26 46l63 37l-8 14l-78 -45l47 -82
l14 8c0 2 -1 3 -1 5c0 14 13 34 37 34c18 0 36 -14 36 -36c0 -21 -20 -40 -43 -40c-7 0 -14 2 -20 6l-5 -17c7 -3 16 -5 25 -5c10 0 20 2 30 8z" />
    <glyph glyph-name="CR" unicode="&#xd;" horiz-adv-x="265" 
 />
    <glyph glyph-name="space" unicode=" " horiz-adv-x="265" 
 />
    <glyph glyph-name="I" unicode="I" horiz-adv-x="289" 
d="M300 720l-126 -720h-153l126 720h153z" />
    <glyph glyph-name="l" unicode="l" horiz-adv-x="274" 
d="M289 720l-126 -720h-146l126 720h146z" />
    <glyph glyph-name="i" unicode="i" horiz-adv-x="274" 
d="M258 541l-95 -541h-146l95 541h146zM109 652c0 50 38 78 88 78s88 -28 88 -78s-38 -78 -88 -78s-88 28 -88 78z" />
    <glyph glyph-name="j" unicode="j" horiz-adv-x="274" 
d="M258 541l-122 -690l-149 -20l125 710h146zM109 652c0 50 38 78 88 78s88 -28 88 -78s-38 -78 -88 -78s-88 28 -88 78z" />
    <glyph glyph-name="u" unicode="u" horiz-adv-x="591" 
d="M380 265l49 276h146l-95 -541h-139l13 89c-35 -61 -89 -101 -146 -101c-104 0 -162 73 -162 168c0 23 2 60 8 92l52 293h146l-50 -285c-5 -30 -9 -46 -9 -68c0 -38 27 -65 66 -65c44 0 73 20 94 55c15 25 22 60 27 87z" />
    <glyph glyph-name="t" unicode="t" horiz-adv-x="358" 
d="M397 541l-23 -132h-97l-72 -409h-146l72 409h-97l23 132h97l19 110l150 20l-23 -130h97z" />
    <glyph glyph-name="h" unicode="h" horiz-adv-x="591" 
d="M399 553c96 0 148 -77 148 -157c0 -33 -3 -66 -10 -106l-51 -290h-146l50 286c5 30 9 46 9 64c0 42 -27 69 -66 69c-44 0 -73 -20 -94 -55c-15 -25 -22 -60 -27 -87l-49 -277h-146l126 720h146l-45 -263c37 55 91 96 155 96z" />
    <glyph glyph-name="m" unicode="m" horiz-adv-x="878" 
d="M517 280l-49 -280h-146l52 297c4 25 8 44 8 60c0 39 -23 62 -63 62s-71 -30 -88 -68c-8 -18 -14 -44 -19 -71l-49 -280h-146l95 541h146l-16 -85c30 49 88 97 157 97c68 0 116 -46 125 -107c33 65 98 107 163 107c88 0 147 -66 147 -158c0 -32 -6 -79 -11 -106l-50 -289
h-146l52 297c4 25 8 44 8 60c0 39 -23 62 -63 62s-71 -30 -88 -68c-8 -18 -14 -44 -19 -71z" />
    <glyph glyph-name="f" unicode="f" horiz-adv-x="358" 
d="M300 541h97l-23 -132h-97l-72 -409h-146l72 409h-97l23 132h97l5 27c20 106 94 164 197 164c36 0 58 -5 78 -11l-20 -125c-11 3 -26 5 -47 5c-39 0 -64 -23 -67 -60z" />
    <glyph glyph-name="period" unicode="." horiz-adv-x="265" 
d="M7 80c0 54 37 91 92 91c54 0 91 -37 91 -91c0 -55 -37 -92 -91 -92c-55 0 -92 37 -92 92z" />
    <glyph glyph-name="colon" unicode=":" horiz-adv-x="265" 
d="M7 80c0 54 37 91 92 91c54 0 91 -37 91 -91c0 -55 -37 -92 -91 -92c-55 0 -92 37 -92 92zM74 462c0 54 37 91 92 91c54 0 91 -37 91 -91c0 -55 -37 -92 -91 -92c-55 0 -92 37 -92 92z" />
    <glyph glyph-name="ellipsis" unicode="&#x2026;" horiz-adv-x="795" 
d="M7 80c0 54 37 91 92 91c54 0 91 -37 91 -91c0 -55 -37 -92 -91 -92c-55 0 -92 37 -92 92zM272 80c0 54 37 91 92 91c54 0 91 -37 91 -91c0 -55 -37 -92 -91 -92c-55 0 -92 37 -92 92zM537 80c0 54 37 91 92 91c54 0 91 -37 91 -91c0 -55 -37 -92 -91 -92
c-55 0 -92 37 -92 92z" />
    <glyph glyph-name="e" unicode="e" horiz-adv-x="598" 
d="M188 319h241c-2 56 -31 101 -100 101c-67 0 -118 -40 -141 -101zM556 226h-381c0 -58 39 -105 112 -105c50 0 85 20 107 56l137 -39c-37 -85 -130 -150 -244 -150c-150 0 -255 107 -255 252c0 178 133 313 297 313c150 0 237 -109 237 -236c0 -36 -3 -62 -10 -91z" />
    <glyph glyph-name="a" unicode="a" horiz-adv-x="560" 
d="M341 205l9 42c-11 -6 -28 -13 -50 -18l-83 -19c-39 -9 -62 -33 -62 -63c0 -31 23 -49 61 -49c62 0 112 45 125 107zM299 553c135 0 215 -75 215 -175c0 -22 -3 -45 -7 -68l-25 -141c-2 -9 -5 -23 -5 -33c0 -15 8 -21 24 -21c5 0 13 2 18 3l-10 -125c-12 -3 -26 -5 -43 -5
c-61 0 -114 35 -125 94c-31 -58 -90 -94 -159 -94c-99 0 -171 55 -171 148s65 146 177 163l141 22c30 5 41 23 41 46c0 31 -23 56 -73 56c-52 0 -77 -27 -87 -63l-146 25c16 89 102 168 235 168z" />
    <glyph glyph-name="E" unicode="E" horiz-adv-x="552" 
d="M21 0l126 720h431l-24 -141h-278l-24 -132h267l-25 -141h-267l-29 -165h289l-24 -141h-442z" />
    <glyph glyph-name="F" unicode="F" horiz-adv-x="524" 
d="M21 0l126 720h421l-24 -141h-268l-24 -132h237l-25 -141h-237l-53 -306h-153z" />
    <glyph glyph-name="L" unicode="L" horiz-adv-x="514" 
d="M21 0l126 720h153l-102 -579h269l-24 -141h-422z" />
    <glyph glyph-name="D" unicode="D" horiz-adv-x="711" 
d="M22 0l126 720h219c190 0 331 -118 331 -331c0 -231 -176 -389 -429 -389h-247zM277 579l-78 -438h56c183 0 282 106 282 248c0 127 -66 190 -176 190h-84z" />
    <glyph glyph-name="p" unicode="p" horiz-adv-x="649" 
d="M468 296c0 71 -47 126 -110 126c-83 0 -155 -78 -155 -173c0 -75 44 -131 117 -131c78 0 148 68 148 178zM401 553c119 0 219 -103 219 -266c0 -164 -112 -299 -261 -299c-88 0 -144 41 -179 88l-47 -245h-146l125 710h146l-11 -66c41 51 96 78 154 78z" />
    <glyph glyph-name="b" unicode="b" horiz-adv-x="649" 
d="M246 472c41 51 97 81 155 81c119 0 219 -103 219 -266c0 -164 -112 -299 -261 -299c-93 0 -148 40 -183 87l-13 -75h-146l126 720h146zM468 296c0 71 -47 126 -110 126c-83 0 -155 -78 -155 -173c0 -75 44 -131 117 -131c78 0 148 68 148 178z" />
    <glyph glyph-name="q" unicode="q" horiz-adv-x="649" 
d="M182 245c0 -71 47 -125 110 -125c83 0 155 77 155 173c0 74 -44 130 -117 130c-78 0 -148 -67 -148 -178zM259 -12c-131 0 -229 104 -229 260c0 170 124 305 267 305c85 0 140 -39 175 -98l16 86h146l-125 -710h-146l38 227c-38 -48 -93 -70 -142 -70z" />
    <glyph glyph-name="d" unicode="d" horiz-adv-x="649" 
d="M180 245c0 -71 47 -125 110 -125c83 0 155 77 155 173c0 74 -44 130 -117 130c-78 0 -148 -67 -148 -178zM259 -12c-131 0 -231 104 -231 260c0 170 120 305 267 305c85 0 142 -41 176 -96l46 263h146l-125 -720h-140l8 65c-38 -52 -90 -77 -147 -77z" />
    <glyph glyph-name="T" unicode="T" horiz-adv-x="606" 
d="M435 579l-102 -579h-153l102 579h-207l24 141h566l-24 -141h-206z" />
    <glyph glyph-name="C" unicode="C" horiz-adv-x="758" 
d="M397 -7c-222 0 -349 140 -349 326c0 225 190 413 419 413c172 0 263 -83 307 -186l-147 -75c-29 62 -76 112 -161 112c-130 0 -254 -117 -254 -265c0 -109 71 -181 183 -181c91 0 151 45 201 137l139 -72c-57 -130 -177 -209 -338 -209z" />
    <glyph glyph-name="B" unicode="B" horiz-adv-x="628" 
d="M199 141h106c74 0 128 31 128 92c0 43 -24 73 -88 73h-117zM253 447h84c61 0 104 23 104 75c0 33 -21 57 -69 57h-96zM316 0h-295l126 720h239c128 0 213 -75 213 -186c0 -86 -47 -127 -114 -153c63 -24 110 -78 110 -166c0 -119 -105 -215 -279 -215z" />
    <glyph glyph-name="P" unicode="P" horiz-adv-x="626" 
d="M401 579h-125l-31 -180h99c80 0 139 35 139 106c0 43 -25 74 -82 74zM349 258h-130l-45 -258h-153l126 720h263c143 0 237 -83 237 -216c0 -146 -105 -246 -298 -246z" />
    <glyph glyph-name="Q" unicode="Q" horiz-adv-x="822" 
d="M395 -7c-220 0 -347 143 -347 325c0 231 194 414 418 414c208 0 339 -137 339 -328c0 -156 -80 -281 -197 -351l51 -157l-134 -42l-46 147c-27 -5 -55 -8 -84 -8zM528 302l31 -100c57 53 82 125 82 202c0 108 -71 179 -175 179c-141 0 -254 -117 -254 -265
c0 -109 70 -181 183 -181c13 0 27 1 40 4l-37 120z" />
    <glyph glyph-name="A" unicode="A" horiz-adv-x="722" 
d="M123 0h-164l406 720h153l151 -720h-155l-27 135h-291zM410 520l-133 -247h181z" />
    <glyph glyph-name="g" unicode="g" horiz-adv-x="633" 
d="M616 541l-87 -499c-24 -135 -117 -222 -284 -222c-147 0 -237 77 -251 170l141 26c14 -39 43 -67 109 -67c85 0 131 40 146 129l4 24c-32 -38 -85 -64 -135 -64c-124 0 -221 82 -221 241c0 147 112 274 254 274c76 0 128 -38 161 -92l17 80h146zM187 279
c0 -68 39 -110 102 -110c73 0 146 57 146 147c0 63 -45 107 -113 107c-73 0 -135 -54 -135 -144z" />
    <glyph glyph-name="r" unicode="r" horiz-adv-x="401" 
d="M443 551l-18 -156c-16 3 -30 5 -52 5c-66 0 -124 -37 -145 -86c-6 -13 -18 -45 -28 -104l-37 -210h-146l95 541h146l-18 -101c43 80 107 113 179 113c7 0 13 -1 24 -2z" />
    <glyph glyph-name="V" unicode="V" horiz-adv-x="681" 
d="M320 216l263 504h171l-383 -720h-166l-120 720h159z" />
    <glyph glyph-name="W" unicode="W" horiz-adv-x="1059" 
d="M756 250l202 470h173l-336 -720h-163l-63 501l-244 -501h-166l-73 720h164l36 -470l223 470h185z" />
    <glyph glyph-name="M" unicode="M" horiz-adv-x="887" 
d="M328 720l126 -326l242 326h202l-126 -720h-153l87 499l-226 -305h-113l-115 306l-88 -500h-143l126 720h181z" />
    <glyph glyph-name="v" unicode="v" horiz-adv-x="563" 
d="M444 541h169l-303 -541h-158l-106 541h155l59 -348z" />
    <glyph glyph-name="y" unicode="y" horiz-adv-x="574" 
d="M453 541h171l-423 -710h-171l133 208l-117 502h158l68 -326z" />
    <glyph glyph-name="w" unicode="w" horiz-adv-x="853" 
d="M732 541h171l-265 -541h-156l-49 334l-163 -334h-161l-63 541h160l18 -336l162 336h165l43 -336z" />
    <glyph glyph-name="o" unicode="o" horiz-adv-x="640" 
d="M300 -12c-168 0 -268 117 -268 255c0 163 137 310 316 310c165 0 263 -110 263 -255c0 -170 -129 -310 -311 -310zM463 298c0 69 -43 119 -115 119c-86 0 -169 -72 -169 -174c0 -71 48 -119 121 -119c85 0 163 78 163 174z" />
    <glyph glyph-name="Eacute" unicode="&#xc9;" horiz-adv-x="552" 
d="M293 758l64 124h176l-118 -124h-122zM21 0l126 720h431l-24 -141h-278l-24 -132h267l-25 -141h-267l-29 -165h289l-24 -141h-442z" />
    <glyph glyph-name="Egrave" unicode="&#xc8;" horiz-adv-x="552" 
d="M394 882l35 -124h-109l-89 124h163zM21 0l126 720h431l-24 -141h-278l-24 -132h267l-25 -141h-267l-29 -165h289l-24 -141h-442z" />
    <glyph glyph-name="Agrave" unicode="&#xc0;" horiz-adv-x="722" 
d="M482 882l35 -124h-109l-89 124h163zM123 0h-164l406 720h153l151 -720h-155l-27 135h-291zM410 520l-133 -247h181z" />
    <glyph glyph-name="J" unicode="J" horiz-adv-x="391" 
d="M74 138c51 0 86 26 94 69l90 513h153l-96 -544c-21 -120 -93 -188 -233 -188c-37 0 -71 6 -97 15l20 144c19 -6 43 -9 69 -9z" />
    <glyph glyph-name="K" unicode="K" horiz-adv-x="689" 
d="M636 0h-185l-148 292l-98 -108l-31 -184h-153l126 720h153l-53 -297l269 297h218l-308 -310z" />
    <glyph glyph-name="N" unicode="N" horiz-adv-x="725" 
d="M458 0l-213 461l-82 -461h-142l126 720h141l222 -472l84 472h142l-126 -720h-152z" />
    <glyph glyph-name="U" unicode="U" horiz-adv-x="700" 
d="M574 720h143l-86 -491c-26 -148 -139 -241 -289 -241c-168 0 -279 99 -279 261c0 19 4 55 16 123l62 348h153l-72 -403c-5 -26 -6 -56 -6 -65c0 -71 47 -115 128 -115c85 0 137 56 150 132z" />
    <glyph glyph-name="Ugrave" unicode="&#xd9;" horiz-adv-x="700" 
d="M475 882l35 -124h-109l-89 124h163zM574 720h143l-86 -491c-26 -148 -139 -241 -289 -241c-168 0 -279 99 -279 261c0 19 4 55 16 123l62 348h153l-72 -403c-5 -26 -6 -56 -6 -65c0 -71 47 -115 128 -115c85 0 137 56 150 132z" />
    <glyph glyph-name="R" unicode="R" horiz-adv-x="629" 
d="M388 579h-112l-30 -166h93c77 0 119 34 119 95c0 39 -26 71 -70 71zM307 272h-86l-47 -272h-153l126 720h247c138 0 227 -79 227 -213c0 -101 -52 -171 -169 -210l109 -297h-164z" />
    <glyph glyph-name="Acircumflex" unicode="&#xc2;" horiz-adv-x="722" 
d="M550 882l99 -125h-144l-39 46l-57 -46h-156l144 125h153zM123 0h-164l406 720h153l151 -720h-155l-27 135h-291zM410 520l-133 -247h181z" />
    <glyph glyph-name="G" unicode="G" horiz-adv-x="787" 
d="M467 732c125 0 228 -39 296 -158l-139 -87c-41 65 -85 96 -158 96c-129 0 -253 -118 -253 -264c0 -110 67 -182 188 -182c103 0 167 62 188 122h-217l26 140h364l-70 -399h-142l11 70c-49 -43 -106 -78 -192 -78c-190 0 -320 141 -320 327c0 220 194 413 418 413z" />
    <glyph glyph-name="S" unicode="S" horiz-adv-x="597" 
d="M562 205c0 -134 -94 -217 -253 -217c-130 0 -239 65 -287 186l139 73c34 -60 80 -110 146 -110c62 0 91 29 91 68c0 35 -23 60 -74 82l-78 33c-97 41 -150 109 -150 202c0 114 95 210 230 210c110 0 196 -42 249 -151l-135 -77c-33 57 -67 79 -115 79
c-40 0 -69 -24 -69 -61c0 -23 15 -45 50 -60l93 -41c123 -54 163 -122 163 -216z" />
    <glyph glyph-name="X" unicode="X" horiz-adv-x="698" 
d="M290 720l103 -230l163 230h193l-287 -358l181 -362h-184l-111 253l-179 -253h-198l306 385l-168 335h181z" />
    <glyph glyph-name="Y" unicode="Y" horiz-adv-x="655" 
d="M352 456l198 264h179l-321 -418l-53 -302h-153l53 302l-171 418h161z" />
    <glyph glyph-name="c" unicode="c" horiz-adv-x="584" 
d="M296 -12c-166 0 -266 117 -266 255c0 183 148 310 307 310c144 0 219 -79 243 -159l-134 -53c-19 42 -48 76 -109 76c-79 0 -159 -61 -159 -174c0 -71 48 -119 120 -119c62 0 98 37 132 93l126 -78c-44 -85 -132 -151 -260 -151z" />
    <glyph glyph-name="x" unicode="x" horiz-adv-x="544" 
d="M235 541l64 -140l93 140h185l-210 -274l129 -267h-170l-73 158l-103 -158h-190l221 300l-116 241h170z" />
    <glyph glyph-name="Z" unicode="Z" horiz-adv-x="670" 
d="M110 579l24 141h571l-23 -132l-441 -447h382l-24 -141h-618l20 117l455 462h-346z" />
    <glyph glyph-name="s" unicode="s" horiz-adv-x="447" 
d="M405 148c0 -96 -72 -160 -182 -160c-92 0 -173 37 -227 117l108 82c29 -40 68 -69 119 -69c29 0 44 16 44 34c0 16 -9 28 -38 46l-60 38c-64 41 -99 83 -99 155c0 88 79 162 176 162c88 0 144 -43 178 -104l-105 -77c-19 30 -44 51 -74 51c-23 0 -39 -14 -39 -32
c0 -15 5 -24 39 -45l71 -45c55 -35 89 -84 89 -153z" />
    <glyph glyph-name="k" unicode="k" horiz-adv-x="571" 
d="M603 541l-234 -245l158 -296h-181l-86 180l-80 -83l-17 -97h-146l126 720h146l-68 -391l178 212h204z" />
    <glyph glyph-name="z" unicode="z" horiz-adv-x="534" 
d="M63 409l23 132h461l-18 -100l-292 -309h253l-23 -132h-495l14 85l308 324h-231z" />
    <glyph glyph-name="hyphen" unicode="-" horiz-adv-x="265" 
d="M255 337l-23 -132h-220l23 132h220z" />
    <glyph glyph-name="endash" unicode="&#x2013;" horiz-adv-x="500" 
d="M509 319l-17 -96h-500l17 96h500z" />
    <glyph glyph-name="H" unicode="H" horiz-adv-x="724" 
d="M456 0l53 306h-282l-53 -306h-153l126 720h153l-48 -273h282l48 273h153l-126 -720h-153z" />
    <glyph glyph-name="bar" unicode="|" horiz-adv-x="265" 
d="M-4 -169l184 1047h119l-184 -1047h-119z" />
    <glyph glyph-name="plus" unicode="+" 
d="M357 419h166v-118h-166v-166h-118v166h-166v118h166v166h118v-166z" />
    <glyph glyph-name="zero" unicode="0" 
d="M262 129c62 0 98 79 123 180c18 73 19 124 19 147c0 86 -26 135 -75 135c-55 0 -89 -55 -117 -173c-17 -73 -19 -139 -19 -166c0 -73 25 -123 69 -123zM41 248c0 30 0 77 11 140c39 224 151 344 284 344c68 0 116 -23 155 -66c39 -42 66 -118 66 -209
c0 -52 -2 -91 -15 -159c-39 -203 -148 -310 -280 -310c-68 0 -118 25 -156 68c-34 38 -65 105 -65 192z" />
    <glyph glyph-name="one" unicode="1" 
d="M118 491l20 113h16c93 0 170 41 220 116h108l-126 -720h-154l86 491h-170z" />
    <glyph glyph-name="two" unicode="2" 
d="M496 140l-25 -140h-468l3 42c8 113 61 170 129 220l178 131c54 40 87 67 87 118c0 50 -33 77 -73 77c-52 0 -90 -33 -118 -90l-120 62c41 107 127 172 243 172c133 0 219 -89 219 -220c0 -105 -44 -159 -155 -233l-148 -98c-25 -17 -41 -30 -45 -41h293z" />
    <glyph glyph-name="three" unicode="3" 
d="M258 132c63 0 103 42 103 97c0 50 -32 83 -107 83h-49l23 132h50c84 0 118 36 118 78c0 38 -24 69 -69 69c-46 0 -79 -23 -105 -59l-100 89c49 67 123 111 205 111c120 0 209 -77 209 -199c0 -79 -39 -133 -109 -159c54 -34 82 -89 82 -162c0 -139 -105 -224 -251 -224
c-117 0 -198 51 -239 145l125 71c21 -43 53 -72 114 -72z" />
    <glyph glyph-name="four" unicode="4" 
d="M378 547l-215 -248h171zM548 299l-22 -127h-69l-30 -172h-145l30 172h-305l27 151l356 397h163l-74 -421h69z" />
    <glyph glyph-name="five" unicode="5" 
d="M345 480c92 0 183 -86 183 -236c0 -151 -100 -256 -266 -256c-120 0 -211 71 -245 174l130 56c23 -56 58 -89 116 -89c82 0 117 57 117 115c0 63 -35 104 -91 104c-39 0 -69 -20 -92 -44l-126 46l96 370h402l-25 -139h-280l-44 -159c35 38 67 58 125 58z" />
    <glyph glyph-name="six" unicode="6" 
d="M367 732c92 0 154 -34 200 -101l-100 -91c-37 39 -60 54 -100 54c-35 0 -70 -19 -95 -49c-31 -37 -57 -87 -68 -174c32 48 81 87 140 87c104 0 187 -86 187 -217c0 -144 -107 -253 -253 -253c-77 0 -132 23 -176 78c-41 50 -56 117 -56 213c0 178 56 296 130 369
c56 55 120 84 191 84zM386 241c0 49 -32 82 -77 82c-61 0 -112 -47 -112 -116c0 -50 34 -81 80 -81c59 0 109 49 109 115z" />
    <glyph glyph-name="seven" unicode="7" 
d="M92 580l25 140h500l-23 -129c-164 -163 -281 -341 -339 -591h-175c40 205 177 410 362 580h-350z" />
    <glyph glyph-name="eight" unicode="8" 
d="M260 -12c-138 0 -229 83 -229 209c0 93 53 154 131 192c-27 29 -53 62 -53 126c0 118 112 217 231 217s202 -81 202 -196c0 -77 -33 -134 -95 -170c34 -24 68 -70 68 -143c0 -128 -113 -235 -255 -235zM410 529c0 45 -32 71 -70 71c-52 0 -99 -41 -99 -98
c0 -39 31 -64 75 -64c47 0 94 35 94 91zM373 231c0 54 -36 84 -81 84c-60 0 -119 -50 -119 -115c0 -49 37 -77 87 -77c58 0 113 49 113 108z" />
    <glyph glyph-name="nine" unicode="9" 
d="M228 -12c-92 0 -161 38 -207 105l101 93c37 -39 66 -60 106 -60c35 0 72 19 97 49c31 37 57 88 68 175c-32 -48 -83 -88 -142 -88c-104 0 -187 86 -187 217c0 144 114 253 253 253c77 0 132 -23 176 -78c41 -50 57 -117 57 -213c0 -178 -55 -296 -129 -369
c-56 -55 -122 -84 -193 -84zM209 479c0 -49 32 -82 77 -82c61 0 112 47 112 116c0 50 -34 81 -80 81c-59 0 -109 -49 -109 -115z" />
    <glyph glyph-name="minus" unicode="&#x2212;" 
d="M73 419h450v-118h-450v118z" />
    <glyph glyph-name="multiply" unicode="&#xd7;" 
d="M298 444l118 116l82 -82l-116 -118l116 -118l-82 -82l-118 116l-118 -116l-82 82l116 118l-116 118l82 82z" />
    <glyph glyph-name="comma" unicode="," horiz-adv-x="265" 
d="M-37 -151l80 309h167l-152 -309h-95z" />
    <glyph glyph-name="semicolon" unicode=";" horiz-adv-x="265" 
d="M-37 -151l80 309h167l-152 -309h-95zM74 462c0 54 37 91 92 91c54 0 91 -37 91 -91c0 -55 -37 -92 -91 -92c-55 0 -92 37 -92 92z" />
    <glyph glyph-name="quoteright" unicode="&#x2019;" horiz-adv-x="265" 
d="M65 432l76 288h167l-148 -288h-95z" />
    <glyph glyph-name="quotedblright" unicode="&#x201d;" horiz-adv-x="464" 
d="M65 432l76 288h167l-148 -288h-95zM264 432l76 288h167l-148 -288h-95z" />
    <glyph glyph-name="quotedblleft" unicode="&#x201c;" horiz-adv-x="464" 
d="M507 720l-77 -288h-166l148 288h95zM308 720l-77 -288h-166l148 288h95z" />
    <glyph glyph-name="quotedbl" unicode="&#x22;" horiz-adv-x="464" 
d="M127 408l7 312h156l-103 -312h-60zM325 408l7 312h156l-103 -312h-60z" />
    <glyph glyph-name="equal" unicode="=" 
d="M73 519h450v-118h-450v118zM73 319h450v-118h-450v118z" />
    <glyph glyph-name="exclam" unicode="!" horiz-adv-x="265" 
d="M93 202l3 307l37 211h157l-37 -211l-105 -307h-55zM7 80c0 54 37 91 92 91c54 0 91 -37 91 -91c0 -55 -37 -92 -91 -92c-55 0 -92 37 -92 92z" />
    <glyph glyph-name="plusminus" unicode="&#xb1;" 
d="M357 233h166v-118h-450v118h166v102h-166v118h166v146h118v-146h166v-118h-166v-102z" />
    <glyph glyph-name="guillemotleft" unicode="&#xab;" horiz-adv-x="476" 
d="M248 349l-127 -86l96 -85l-25 -144l-175 159l27 156l232 159l-28 -159l232 159l-28 -160l-127 -85l96 -85l-25 -144l-175 159z" />
    <glyph glyph-name="guillemotright" unicode="&#xbb;" horiz-adv-x="476" 
d="M229 193l127 86l-96 85l25 144l175 -159l-27 -156l-232 -159l27 158l-231 -158l28 160l127 85l-96 85l25 144l175 -159z" />
    <glyph glyph-name="parenleft" unicode="(" horiz-adv-x="362" 
d="M69 152c0 186 76 396 231 568h123c-147 -179 -224 -381 -224 -591c0 -106 23 -203 68 -298h-106c-58 97 -92 197 -92 321z" />
    <glyph glyph-name="bracketleft" unicode="[" horiz-adv-x="362" 
d="M143 -57h143l-19 -112h-261l156 889h261l-19 -112h-143z" />
    <glyph glyph-name="bracketright" unicode="]" horiz-adv-x="362" 
d="M-40 -57h143l118 665h-143l19 112h261l-156 -889h-260z" />
    <glyph glyph-name="braceleft" unicode="{" horiz-adv-x="362" 
d="M119 268c58 -19 80 -50 80 -102c0 -14 -3 -33 -7 -54l-14 -78c-4 -24 -4 -33 -4 -41c0 -29 17 -50 54 -50h58l-19 -112h-45c-106 0 -167 66 -167 146c0 14 1 33 5 54l16 92c3 15 5 30 5 43c0 40 -13 69 -79 69c4 28 10 55 14 83c87 0 104 49 115 111l26 151
c19 108 102 140 176 140h90l-19 -112h-58c-40 0 -69 -20 -78 -70l-30 -166c-11 -61 -52 -92 -119 -104z" />
    <glyph glyph-name="braceright" unicode="}" horiz-adv-x="362" 
d="M245 283c-58 19 -80 50 -80 102c0 14 3 33 7 54l14 78c4 24 4 33 4 41c0 29 -17 50 -54 50h-58l19 112h45c106 0 167 -66 167 -146c0 -14 -1 -33 -5 -54l-16 -92c-3 -15 -5 -30 -5 -43c0 -40 13 -69 79 -69c-4 -28 -10 -55 -14 -83c-87 0 -104 -49 -115 -111l-26 -151
c-19 -108 -102 -140 -176 -140h-90l19 112h58c40 0 69 20 78 70l30 166c11 61 52 92 119 104z" />
    <glyph glyph-name="parenright" unicode=")" horiz-adv-x="362" 
d="M298 399c0 -186 -76 -396 -231 -568h-123c147 179 224 381 224 591c0 106 -23 203 -68 298h106c58 -97 92 -197 92 -321z" />
    <glyph glyph-name="ampersand" unicode="&#x26;" horiz-adv-x="671" 
d="M532 554c0 -78 -50 -135 -141 -178l73 -120c22 30 48 76 59 104h135c-24 -82 -72 -154 -126 -208l97 -152h-157l-40 60c-55 -45 -119 -72 -179 -72c-137 0 -240 80 -240 214c0 95 58 178 187 223c-20 36 -36 85 -36 123c0 114 92 184 190 184c96 0 178 -75 178 -178z
M253 126c39 0 77 13 111 41l-98 159c-81 -34 -105 -70 -105 -115s32 -85 92 -85zM303 543c0 -36 19 -55 28 -72c52 25 67 43 67 72c0 30 -19 51 -44 51c-33 0 -51 -23 -51 -51z" />
    <glyph glyph-name="asterisk" unicode="*" horiz-adv-x="456" 
d="M315 330l-57 115l-92 -89l-70 70l95 91l-117 62l46 89l116 -63l22 122l99 -18l-22 -121l131 19l12 -99l-130 -18l59 -118z" />
    <glyph glyph-name="percent" unicode="%" horiz-adv-x="999" 
d="M266 348c-113 0 -183 78 -183 176c0 106 97 208 208 208c112 0 181 -75 181 -175c0 -114 -92 -209 -206 -209zM358 556c0 42 -27 67 -64 67c-47 0 -95 -41 -95 -100c0 -42 24 -65 65 -65c49 0 94 44 94 98zM240 -1l419 720h131l-417 -720h-133zM740 -13
c-113 0 -183 78 -183 176c0 106 97 208 208 208c112 0 181 -75 181 -175c0 -114 -92 -209 -206 -209zM832 195c0 42 -27 67 -64 67c-47 0 -95 -41 -95 -100c0 -42 24 -65 65 -65c49 0 94 44 94 98z" />
    <glyph glyph-name="question" unicode="?" horiz-adv-x="485" 
d="M259 202h-63c-4 13 -8 28 -8 50c0 51 21 98 73 143l53 45c32 27 49 53 49 86c0 39 -25 68 -67 68c-41 0 -73 -23 -101 -71l-106 74c40 81 120 135 214 135c116 0 204 -85 204 -206c0 -68 -32 -122 -93 -168l-70 -52c-38 -28 -74 -56 -85 -104zM115 80c0 54 37 91 92 91
c54 0 91 -37 91 -91c0 -55 -37 -92 -91 -92c-55 0 -92 37 -92 92z" />
    <glyph glyph-name="at" unicode="@" horiz-adv-x="955" 
d="M628 -10l45 -101c-76 -45 -156 -59 -228 -59c-249 0 -409 154 -409 387c0 289 205 515 508 515c247 0 387 -164 387 -375c0 -218 -129 -323 -236 -323c-78 0 -129 40 -144 87c-35 -54 -88 -87 -143 -87c-87 0 -151 54 -151 134c0 67 40 123 164 142l115 18
c25 4 37 16 37 40c0 26 -22 47 -61 47c-45 0 -71 -20 -78 -46l-135 11c10 76 94 151 213 151c117 0 187 -68 187 -151c0 -17 -1 -35 -8 -74l-20 -105c-3 -17 -4 -24 -4 -32c0 -16 8 -30 28 -30c41 0 110 72 110 217c0 154 -106 262 -261 262c-223 0 -383 -181 -383 -403
c0 -163 110 -268 283 -268c70 0 126 13 184 43zM552 240l3 20c-5 -3 -20 -9 -51 -17l-61 -15c-42 -10 -58 -34 -58 -57c0 -21 15 -40 50 -40c46 0 104 42 117 109z" />
    <glyph glyph-name="underscore" unicode="_" horiz-adv-x="500" 
d="M441 -73l-17 -96h-500l17 96h500z" />
    <glyph glyph-name="onesuperior" unicode="&#xb9;" horiz-adv-x="325" 
d="M67 542l17 94h17c67 0 123 29 159 84h86l-95 -540h-122l64 362h-126z" />
    <glyph glyph-name="asuperior" unicode="&#xf6e9;" horiz-adv-x="431" 
d="M279 351l3 16c-9 -6 -24 -13 -43 -18l-53 -15c-26 -7 -36 -20 -36 -38c0 -16 14 -33 43 -33c42 0 75 30 86 88zM247 597c105 0 163 -57 163 -137c0 -25 -5 -57 -10 -83l-11 -60c-2 -10 -4 -21 -4 -29c0 -11 8 -17 18 -17c4 0 6 0 10 1l-8 -97c-8 -2 -20 -4 -35 -4
c-46 0 -87 23 -96 72c-23 -47 -67 -72 -114 -72c-75 0 -127 46 -127 113c0 64 44 106 129 119l103 16c22 3 34 15 34 35c0 21 -17 38 -51 38c-31 0 -56 -18 -63 -48l-118 20c13 69 76 133 180 133z" />
    <glyph glyph-name="O" unicode="O" horiz-adv-x="822" 
d="M395 -7c-220 0 -347 143 -347 325c0 231 194 414 418 414c208 0 339 -137 339 -328c0 -239 -185 -411 -410 -411zM641 404c0 108 -71 179 -175 179c-141 0 -254 -117 -254 -265c0 -109 70 -181 183 -181c130 0 246 122 246 267z" />
    <glyph glyph-name="n" unicode="n" horiz-adv-x="591" 
d="M399 553c96 0 148 -77 148 -157c0 -33 -3 -66 -10 -106l-51 -290h-146l50 286c5 30 9 46 9 64c0 42 -27 69 -66 69c-44 0 -73 -20 -94 -55c-15 -25 -22 -60 -27 -87l-49 -277h-146l95 541h146l-14 -84c37 55 91 96 155 96z" />
    <glyph glyph-name="acircumflex" unicode="&#xe2;" horiz-adv-x="560" 
d="M422 720l93 -141h-131l-40 51l-57 -51h-148l142 141h141zM341 205l9 42c-11 -6 -28 -13 -50 -18l-83 -19c-39 -9 -62 -33 -62 -63c0 -31 23 -49 61 -49c62 0 112 45 125 107zM299 553c135 0 215 -75 215 -175c0 -22 -3 -45 -7 -68l-25 -141c-2 -9 -5 -23 -5 -33
c0 -15 8 -21 24 -21c5 0 13 2 18 3l-10 -125c-12 -3 -26 -5 -43 -5c-61 0 -114 35 -125 94c-31 -58 -90 -94 -159 -94c-99 0 -171 55 -171 148s65 146 177 163l141 22c30 5 41 23 41 46c0 31 -23 56 -73 56c-52 0 -77 -27 -87 -63l-146 25c16 89 102 168 235 168z" />
    <glyph glyph-name="agrave" unicode="&#xe0;" horiz-adv-x="560" 
d="M360 720l42 -141h-107l-87 141h152zM341 205l9 42c-11 -6 -28 -13 -50 -18l-83 -19c-39 -9 -62 -33 -62 -63c0 -31 23 -49 61 -49c62 0 112 45 125 107zM299 553c135 0 215 -75 215 -175c0 -22 -3 -45 -7 -68l-25 -141c-2 -9 -5 -23 -5 -33c0 -15 8 -21 24 -21
c5 0 13 2 18 3l-10 -125c-12 -3 -26 -5 -43 -5c-61 0 -114 35 -125 94c-31 -58 -90 -94 -159 -94c-99 0 -171 55 -171 148s65 146 177 163l141 22c30 5 41 23 41 46c0 31 -23 56 -73 56c-52 0 -77 -27 -87 -63l-146 25c16 89 102 168 235 168z" />
    <glyph glyph-name="ocircumflex" unicode="&#xf4;" horiz-adv-x="640" 
d="M460 720l93 -141h-131l-40 51l-57 -51h-148l142 141h141zM300 -12c-168 0 -268 117 -268 255c0 163 137 310 316 310c165 0 263 -110 263 -255c0 -170 -129 -310 -311 -310zM463 298c0 69 -43 119 -115 119c-86 0 -169 -72 -169 -174c0 -71 48 -119 121 -119
c85 0 163 78 163 174z" />
    <glyph glyph-name="eacute" unicode="&#xe9;" horiz-adv-x="598" 
d="M284 579l78 141h166l-122 -141h-122zM188 319h241c-2 56 -31 101 -100 101c-67 0 -118 -40 -141 -101zM556 226h-381c0 -58 39 -105 112 -105c50 0 85 20 107 56l137 -39c-37 -85 -130 -150 -244 -150c-150 0 -255 107 -255 252c0 178 133 313 297 313
c150 0 237 -109 237 -236c0 -36 -3 -62 -10 -91z" />
    <glyph glyph-name="ecircumflex" unicode="&#xea;" horiz-adv-x="598" 
d="M449 720l93 -141h-131l-40 51l-57 -51h-148l142 141h141zM188 319h241c-2 56 -31 101 -100 101c-67 0 -118 -40 -141 -101zM556 226h-381c0 -58 39 -105 112 -105c50 0 85 20 107 56l137 -39c-37 -85 -130 -150 -244 -150c-150 0 -255 107 -255 252
c0 178 133 313 297 313c150 0 237 -109 237 -236c0 -36 -3 -62 -10 -91z" />
    <glyph glyph-name="egrave" unicode="&#xe8;" horiz-adv-x="598" 
d="M377 720l42 -141h-107l-87 141h152zM188 319h241c-2 56 -31 101 -100 101c-67 0 -118 -40 -141 -101zM556 226h-381c0 -58 39 -105 112 -105c50 0 85 20 107 56l137 -39c-37 -85 -130 -150 -244 -150c-150 0 -255 107 -255 252c0 178 133 313 297 313
c150 0 237 -109 237 -236c0 -36 -3 -62 -10 -91z" />
    <glyph glyph-name="icircumflex" unicode="&#xee;" horiz-adv-x="280" 
d="M261 541l-95 -541h-146l95 541h146zM282 720l93 -141h-131l-40 51l-57 -51h-148l142 141h141z" />
    <glyph glyph-name="ucircumflex" unicode="&#xfb;" horiz-adv-x="591" 
d="M427 720l93 -141h-131l-40 51l-57 -51h-148l142 141h141zM380 265l49 276h146l-95 -541h-139l13 89c-35 -61 -89 -101 -146 -101c-104 0 -162 73 -162 168c0 23 2 60 8 92l52 293h146l-50 -285c-5 -30 -9 -46 -9 -68c0 -38 27 -65 66 -65c44 0 73 20 94 55
c15 25 22 60 27 87z" />
    <glyph glyph-name="ugrave" unicode="&#xf9;" horiz-adv-x="591" 
d="M368 720l42 -141h-107l-87 141h152zM380 265l49 276h146l-95 -541h-139l13 89c-35 -61 -89 -101 -146 -101c-104 0 -162 73 -162 168c0 23 2 60 8 92l52 293h146l-50 -285c-5 -30 -9 -46 -9 -68c0 -38 27 -65 66 -65c44 0 73 20 94 55c15 25 22 60 27 87z" />
    <glyph glyph-name="Icircumflex" unicode="&#xce;" horiz-adv-x="289" 
d="M324 882l99 -125h-144l-39 46l-57 -46h-156l144 125h153zM300 720l-126 -720h-153l126 720h153z" />
    <glyph glyph-name="Ecircumflex" unicode="&#xca;" horiz-adv-x="552" 
d="M463 882l99 -125h-144l-39 46l-57 -46h-156l144 125h153zM21 0l126 720h431l-24 -141h-278l-24 -132h267l-25 -141h-267l-29 -165h289l-24 -141h-442z" />
    <glyph glyph-name="Ucircumflex" unicode="&#xdb;" horiz-adv-x="700" 
d="M542 882l99 -125h-144l-39 46l-57 -46h-156l144 125h153zM574 720h143l-86 -491c-26 -148 -139 -241 -289 -241c-168 0 -279 99 -279 261c0 19 4 55 16 123l62 348h153l-72 -403c-5 -26 -6 -56 -6 -65c0 -71 47 -115 128 -115c85 0 137 56 150 132z" />
    <glyph glyph-name="Ocircumflex" unicode="&#xd4;" horiz-adv-x="822" 
d="M593 882l99 -125h-144l-39 46l-57 -46h-156l144 125h153zM395 -7c-220 0 -347 143 -347 325c0 231 194 414 418 414c208 0 339 -137 339 -328c0 -239 -185 -411 -410 -411zM641 404c0 108 -71 179 -175 179c-141 0 -254 -117 -254 -265c0 -109 70 -181 183 -181
c130 0 246 122 246 267z" />
    <glyph glyph-name="nbspace" unicode="&#xa0;" horiz-adv-x="265" 
 />
    <glyph glyph-name="NULL" horiz-adv-x="0" 
 />
    <glyph glyph-name="NULL" horiz-adv-x="0" 
 />
    </font>
</defs>
</svg>
